<svg viewBox="0 0 16.6667 16.6667" fill="none" xmlns="http://www.w3.org/2000/svg">
<path fill-rule="evenodd" clip-rule="evenodd" d="M8.33333 16.6667C3.73096 16.6667 -4.02352e-07 12.9357 0 8.33333C4.02352e-07 3.73096 3.73096 -4.02352e-07 8.33333 0C12.9357 4.02352e-07 16.6667 3.73096 16.6667 8.33333C16.6667 12.9357 12.9357 16.6667 8.33333 16.6667ZM7.89144 12.1086C8.12028 12.3374 8.48254 12.3519 8.72803 12.1517L8.77523 12.1086L10.8586 10.0252C11.1026 9.78115 11.1026 9.38552 10.8586 9.14144C10.6145 8.89736 10.2188 8.89736 9.97477 9.14144L8.95833 10.1579V5.41667C8.95833 5.07149 8.67851 4.79167 8.33333 4.79167C7.98816 4.79167 7.70833 5.07149 7.70833 5.41667V10.1579L6.69189 9.14144C6.44782 8.89736 6.05218 8.89736 5.80811 9.14144C5.56403 9.38552 5.56403 9.78115 5.80811 10.0252L7.89144 12.1086Z" fill="currentColor" fill-opacity="0.3"/>
</svg>
