<svg viewBox="0 -1.3620 33.4739 33.4739" fill="none" xmlns="http://www.w3.org/2000/svg">
<path d="M18.0989 0C26.59 0.000367233 33.4739 6.88385 33.4739 15.375C33.4739 23.8661 26.59 30.7496 18.0989 30.75C13.2432 30.75 8.91186 28.4969 6.09599 24.9844C5.70803 24.4997 5.78609 23.7923 6.27031 23.4038C6.75508 23.0156 7.46383 23.0935 7.85234 23.5781C10.2595 26.5806 13.9549 28.5 18.0989 28.5C25.3473 28.4996 31.2239 22.6235 31.2239 15.375C31.2239 8.12649 25.3473 2.25037 18.0989 2.25C11.3576 2.25 5.80634 7.33285 5.06181 13.875H6.10624L6.58671 13.8779C7.0061 13.885 7.24908 13.9134 7.3997 14.0273C7.57413 14.1595 7.68235 14.3611 7.6956 14.5796C7.7106 14.8309 7.50783 15.1352 7.1038 15.7412L4.84648 19.1279C4.51307 19.628 4.34617 19.8785 4.13603 19.9658C3.95209 20.0421 3.74429 20.0421 3.56035 19.9658C3.35024 19.8784 3.18328 19.628 2.8499 19.1279L0.592573 15.7412C0.188544 15.1352 -0.0142274 14.8309 0.000775896 14.5796C0.0140205 14.3612 0.12228 14.1595 0.296674 14.0273C0.497398 13.8755 0.861979 13.875 1.59013 13.875H2.79716C3.55123 6.08763 10.1137 0 18.0989 0Z" fill="currentColor" fill-opacity="0.3"/>
<path d="M18.0989 6C18.7199 6.00037 19.2239 6.50391 19.2239 7.125V15.5625L24.7742 19.7256C25.2704 20.0985 25.3706 20.8036 24.9983 21.3003C24.6256 21.7968 23.9205 21.8967 23.4236 21.5244L17.4236 17.0244C17.1406 16.8119 16.9739 16.4789 16.9739 16.125V7.125C16.9739 6.50368 17.4776 6 18.0989 6Z" fill="currentColor" fill-opacity="0.3"/>
</svg>
