<svg viewBox="0 0 16.666 16.666" fill="none" xmlns="http://www.w3.org/2000/svg">
<path d="M8.33301 0C12.9354 1.77177e-07 16.666 3.73064 16.666 8.33301C16.666 12.9354 12.9354 16.666 8.33301 16.666C3.73064 16.666 1.77183e-07 12.9354 0 8.33301C0 3.73064 3.73064 0 8.33301 0ZM8.86328 4.46973C8.57037 4.177 8.09557 4.17689 7.80273 4.46973L5.71973 6.55273C5.42689 6.84557 5.427 7.32037 5.71973 7.61328C6.01265 7.90585 6.48749 7.90607 6.78027 7.61328L7.58301 6.81055V11.25C7.58318 11.664 7.91905 11.9998 8.33301 12C8.74696 11.9998 9.08283 11.664 9.08301 11.25V6.80957L9.88672 7.61328C10.1796 7.90585 10.6545 7.90607 10.9473 7.61328C11.2397 7.32047 11.2397 6.84555 10.9473 6.55273L8.86328 4.46973Z" fill="currentColor" fill-opacity="0.3"/>
</svg>
