<svg viewBox="0 0 16.6667 16.6667" fill="none" xmlns="http://www.w3.org/2000/svg">
<!-- load-bearing green: success transaction badge -->
<path fill-rule="evenodd" clip-rule="evenodd" d="M8.33333 0C12.9357 0 16.6667 3.73096 16.6667 8.33333C16.6667 12.9357 12.9357 16.6667 8.33333 16.6667C3.73096 16.6667 0 12.9357 0 8.33333C0 3.73096 3.73096 0 8.33333 0ZM12.1086 5.80811C11.8645 5.56403 11.4688 5.56403 11.2248 5.80811L7.08333 9.94954L5.44189 8.30811C5.19782 8.06403 4.80218 8.06403 4.55811 8.30811C4.31403 8.55218 4.31403 8.94782 4.55811 9.19189L6.64144 11.2752C6.88552 11.5193 7.28115 11.5193 7.52523 11.2752L12.1086 6.69189C12.3526 6.44782 12.3526 6.05218 12.1086 5.80811Z" fill="#208000"/>
</svg>
