<svg viewBox="0 0 16.6667 16.6667" fill="none" xmlns="http://www.w3.org/2000/svg">
<!-- load-bearing amber: pending transaction badge -->
<path fill-rule="evenodd" clip-rule="evenodd" d="M8.33333 0C12.9357 0 16.6667 3.73096 16.6667 8.33333C16.6667 12.9357 12.9357 16.6667 8.33333 16.6667C3.73096 16.6667 0 12.9357 0 8.33333C0 3.73096 3.73096 0 8.33333 0ZM8.33333 3.59782C7.98816 3.59782 7.70833 3.87764 7.70833 4.22282V8.57585L4.86165 10.4736C4.57457 10.6651 4.49688 11.0532 4.68831 11.3403C4.8798 11.6273 5.2679 11.705 5.55501 11.5137L8.68001 9.43034C8.85379 9.31448 8.95822 9.11916 8.95833 8.91032V4.22282C8.95833 3.87764 8.67851 3.59782 8.33333 3.59782Z" fill="#A69800"/>
</svg>
