<svg xmlns="http://www.w3.org/2000/svg" viewBox="0 0 24 24" width="24" height="24" fill="none">
  <!-- Background: blue circle -->
  <path d="M12 24C18.6274 24 24 18.6274 24 12C24 5.37261 18.6274 0 12 0C5.37261 0 0 5.37261 0 12C0 18.6274 5.37261 24 12 24Z" fill="#0B53BF"/>
  <!-- Foreground: USDC "C" mark (positioned at inset 13.59% top/bottom, 12.5% left/right of 24x24) -->
  <g transform="translate(3, 3.2616)">
    <path d="M11.1611 0.000976562C15.0908 0.961073 18.0008 4.50863 18.001 8.73828C18.001 12.9681 15.0909 16.5164 11.1611 17.4766V15.9316C14.2435 15.0016 16.501 12.1356 16.501 8.73828C16.5008 5.3411 14.2433 2.47599 11.1611 1.5459V0.000976562Z" fill="white"/>
    <path d="M6.83984 1.54492C3.75738 2.47492 1.5 5.34083 1.5 8.73828C1.5002 12.1356 3.75753 15.0081 6.83984 15.9307V17.4756C2.91004 16.5156 0.000204587 12.968 0 8.73828C0 4.50833 2.9099 0.960085 6.83984 0V1.54492Z" fill="white"/>
    <path d="M9.75 3.48828V4.69434C11.0574 4.95112 11.841 5.81341 11.9775 7.17871H10.4482C10.3283 6.45118 9.94499 5.91113 8.83496 5.91113C7.90535 5.91126 7.41805 6.30088 7.41797 6.9082C7.41797 8.60322 12.2256 7.34361 12.2256 10.4111C12.2255 11.728 11.2882 12.6226 9.75 12.8213V13.9883H8.25V12.8057C6.67408 12.572 5.75196 11.6359 5.65527 10.1406H7.14746C7.31243 10.9581 7.75538 11.5507 9.09766 11.5508C10.1251 11.5508 10.7324 11.1309 10.7324 10.501C10.7324 8.83598 5.91797 9.99071 5.91797 6.9082C5.91805 5.66769 6.81806 4.83385 8.25 4.65137V3.48828H9.75Z" fill="white"/>
  </g>
</svg>
