<svg xmlns="http://www.w3.org/2000/svg" viewBox="0 0 24 24" width="24" height="24" fill="none">
  <!-- Background: light gray circle (sPLUSD — Figma node 910:10323 bg) -->
  <circle cx="12" cy="12" r="12" fill="#D7D6D5"/>
  <!-- Foreground: navy pixel-art dollar glyph (Figma node 910:10325 fg),
       inset 6.67% top, 12.08% left/right, 13.33% bottom of 24px container -->
  <g transform="translate(2.8992, 1.6008) scale(0.99989, 0.99999)">
    <path d="M7 18.6006H7.7998V18.7998H8.2002V19H7V19.2002H5.40039V18.9004H4.59961V18.5H5.40039V18.2002H7V18.6006Z" fill="#000080"/>
    <path d="M12.7988 18.5H13.5996V18.9004H12.7988V19.2002H11.1992V19H9.99902V18.7998H10.3994V18.6006H11.1992V18.2002H12.7988V18.5Z" fill="#000080"/>
    <path d="M4.59961 17.2998H5.2002V17.7002H3.2002V17.4004H2.59961V17H3.2002V16.7002H4.59961V17.2998Z" fill="#000080"/>
    <path d="M14.999 17H15.5996V17.4004H14.999V17.7002H12.999V17.2998H13.5996V16.7002H14.999V17Z" fill="#000080"/>
    <path d="M9.59961 5.98828C10.2215 6.12838 10.5774 6.38746 10.8652 6.3877C11.0304 6.3877 11.2344 6.31289 11.2344 5.96289H11.8184V9.11328H11.209C11.209 7.58831 10.2812 6.61331 8.98535 6.61328C8.01978 6.61328 7.38477 7.17539 7.38477 7.90039C7.38477 10.1754 12.1992 8.85078 12.1992 12.2383C12.199 13.7968 11.1122 14.8121 9.59961 14.8926V16.3008H8.59961V14.8252C7.79426 14.6701 7.38174 14.3252 6.97754 14.3252C6.73636 14.3254 6.58398 14.4881 6.58398 14.8379H6V11.5625H6.60938C6.74912 13.0749 7.75284 14.1874 9.27734 14.1875C10.1794 14.1875 10.8018 13.6254 10.8018 12.7754C10.8018 10.5004 6 11.825 6 8.4375C6.0002 6.99888 7.08701 5.98747 8.59961 5.90723V4.5H9.59961V5.98828Z" fill="#000080"/>
    <path d="M2.90039 16.2002H1.7002V15.2002H2.90039V16.2002Z" fill="#000080"/>
    <path d="M16.499 16.2002H15.2988V15.2002H16.499V16.2002Z" fill="#000080"/>
    <path d="M1.90039 14.7002H0.799805V13.7002H1.90039V14.7002Z" fill="#000080"/>
    <path d="M17.3994 14.7002H16.2988V13.7002H17.3994V14.7002Z" fill="#000080"/>
    <path d="M1.2998 12.5H1.90039V12.9004H1.2998V13.2002H0.299805V12.2002H1.2998V12.5Z" fill="#000080"/>
    <path d="M17.8994 13.2002H16.8994V12.9004H16.2988V12.5H16.8994V12.2002H17.8994V13.2002Z" fill="#000080"/>
    <path d="M1 11H1.7998V11.4004H1V11.7002H0V10.7002H1V11Z" fill="#000080"/>
    <path d="M18.1992 11.7002H17.1992V11.4004H16.3994V11H17.1992V10.7002H18.1992V11.7002Z" fill="#000080"/>
    <path d="M1 9.5H1.7998V9.90039H1V10.2002H0V9.2002H1V9.5Z" fill="#000080"/>
    <path d="M18.1992 10.2002H17.1992V9.90039H16.3994V9.5H17.1992V9.2002H18.1992V10.2002Z" fill="#000080"/>
    <path d="M1.2998 8H1.90039V8.40039H1.2998V8.7002H0.299805V7.7002H1.2998V8Z" fill="#000080"/>
    <path d="M17.8994 8.7002H16.8994V8.40039H16.2988V8H16.8994V7.7002H17.8994V8.7002Z" fill="#000080"/>
    <path d="M1.90039 7.2002H0.799805V6.2002H1.90039V7.2002Z" fill="#000080"/>
    <path d="M17.3994 7.2002H16.2988V6.2002H17.3994V7.2002Z" fill="#000080"/>
    <path d="M3.5 5.10059H2.90039V5.7002H1.7002V4.7002H3.5V5.10059Z" fill="#000080"/>
    <path d="M16.499 5.7002H15.2988V5.10059H14.6992V4.7002H16.499V5.7002Z" fill="#000080"/>
    <path d="M9.19922 0.599609H9.2998V1.2998H10V1.39941H10.5996V1.59961H10V1.7002H9.2998V2.40039H9.19922V3H8.99902V2.40039H8.89941V1.7002H8.19922V1.59961H7.59961V1.39941H8.19922V1.2998H8.89941V0.599609H8.99902V0H9.19922V0.599609Z" fill="#000080"/>
  </g>
</svg>
