<svg viewBox="0 0 20.0001 17.0833" fill="none" xmlns="http://www.w3.org/2000/svg">
<path d="M1.97797 5.99121C2.08016 5.94883 2.19561 5.94883 2.29779 5.99121C2.41452 6.03976 2.50727 6.17888 2.69249 6.45671L3.94656 8.33822C4.17102 8.67491 4.28367 8.84396 4.27533 8.98356C4.26798 9.10491 4.20783 9.21694 4.11095 9.29037C3.99943 9.37472 3.79689 9.375 3.39236 9.375H2.75759C3.17122 13.0095 6.25523 15.8333 10.0004 15.8333C12.138 15.8332 14.0607 14.9139 15.3951 13.4473L15.6539 13.147L15.697 13.099C15.9211 12.8752 16.2829 12.853 16.5336 13.0575C16.7841 13.262 16.8349 13.6207 16.6606 13.8851L16.6232 13.9364L16.4742 14.1146C14.9088 15.9315 12.5886 17.0832 10.0004 17.0833C5.56419 17.0833 1.91838 13.7013 1.49945 9.375H0.883406C0.478843 9.375 0.276337 9.37473 0.164819 9.29037C0.067915 9.21694 0.00779072 9.10492 0.000431053 8.98356C-0.00790409 8.84396 0.104747 8.67491 0.329207 8.33822L1.58328 6.45671C1.7685 6.17887 1.86123 6.03975 1.97797 5.99121Z" fill="currentColor" fill-opacity="0.3"/>
<path d="M9.99962 2.70833C10.3996 2.70833 10.7336 3.03328 10.7337 3.44157V3.75C11.625 3.90836 12.1913 4.38331 12.533 4.83317C12.8163 5.19976 12.6666 5.7329 12.2335 5.91634C11.9335 6.04133 11.5831 5.94189 11.3831 5.68359C11.1498 5.36694 10.7334 5.04153 10.0501 5.0415C9.46674 5.0415 8.54128 5.35036 8.54128 6.20036C8.5415 6.99176 9.2587 7.29161 10.7418 7.7832C12.7417 8.47487 13.2499 9.49172 13.2499 10.6584C13.2499 12.8494 11.1678 13.2663 10.7337 13.3415V13.6418C10.7336 14.0417 10.4079 14.375 9.99962 14.375C9.59981 14.3748 9.26643 14.0499 9.26638 13.6418V13.2918C8.7413 13.1668 7.65842 12.7828 7.02517 11.5413C6.83366 11.1747 7.01706 10.7166 7.40033 10.5583L7.45811 10.533C7.79978 10.3914 8.18318 10.5336 8.35818 10.8586C8.62486 11.3669 9.15005 12.0003 10.1249 12.0003C10.8999 12.0003 11.7753 11.6 11.7753 10.6584C11.7753 9.85838 11.1917 9.44146 9.87511 8.96647C9.82203 8.94766 9.76559 8.92832 9.70665 8.90788C8.74748 8.57532 7.08305 7.99834 7.08295 6.2085C7.08295 6.12517 7.09168 4.20864 9.26638 3.74186V3.44157C9.26643 3.03341 9.59981 2.70853 9.99962 2.70833Z" fill="currentColor" fill-opacity="0.3"/>
<path d="M10.0004 0C14.4365 0.000193253 18.0817 3.38214 18.5006 7.70833H19.1166C19.5212 7.70833 19.7237 7.7086 19.8352 7.79297C19.9322 7.8664 19.9923 7.9784 19.9996 8.09977C20.008 8.23937 19.8961 8.40843 19.6717 8.74512L18.4168 10.6266C18.2315 10.9045 18.1388 11.0436 18.0221 11.0921C17.9199 11.1345 17.8044 11.1345 17.7023 11.0921C17.5855 11.0436 17.4928 10.9044 17.3076 10.6266L16.0535 8.74512C15.829 8.40843 15.7164 8.23937 15.7247 8.09977C15.7321 7.97844 15.7922 7.8664 15.8891 7.79297C16.0006 7.70861 16.2032 7.70833 16.6077 7.70833H17.2425C16.8288 4.07393 13.7455 1.25019 10.0004 1.25C7.86282 1.25 5.94025 2.16944 4.60574 3.63607L4.34695 3.93636L4.30382 3.98438C4.07989 4.20827 3.71798 4.23019 3.46723 4.02588C3.21647 3.82132 3.16582 3.4627 3.34028 3.19824L3.37771 3.14697L3.52664 2.96875C5.09216 1.15185 7.4122 -1.13135e-07 10.0004 0Z" fill="currentColor" fill-opacity="0.3"/>
</svg>
