<svg viewBox="0 -2 20 20" fill="none" xmlns="http://www.w3.org/2000/svg">
<path d="M20 2.72C20 1.76791 20 1.29187 19.8147 0.928216C19.6517 0.608341 19.3917 0.348274 19.0718 0.185289C18.7081 0 18.2321 0 17.28 0H16.72C15.7679 0 15.2919 0 14.9282 0.185289C14.6083 0.348274 14.3483 0.608341 14.1853 0.928216C14 1.29187 14 1.76791 14 2.72V13.28C14 14.2321 14 14.7081 14.1853 15.0718C14.3483 15.3917 14.6083 15.6517 14.9282 15.8147C15.2919 16 15.7679 16 16.72 16H17.28C18.2321 16 18.7081 16 19.0718 15.8147C19.3917 15.6517 19.6517 15.3917 19.8147 15.0718C20 14.7081 20 14.2321 20 13.28V2.72Z" fill="currentColor"/>
<path d="M7 7.72C7 6.76791 7 6.29187 7.18529 5.92822C7.34827 5.60834 7.60834 5.34827 7.92822 5.18529C8.29187 5 8.76791 5 9.72 5H10.28C11.2321 5 11.7081 5 12.0718 5.18529C12.3917 5.34827 12.6517 5.60834 12.8147 5.92822C13 6.29187 13 6.76791 13 7.72V13.28C13 14.2321 13 14.7081 12.8147 15.0718C12.6517 15.3917 12.3917 15.6517 12.0718 15.8147C11.7081 16 11.2321 16 10.28 16H9.72C8.76791 16 8.29187 16 7.92822 15.8147C7.60834 15.6517 7.34827 15.3917 7.18529 15.0718C7 14.7081 7 14.2321 7 13.28V7.72Z" fill="currentColor"/>
<path d="M0 11.72C0 10.7679 0 10.2919 0.185289 9.92822C0.348274 9.60834 0.608341 9.34827 0.928216 9.18529C1.29187 9 1.76791 9 2.72 9H3.28C4.23209 9 4.70813 9 5.07178 9.18529C5.39166 9.34827 5.65173 9.60834 5.81471 9.92822C6 10.2919 6 10.7679 6 11.72V13.28C6 14.2321 6 14.7081 5.81471 15.0718C5.65173 15.3917 5.39166 15.6517 5.07178 15.8147C4.70813 16 4.23209 16 3.28 16H2.72C1.76791 16 1.29187 16 0.928216 15.8147C0.608341 15.6517 0.348274 15.3917 0.185289 15.0718C0 14.7081 0 14.2321 0 13.28V11.72Z" fill="currentColor"/>
</svg>
