<svg viewBox="0 0 18 19.4663" fill="none" xmlns="http://www.w3.org/2000/svg">
<path d="M0.0740273 6.90534C0 7.16981 0 7.45699 0 8.03135V16.2663C0 17.3864 0 17.9464 0.217987 18.3743C0.409734 18.7506 0.715695 19.0565 1.09202 19.2483C1.51984 19.4663 2.0799 19.4663 3.2 19.4663H7V13.0663C7 12.5062 7 12.2262 7.10899 12.0123C7.20487 11.8241 7.35785 11.6711 7.54601 11.5753C7.75992 11.4663 8.03995 11.4663 8.6 11.4663H9.4C9.96005 11.4663 10.2401 11.4663 10.454 11.5753C10.6422 11.6711 10.7951 11.8241 10.891 12.0123C11 12.2262 11 12.5062 11 13.0663V19.4663H14.8C15.9201 19.4663 16.4802 19.4663 16.908 19.2483C17.2843 19.0565 17.5903 18.7506 17.782 18.3743C18 17.9464 18 17.3864 18 16.2663V8.03135C18 7.45699 18 7.16981 17.926 6.90534C17.8604 6.67108 17.7526 6.45074 17.608 6.25515C17.4447 6.03435 17.218 5.85804 16.7646 5.50542L10.9646 0.994307C10.262 0.447801 9.91063 0.174548 9.52269 0.0695101C9.18039 -0.02317 8.81961 -0.02317 8.47731 0.0695101C8.08937 0.174548 7.73804 0.4478 7.03539 0.994305L1.23539 5.50542C0.782021 5.85804 0.555337 6.03435 0.392027 6.25515C0.247366 6.45074 0.139601 6.67108 0.0740273 6.90534Z" fill="currentColor"/>
</svg>
