<svg viewBox="0 0 22.3159 20.5" fill="none" xmlns="http://www.w3.org/2000/svg">
<path d="M12.0659 0C17.7267 0.000244822 22.3159 4.58923 22.3159 10.25C22.3159 15.9108 17.7267 20.4998 12.0659 20.5C8.82878 20.5 5.94124 18.9979 4.06399 16.6562C3.80535 16.3332 3.85739 15.8616 4.1802 15.6025C4.50339 15.3437 4.97589 15.3957 5.23489 15.7188C6.8397 17.7204 9.30328 19 12.0659 19C16.8982 18.9998 20.8159 15.0823 20.8159 10.25C20.8159 5.41766 16.8982 1.50024 12.0659 1.5C7.57171 1.5 3.87089 4.88857 3.37454 9.25H4.07083L4.39114 9.25195C4.67073 9.25669 4.83272 9.2756 4.93313 9.35156C5.04942 9.43967 5.12157 9.5741 5.1304 9.71973C5.1404 9.88725 5.00522 10.0901 4.73587 10.4941L3.23099 12.752C3.00871 13.0854 2.89745 13.2523 2.75735 13.3105C2.63473 13.3614 2.49619 13.3614 2.37356 13.3105C2.23349 13.2523 2.12219 13.0853 1.89993 12.752L0.395049 10.4941C0.125696 10.0901 -0.00948492 9.88725 0.000517264 9.71973C0.00934697 9.57411 0.0815199 9.43968 0.197783 9.35156C0.331598 9.25033 0.574653 9.25 1.06009 9.25H1.86478C2.36749 4.05842 6.74245 0 12.0659 0Z" fill="currentColor"/>
<path d="M12.0659 4C12.48 4.00024 12.8159 4.33594 12.8159 4.75V10.375L16.5161 13.1504C16.8469 13.399 16.9137 13.869 16.6656 14.2002C16.417 14.5312 15.947 14.5978 15.6158 14.3496L11.6158 11.3496C11.4271 11.208 11.3159 10.9859 11.3159 10.75V4.75C11.3159 4.33579 11.6517 4 12.0659 4Z" fill="currentColor"/>
</svg>
