<?xml version="1.0" encoding="utf-8" standalone="no"?>
<!DOCTYPE svg PUBLIC "-//W3C//DTD SVG 1.1//EN"
  "http://www.w3.org/Graphics/SVG/1.1/DTD/svg11.dtd">
<svg xmlns:xlink="http://www.w3.org/1999/xlink" width="806.255156pt" height="350.800887pt" viewBox="0 0 806.255156 350.800887" xmlns="http://www.w3.org/2000/svg" version="1.1">
 <metadata>
  <rdf:RDF xmlns:dc="http://purl.org/dc/elements/1.1/" xmlns:cc="http://creativecommons.org/ns#" xmlns:rdf="http://www.w3.org/1999/02/22-rdf-syntax-ns#">
   <cc:Work>
    <dc:type rdf:resource="http://purl.org/dc/dcmitype/StillImage"/>
    <dc:date>2026-04-23T15:39:56.449889</dc:date>
    <dc:format>image/svg+xml</dc:format>
    <dc:creator>
     <cc:Agent>
      <dc:title>Matplotlib v3.10.8, https://matplotlib.org/</dc:title>
     </cc:Agent>
    </dc:creator>
   </cc:Work>
  </rdf:RDF>
 </metadata>
 <defs>
  <style type="text/css">*{stroke-linejoin: round; stroke-linecap: butt}</style>
 </defs>
 <g id="figure_1">
  <g id="patch_1">
   <path d="M 0 350.800887 
L 806.255156 350.800887 
L 806.255156 0 
L 0 0 
z
" style="fill: #ffffff"/>
  </g>
  <g id="axes_1">
   <g id="patch_2">
    <path d="M 185.255156 285.547569 
L 799.055156 285.547569 
L 799.055156 31.077969 
L 185.255156 31.077969 
z
" style="fill: #f8f7f6"/>
   </g>
   <g id="matplotlib.axis_1">
    <g id="xtick_1">
     <g id="line2d_1">
      <path d="M 185.255156 285.547569 
L 185.255156 31.077969 
" clip-path="url(#p0e2f6751b4)" style="fill: none; stroke: #3837352e; stroke-width: 0.5; stroke-linecap: square"/>
     </g>
     <g id="line2d_2">
      <defs>
       <path id="m79840f269f" d="M 0 0 
L 0 3.5 
" style="stroke: #736f6c; stroke-width: 0.8"/>
      </defs>
      <g>
       <use xlink:href="#m79840f269f" x="185.255156" y="285.547569" style="fill: #736f6c; stroke: #736f6c; stroke-width: 0.8"/>
      </g>
     </g>
     <g id="text_1">
      <!-- 0 -->
      <g style="fill: #736f6c" transform="translate(181.755781 300.90585) scale(0.11 -0.11)">
       <defs>
        <path id="DejaVuSans-30" d="M 2034 4250 
Q 1547 4250 1301 3770 
Q 1056 3291 1056 2328 
Q 1056 1369 1301 889 
Q 1547 409 2034 409 
Q 2525 409 2770 889 
Q 3016 1369 3016 2328 
Q 3016 3291 2770 3770 
Q 2525 4250 2034 4250 
z
M 2034 4750 
Q 2819 4750 3233 4129 
Q 3647 3509 3647 2328 
Q 3647 1150 3233 529 
Q 2819 -91 2034 -91 
Q 1250 -91 836 529 
Q 422 1150 422 2328 
Q 422 3509 836 4129 
Q 1250 4750 2034 4750 
z
" transform="scale(0.015625)"/>
       </defs>
       <use xlink:href="#DejaVuSans-30"/>
      </g>
     </g>
    </g>
    <g id="xtick_2">
     <g id="line2d_3">
      <path d="M 269.107615 285.547569 
L 269.107615 31.077969 
" clip-path="url(#p0e2f6751b4)" style="fill: none; stroke: #3837352e; stroke-width: 0.5; stroke-linecap: square"/>
     </g>
     <g id="line2d_4">
      <g>
       <use xlink:href="#m79840f269f" x="269.107615" y="285.547569" style="fill: #736f6c; stroke: #736f6c; stroke-width: 0.8"/>
      </g>
     </g>
     <g id="text_2">
      <!-- 100 -->
      <g style="fill: #736f6c" transform="translate(258.60949 300.90585) scale(0.11 -0.11)">
       <defs>
        <path id="DejaVuSans-31" d="M 794 531 
L 1825 531 
L 1825 4091 
L 703 3866 
L 703 4441 
L 1819 4666 
L 2450 4666 
L 2450 531 
L 3481 531 
L 3481 0 
L 794 0 
L 794 531 
z
" transform="scale(0.015625)"/>
       </defs>
       <use xlink:href="#DejaVuSans-31"/>
       <use xlink:href="#DejaVuSans-30" transform="translate(63.623047 0)"/>
       <use xlink:href="#DejaVuSans-30" transform="translate(127.246094 0)"/>
      </g>
     </g>
    </g>
    <g id="xtick_3">
     <g id="line2d_5">
      <path d="M 352.960074 285.547569 
L 352.960074 31.077969 
" clip-path="url(#p0e2f6751b4)" style="fill: none; stroke: #3837352e; stroke-width: 0.5; stroke-linecap: square"/>
     </g>
     <g id="line2d_6">
      <g>
       <use xlink:href="#m79840f269f" x="352.960074" y="285.547569" style="fill: #736f6c; stroke: #736f6c; stroke-width: 0.8"/>
      </g>
     </g>
     <g id="text_3">
      <!-- 200 -->
      <g style="fill: #736f6c" transform="translate(342.461949 300.90585) scale(0.11 -0.11)">
       <defs>
        <path id="DejaVuSans-32" d="M 1228 531 
L 3431 531 
L 3431 0 
L 469 0 
L 469 531 
Q 828 903 1448 1529 
Q 2069 2156 2228 2338 
Q 2531 2678 2651 2914 
Q 2772 3150 2772 3378 
Q 2772 3750 2511 3984 
Q 2250 4219 1831 4219 
Q 1534 4219 1204 4116 
Q 875 4013 500 3803 
L 500 4441 
Q 881 4594 1212 4672 
Q 1544 4750 1819 4750 
Q 2544 4750 2975 4387 
Q 3406 4025 3406 3419 
Q 3406 3131 3298 2873 
Q 3191 2616 2906 2266 
Q 2828 2175 2409 1742 
Q 1991 1309 1228 531 
z
" transform="scale(0.015625)"/>
       </defs>
       <use xlink:href="#DejaVuSans-32"/>
       <use xlink:href="#DejaVuSans-30" transform="translate(63.623047 0)"/>
       <use xlink:href="#DejaVuSans-30" transform="translate(127.246094 0)"/>
      </g>
     </g>
    </g>
    <g id="xtick_4">
     <g id="line2d_7">
      <path d="M 436.812533 285.547569 
L 436.812533 31.077969 
" clip-path="url(#p0e2f6751b4)" style="fill: none; stroke: #3837352e; stroke-width: 0.5; stroke-linecap: square"/>
     </g>
     <g id="line2d_8">
      <g>
       <use xlink:href="#m79840f269f" x="436.812533" y="285.547569" style="fill: #736f6c; stroke: #736f6c; stroke-width: 0.8"/>
      </g>
     </g>
     <g id="text_4">
      <!-- 300 -->
      <g style="fill: #736f6c" transform="translate(426.314408 300.90585) scale(0.11 -0.11)">
       <defs>
        <path id="DejaVuSans-33" d="M 2597 2516 
Q 3050 2419 3304 2112 
Q 3559 1806 3559 1356 
Q 3559 666 3084 287 
Q 2609 -91 1734 -91 
Q 1441 -91 1130 -33 
Q 819 25 488 141 
L 488 750 
Q 750 597 1062 519 
Q 1375 441 1716 441 
Q 2309 441 2620 675 
Q 2931 909 2931 1356 
Q 2931 1769 2642 2001 
Q 2353 2234 1838 2234 
L 1294 2234 
L 1294 2753 
L 1863 2753 
Q 2328 2753 2575 2939 
Q 2822 3125 2822 3475 
Q 2822 3834 2567 4026 
Q 2313 4219 1838 4219 
Q 1578 4219 1281 4162 
Q 984 4106 628 3988 
L 628 4550 
Q 988 4650 1302 4700 
Q 1616 4750 1894 4750 
Q 2613 4750 3031 4423 
Q 3450 4097 3450 3541 
Q 3450 3153 3228 2886 
Q 3006 2619 2597 2516 
z
" transform="scale(0.015625)"/>
       </defs>
       <use xlink:href="#DejaVuSans-33"/>
       <use xlink:href="#DejaVuSans-30" transform="translate(63.623047 0)"/>
       <use xlink:href="#DejaVuSans-30" transform="translate(127.246094 0)"/>
      </g>
     </g>
    </g>
    <g id="xtick_5">
     <g id="line2d_9">
      <path d="M 520.664992 285.547569 
L 520.664992 31.077969 
" clip-path="url(#p0e2f6751b4)" style="fill: none; stroke: #3837352e; stroke-width: 0.5; stroke-linecap: square"/>
     </g>
     <g id="line2d_10">
      <g>
       <use xlink:href="#m79840f269f" x="520.664992" y="285.547569" style="fill: #736f6c; stroke: #736f6c; stroke-width: 0.8"/>
      </g>
     </g>
     <g id="text_5">
      <!-- 400 -->
      <g style="fill: #736f6c" transform="translate(510.166867 300.90585) scale(0.11 -0.11)">
       <defs>
        <path id="DejaVuSans-34" d="M 2419 4116 
L 825 1625 
L 2419 1625 
L 2419 4116 
z
M 2253 4666 
L 3047 4666 
L 3047 1625 
L 3713 1625 
L 3713 1100 
L 3047 1100 
L 3047 0 
L 2419 0 
L 2419 1100 
L 313 1100 
L 313 1709 
L 2253 4666 
z
" transform="scale(0.015625)"/>
       </defs>
       <use xlink:href="#DejaVuSans-34"/>
       <use xlink:href="#DejaVuSans-30" transform="translate(63.623047 0)"/>
       <use xlink:href="#DejaVuSans-30" transform="translate(127.246094 0)"/>
      </g>
     </g>
    </g>
    <g id="xtick_6">
     <g id="line2d_11">
      <path d="M 604.517451 285.547569 
L 604.517451 31.077969 
" clip-path="url(#p0e2f6751b4)" style="fill: none; stroke: #3837352e; stroke-width: 0.5; stroke-linecap: square"/>
     </g>
     <g id="line2d_12">
      <g>
       <use xlink:href="#m79840f269f" x="604.517451" y="285.547569" style="fill: #736f6c; stroke: #736f6c; stroke-width: 0.8"/>
      </g>
     </g>
     <g id="text_6">
      <!-- 500 -->
      <g style="fill: #736f6c" transform="translate(594.019326 300.90585) scale(0.11 -0.11)">
       <defs>
        <path id="DejaVuSans-35" d="M 691 4666 
L 3169 4666 
L 3169 4134 
L 1269 4134 
L 1269 2991 
Q 1406 3038 1543 3061 
Q 1681 3084 1819 3084 
Q 2600 3084 3056 2656 
Q 3513 2228 3513 1497 
Q 3513 744 3044 326 
Q 2575 -91 1722 -91 
Q 1428 -91 1123 -41 
Q 819 9 494 109 
L 494 744 
Q 775 591 1075 516 
Q 1375 441 1709 441 
Q 2250 441 2565 725 
Q 2881 1009 2881 1497 
Q 2881 1984 2565 2268 
Q 2250 2553 1709 2553 
Q 1456 2553 1204 2497 
Q 953 2441 691 2322 
L 691 4666 
z
" transform="scale(0.015625)"/>
       </defs>
       <use xlink:href="#DejaVuSans-35"/>
       <use xlink:href="#DejaVuSans-30" transform="translate(63.623047 0)"/>
       <use xlink:href="#DejaVuSans-30" transform="translate(127.246094 0)"/>
      </g>
     </g>
    </g>
    <g id="xtick_7">
     <g id="line2d_13">
      <path d="M 688.36991 285.547569 
L 688.36991 31.077969 
" clip-path="url(#p0e2f6751b4)" style="fill: none; stroke: #3837352e; stroke-width: 0.5; stroke-linecap: square"/>
     </g>
     <g id="line2d_14">
      <g>
       <use xlink:href="#m79840f269f" x="688.36991" y="285.547569" style="fill: #736f6c; stroke: #736f6c; stroke-width: 0.8"/>
      </g>
     </g>
     <g id="text_7">
      <!-- 600 -->
      <g style="fill: #736f6c" transform="translate(677.871785 300.90585) scale(0.11 -0.11)">
       <defs>
        <path id="DejaVuSans-36" d="M 2113 2584 
Q 1688 2584 1439 2293 
Q 1191 2003 1191 1497 
Q 1191 994 1439 701 
Q 1688 409 2113 409 
Q 2538 409 2786 701 
Q 3034 994 3034 1497 
Q 3034 2003 2786 2293 
Q 2538 2584 2113 2584 
z
M 3366 4563 
L 3366 3988 
Q 3128 4100 2886 4159 
Q 2644 4219 2406 4219 
Q 1781 4219 1451 3797 
Q 1122 3375 1075 2522 
Q 1259 2794 1537 2939 
Q 1816 3084 2150 3084 
Q 2853 3084 3261 2657 
Q 3669 2231 3669 1497 
Q 3669 778 3244 343 
Q 2819 -91 2113 -91 
Q 1303 -91 875 529 
Q 447 1150 447 2328 
Q 447 3434 972 4092 
Q 1497 4750 2381 4750 
Q 2619 4750 2861 4703 
Q 3103 4656 3366 4563 
z
" transform="scale(0.015625)"/>
       </defs>
       <use xlink:href="#DejaVuSans-36"/>
       <use xlink:href="#DejaVuSans-30" transform="translate(63.623047 0)"/>
       <use xlink:href="#DejaVuSans-30" transform="translate(127.246094 0)"/>
      </g>
     </g>
    </g>
    <g id="xtick_8">
     <g id="line2d_15">
      <path d="M 772.222369 285.547569 
L 772.222369 31.077969 
" clip-path="url(#p0e2f6751b4)" style="fill: none; stroke: #3837352e; stroke-width: 0.5; stroke-linecap: square"/>
     </g>
     <g id="line2d_16">
      <g>
       <use xlink:href="#m79840f269f" x="772.222369" y="285.547569" style="fill: #736f6c; stroke: #736f6c; stroke-width: 0.8"/>
      </g>
     </g>
     <g id="text_8">
      <!-- 700 -->
      <g style="fill: #736f6c" transform="translate(761.724244 300.90585) scale(0.11 -0.11)">
       <defs>
        <path id="DejaVuSans-37" d="M 525 4666 
L 3525 4666 
L 3525 4397 
L 1831 0 
L 1172 0 
L 2766 4134 
L 525 4134 
L 525 4666 
z
" transform="scale(0.015625)"/>
       </defs>
       <use xlink:href="#DejaVuSans-37"/>
       <use xlink:href="#DejaVuSans-30" transform="translate(63.623047 0)"/>
       <use xlink:href="#DejaVuSans-30" transform="translate(127.246094 0)"/>
      </g>
     </g>
    </g>
    <g id="text_9">
     <!-- Basis points per year (bps) -->
     <g style="fill: #262524" transform="translate(418.321094 315.551787) scale(0.11 -0.11)">
      <defs>
       <path id="DejaVuSans-42" d="M 1259 2228 
L 1259 519 
L 2272 519 
Q 2781 519 3026 730 
Q 3272 941 3272 1375 
Q 3272 1813 3026 2020 
Q 2781 2228 2272 2228 
L 1259 2228 
z
M 1259 4147 
L 1259 2741 
L 2194 2741 
Q 2656 2741 2882 2914 
Q 3109 3088 3109 3444 
Q 3109 3797 2882 3972 
Q 2656 4147 2194 4147 
L 1259 4147 
z
M 628 4666 
L 2241 4666 
Q 2963 4666 3353 4366 
Q 3744 4066 3744 3513 
Q 3744 3084 3544 2831 
Q 3344 2578 2956 2516 
Q 3422 2416 3680 2098 
Q 3938 1781 3938 1306 
Q 3938 681 3513 340 
Q 3088 0 2303 0 
L 628 0 
L 628 4666 
z
" transform="scale(0.015625)"/>
       <path id="DejaVuSans-61" d="M 2194 1759 
Q 1497 1759 1228 1600 
Q 959 1441 959 1056 
Q 959 750 1161 570 
Q 1363 391 1709 391 
Q 2188 391 2477 730 
Q 2766 1069 2766 1631 
L 2766 1759 
L 2194 1759 
z
M 3341 1997 
L 3341 0 
L 2766 0 
L 2766 531 
Q 2569 213 2275 61 
Q 1981 -91 1556 -91 
Q 1019 -91 701 211 
Q 384 513 384 1019 
Q 384 1609 779 1909 
Q 1175 2209 1959 2209 
L 2766 2209 
L 2766 2266 
Q 2766 2663 2505 2880 
Q 2244 3097 1772 3097 
Q 1472 3097 1187 3025 
Q 903 2953 641 2809 
L 641 3341 
Q 956 3463 1253 3523 
Q 1550 3584 1831 3584 
Q 2591 3584 2966 3190 
Q 3341 2797 3341 1997 
z
" transform="scale(0.015625)"/>
       <path id="DejaVuSans-73" d="M 2834 3397 
L 2834 2853 
Q 2591 2978 2328 3040 
Q 2066 3103 1784 3103 
Q 1356 3103 1142 2972 
Q 928 2841 928 2578 
Q 928 2378 1081 2264 
Q 1234 2150 1697 2047 
L 1894 2003 
Q 2506 1872 2764 1633 
Q 3022 1394 3022 966 
Q 3022 478 2636 193 
Q 2250 -91 1575 -91 
Q 1294 -91 989 -36 
Q 684 19 347 128 
L 347 722 
Q 666 556 975 473 
Q 1284 391 1588 391 
Q 1994 391 2212 530 
Q 2431 669 2431 922 
Q 2431 1156 2273 1281 
Q 2116 1406 1581 1522 
L 1381 1569 
Q 847 1681 609 1914 
Q 372 2147 372 2553 
Q 372 3047 722 3315 
Q 1072 3584 1716 3584 
Q 2034 3584 2315 3537 
Q 2597 3491 2834 3397 
z
" transform="scale(0.015625)"/>
       <path id="DejaVuSans-69" d="M 603 3500 
L 1178 3500 
L 1178 0 
L 603 0 
L 603 3500 
z
M 603 4863 
L 1178 4863 
L 1178 4134 
L 603 4134 
L 603 4863 
z
" transform="scale(0.015625)"/>
       <path id="DejaVuSans-20" transform="scale(0.015625)"/>
       <path id="DejaVuSans-70" d="M 1159 525 
L 1159 -1331 
L 581 -1331 
L 581 3500 
L 1159 3500 
L 1159 2969 
Q 1341 3281 1617 3432 
Q 1894 3584 2278 3584 
Q 2916 3584 3314 3078 
Q 3713 2572 3713 1747 
Q 3713 922 3314 415 
Q 2916 -91 2278 -91 
Q 1894 -91 1617 61 
Q 1341 213 1159 525 
z
M 3116 1747 
Q 3116 2381 2855 2742 
Q 2594 3103 2138 3103 
Q 1681 3103 1420 2742 
Q 1159 2381 1159 1747 
Q 1159 1113 1420 752 
Q 1681 391 2138 391 
Q 2594 391 2855 752 
Q 3116 1113 3116 1747 
z
" transform="scale(0.015625)"/>
       <path id="DejaVuSans-6f" d="M 1959 3097 
Q 1497 3097 1228 2736 
Q 959 2375 959 1747 
Q 959 1119 1226 758 
Q 1494 397 1959 397 
Q 2419 397 2687 759 
Q 2956 1122 2956 1747 
Q 2956 2369 2687 2733 
Q 2419 3097 1959 3097 
z
M 1959 3584 
Q 2709 3584 3137 3096 
Q 3566 2609 3566 1747 
Q 3566 888 3137 398 
Q 2709 -91 1959 -91 
Q 1206 -91 779 398 
Q 353 888 353 1747 
Q 353 2609 779 3096 
Q 1206 3584 1959 3584 
z
" transform="scale(0.015625)"/>
       <path id="DejaVuSans-6e" d="M 3513 2113 
L 3513 0 
L 2938 0 
L 2938 2094 
Q 2938 2591 2744 2837 
Q 2550 3084 2163 3084 
Q 1697 3084 1428 2787 
Q 1159 2491 1159 1978 
L 1159 0 
L 581 0 
L 581 3500 
L 1159 3500 
L 1159 2956 
Q 1366 3272 1645 3428 
Q 1925 3584 2291 3584 
Q 2894 3584 3203 3211 
Q 3513 2838 3513 2113 
z
" transform="scale(0.015625)"/>
       <path id="DejaVuSans-74" d="M 1172 4494 
L 1172 3500 
L 2356 3500 
L 2356 3053 
L 1172 3053 
L 1172 1153 
Q 1172 725 1289 603 
Q 1406 481 1766 481 
L 2356 481 
L 2356 0 
L 1766 0 
Q 1100 0 847 248 
Q 594 497 594 1153 
L 594 3053 
L 172 3053 
L 172 3500 
L 594 3500 
L 594 4494 
L 1172 4494 
z
" transform="scale(0.015625)"/>
       <path id="DejaVuSans-65" d="M 3597 1894 
L 3597 1613 
L 953 1613 
Q 991 1019 1311 708 
Q 1631 397 2203 397 
Q 2534 397 2845 478 
Q 3156 559 3463 722 
L 3463 178 
Q 3153 47 2828 -22 
Q 2503 -91 2169 -91 
Q 1331 -91 842 396 
Q 353 884 353 1716 
Q 353 2575 817 3079 
Q 1281 3584 2069 3584 
Q 2775 3584 3186 3129 
Q 3597 2675 3597 1894 
z
M 3022 2063 
Q 3016 2534 2758 2815 
Q 2500 3097 2075 3097 
Q 1594 3097 1305 2825 
Q 1016 2553 972 2059 
L 3022 2063 
z
" transform="scale(0.015625)"/>
       <path id="DejaVuSans-72" d="M 2631 2963 
Q 2534 3019 2420 3045 
Q 2306 3072 2169 3072 
Q 1681 3072 1420 2755 
Q 1159 2438 1159 1844 
L 1159 0 
L 581 0 
L 581 3500 
L 1159 3500 
L 1159 2956 
Q 1341 3275 1631 3429 
Q 1922 3584 2338 3584 
Q 2397 3584 2469 3576 
Q 2541 3569 2628 3553 
L 2631 2963 
z
" transform="scale(0.015625)"/>
       <path id="DejaVuSans-79" d="M 2059 -325 
Q 1816 -950 1584 -1140 
Q 1353 -1331 966 -1331 
L 506 -1331 
L 506 -850 
L 844 -850 
Q 1081 -850 1212 -737 
Q 1344 -625 1503 -206 
L 1606 56 
L 191 3500 
L 800 3500 
L 1894 763 
L 2988 3500 
L 3597 3500 
L 2059 -325 
z
" transform="scale(0.015625)"/>
       <path id="DejaVuSans-28" d="M 1984 4856 
Q 1566 4138 1362 3434 
Q 1159 2731 1159 2009 
Q 1159 1288 1364 580 
Q 1569 -128 1984 -844 
L 1484 -844 
Q 1016 -109 783 600 
Q 550 1309 550 2009 
Q 550 2706 781 3412 
Q 1013 4119 1484 4856 
L 1984 4856 
z
" transform="scale(0.015625)"/>
       <path id="DejaVuSans-62" d="M 3116 1747 
Q 3116 2381 2855 2742 
Q 2594 3103 2138 3103 
Q 1681 3103 1420 2742 
Q 1159 2381 1159 1747 
Q 1159 1113 1420 752 
Q 1681 391 2138 391 
Q 2594 391 2855 752 
Q 3116 1113 3116 1747 
z
M 1159 2969 
Q 1341 3281 1617 3432 
Q 1894 3584 2278 3584 
Q 2916 3584 3314 3078 
Q 3713 2572 3713 1747 
Q 3713 922 3314 415 
Q 2916 -91 2278 -91 
Q 1894 -91 1617 61 
Q 1341 213 1159 525 
L 1159 0 
L 581 0 
L 581 4863 
L 1159 4863 
L 1159 2969 
z
" transform="scale(0.015625)"/>
       <path id="DejaVuSans-29" d="M 513 4856 
L 1013 4856 
Q 1481 4119 1714 3412 
Q 1947 2706 1947 2009 
Q 1947 1309 1714 600 
Q 1481 -109 1013 -844 
L 513 -844 
Q 928 -128 1133 580 
Q 1338 1288 1338 2009 
Q 1338 2731 1133 3434 
Q 928 4138 513 4856 
z
" transform="scale(0.015625)"/>
      </defs>
      <use xlink:href="#DejaVuSans-42"/>
      <use xlink:href="#DejaVuSans-61" transform="translate(68.603516 0)"/>
      <use xlink:href="#DejaVuSans-73" transform="translate(129.882812 0)"/>
      <use xlink:href="#DejaVuSans-69" transform="translate(181.982422 0)"/>
      <use xlink:href="#DejaVuSans-73" transform="translate(209.765625 0)"/>
      <use xlink:href="#DejaVuSans-20" transform="translate(261.865234 0)"/>
      <use xlink:href="#DejaVuSans-70" transform="translate(293.652344 0)"/>
      <use xlink:href="#DejaVuSans-6f" transform="translate(357.128906 0)"/>
      <use xlink:href="#DejaVuSans-69" transform="translate(418.310547 0)"/>
      <use xlink:href="#DejaVuSans-6e" transform="translate(446.09375 0)"/>
      <use xlink:href="#DejaVuSans-74" transform="translate(509.472656 0)"/>
      <use xlink:href="#DejaVuSans-73" transform="translate(548.681641 0)"/>
      <use xlink:href="#DejaVuSans-20" transform="translate(600.78125 0)"/>
      <use xlink:href="#DejaVuSans-70" transform="translate(632.568359 0)"/>
      <use xlink:href="#DejaVuSans-65" transform="translate(696.044922 0)"/>
      <use xlink:href="#DejaVuSans-72" transform="translate(757.568359 0)"/>
      <use xlink:href="#DejaVuSans-20" transform="translate(798.681641 0)"/>
      <use xlink:href="#DejaVuSans-79" transform="translate(830.46875 0)"/>
      <use xlink:href="#DejaVuSans-65" transform="translate(889.648438 0)"/>
      <use xlink:href="#DejaVuSans-61" transform="translate(951.171875 0)"/>
      <use xlink:href="#DejaVuSans-72" transform="translate(1012.451172 0)"/>
      <use xlink:href="#DejaVuSans-20" transform="translate(1053.564453 0)"/>
      <use xlink:href="#DejaVuSans-28" transform="translate(1085.351562 0)"/>
      <use xlink:href="#DejaVuSans-62" transform="translate(1124.365234 0)"/>
      <use xlink:href="#DejaVuSans-70" transform="translate(1187.841797 0)"/>
      <use xlink:href="#DejaVuSans-73" transform="translate(1251.318359 0)"/>
      <use xlink:href="#DejaVuSans-29" transform="translate(1303.417969 0)"/>
     </g>
    </g>
   </g>
   <g id="matplotlib.axis_2">
    <g id="ytick_1">
     <g id="line2d_17">
      <defs>
       <path id="m17139de66a" d="M 0 0 
L -3.5 0 
" style="stroke: #736f6c; stroke-width: 0.8"/>
      </defs>
      <g>
       <use xlink:href="#m17139de66a" x="185.255156" y="59.026932" style="fill: #736f6c; stroke: #736f6c; stroke-width: 0.8"/>
      </g>
     </g>
     <g id="text_10">
      <!-- Senior coupon (net of fees) -->
      <g style="fill: #736f6c" transform="translate(28.426563 63.206072) scale(0.11 -0.11)">
       <defs>
        <path id="DejaVuSans-53" d="M 3425 4513 
L 3425 3897 
Q 3066 4069 2747 4153 
Q 2428 4238 2131 4238 
Q 1616 4238 1336 4038 
Q 1056 3838 1056 3469 
Q 1056 3159 1242 3001 
Q 1428 2844 1947 2747 
L 2328 2669 
Q 3034 2534 3370 2195 
Q 3706 1856 3706 1288 
Q 3706 609 3251 259 
Q 2797 -91 1919 -91 
Q 1588 -91 1214 -16 
Q 841 59 441 206 
L 441 856 
Q 825 641 1194 531 
Q 1563 422 1919 422 
Q 2459 422 2753 634 
Q 3047 847 3047 1241 
Q 3047 1584 2836 1778 
Q 2625 1972 2144 2069 
L 1759 2144 
Q 1053 2284 737 2584 
Q 422 2884 422 3419 
Q 422 4038 858 4394 
Q 1294 4750 2059 4750 
Q 2388 4750 2728 4690 
Q 3069 4631 3425 4513 
z
" transform="scale(0.015625)"/>
        <path id="DejaVuSans-63" d="M 3122 3366 
L 3122 2828 
Q 2878 2963 2633 3030 
Q 2388 3097 2138 3097 
Q 1578 3097 1268 2742 
Q 959 2388 959 1747 
Q 959 1106 1268 751 
Q 1578 397 2138 397 
Q 2388 397 2633 464 
Q 2878 531 3122 666 
L 3122 134 
Q 2881 22 2623 -34 
Q 2366 -91 2075 -91 
Q 1284 -91 818 406 
Q 353 903 353 1747 
Q 353 2603 823 3093 
Q 1294 3584 2113 3584 
Q 2378 3584 2631 3529 
Q 2884 3475 3122 3366 
z
" transform="scale(0.015625)"/>
        <path id="DejaVuSans-75" d="M 544 1381 
L 544 3500 
L 1119 3500 
L 1119 1403 
Q 1119 906 1312 657 
Q 1506 409 1894 409 
Q 2359 409 2629 706 
Q 2900 1003 2900 1516 
L 2900 3500 
L 3475 3500 
L 3475 0 
L 2900 0 
L 2900 538 
Q 2691 219 2414 64 
Q 2138 -91 1772 -91 
Q 1169 -91 856 284 
Q 544 659 544 1381 
z
M 1991 3584 
L 1991 3584 
z
" transform="scale(0.015625)"/>
        <path id="DejaVuSans-66" d="M 2375 4863 
L 2375 4384 
L 1825 4384 
Q 1516 4384 1395 4259 
Q 1275 4134 1275 3809 
L 1275 3500 
L 2222 3500 
L 2222 3053 
L 1275 3053 
L 1275 0 
L 697 0 
L 697 3053 
L 147 3053 
L 147 3500 
L 697 3500 
L 697 3744 
Q 697 4328 969 4595 
Q 1241 4863 1831 4863 
L 2375 4863 
z
" transform="scale(0.015625)"/>
       </defs>
       <use xlink:href="#DejaVuSans-53"/>
       <use xlink:href="#DejaVuSans-65" transform="translate(63.476562 0)"/>
       <use xlink:href="#DejaVuSans-6e" transform="translate(125 0)"/>
       <use xlink:href="#DejaVuSans-69" transform="translate(188.378906 0)"/>
       <use xlink:href="#DejaVuSans-6f" transform="translate(216.162109 0)"/>
       <use xlink:href="#DejaVuSans-72" transform="translate(277.34375 0)"/>
       <use xlink:href="#DejaVuSans-20" transform="translate(318.457031 0)"/>
       <use xlink:href="#DejaVuSans-63" transform="translate(350.244141 0)"/>
       <use xlink:href="#DejaVuSans-6f" transform="translate(405.224609 0)"/>
       <use xlink:href="#DejaVuSans-75" transform="translate(466.40625 0)"/>
       <use xlink:href="#DejaVuSans-70" transform="translate(529.785156 0)"/>
       <use xlink:href="#DejaVuSans-6f" transform="translate(593.261719 0)"/>
       <use xlink:href="#DejaVuSans-6e" transform="translate(654.443359 0)"/>
       <use xlink:href="#DejaVuSans-20" transform="translate(717.822266 0)"/>
       <use xlink:href="#DejaVuSans-28" transform="translate(749.609375 0)"/>
       <use xlink:href="#DejaVuSans-6e" transform="translate(788.623047 0)"/>
       <use xlink:href="#DejaVuSans-65" transform="translate(852.001953 0)"/>
       <use xlink:href="#DejaVuSans-74" transform="translate(913.525391 0)"/>
       <use xlink:href="#DejaVuSans-20" transform="translate(952.734375 0)"/>
       <use xlink:href="#DejaVuSans-6f" transform="translate(984.521484 0)"/>
       <use xlink:href="#DejaVuSans-66" transform="translate(1045.703125 0)"/>
       <use xlink:href="#DejaVuSans-20" transform="translate(1080.908203 0)"/>
       <use xlink:href="#DejaVuSans-66" transform="translate(1112.695312 0)"/>
       <use xlink:href="#DejaVuSans-65" transform="translate(1147.900391 0)"/>
       <use xlink:href="#DejaVuSans-65" transform="translate(1209.423828 0)"/>
       <use xlink:href="#DejaVuSans-73" transform="translate(1270.947266 0)"/>
       <use xlink:href="#DejaVuSans-29" transform="translate(1323.046875 0)"/>
      </g>
     </g>
    </g>
    <g id="ytick_2">
     <g id="line2d_18">
      <g>
       <use xlink:href="#m17139de66a" x="185.255156" y="108.66985" style="fill: #736f6c; stroke: #736f6c; stroke-width: 0.8"/>
      </g>
     </g>
     <g id="text_11">
      <!-- T-bill accrual (70% vault share) -->
      <g style="fill: #736f6c" transform="translate(7.2 112.848991) scale(0.11 -0.11)">
       <defs>
        <path id="DejaVuSans-54" d="M -19 4666 
L 3928 4666 
L 3928 4134 
L 2272 4134 
L 2272 0 
L 1638 0 
L 1638 4134 
L -19 4134 
L -19 4666 
z
" transform="scale(0.015625)"/>
        <path id="DejaVuSans-2d" d="M 313 2009 
L 1997 2009 
L 1997 1497 
L 313 1497 
L 313 2009 
z
" transform="scale(0.015625)"/>
        <path id="DejaVuSans-6c" d="M 603 4863 
L 1178 4863 
L 1178 0 
L 603 0 
L 603 4863 
z
" transform="scale(0.015625)"/>
        <path id="DejaVuSans-25" d="M 4653 2053 
Q 4381 2053 4226 1822 
Q 4072 1591 4072 1178 
Q 4072 772 4226 539 
Q 4381 306 4653 306 
Q 4919 306 5073 539 
Q 5228 772 5228 1178 
Q 5228 1588 5073 1820 
Q 4919 2053 4653 2053 
z
M 4653 2450 
Q 5147 2450 5437 2106 
Q 5728 1763 5728 1178 
Q 5728 594 5436 251 
Q 5144 -91 4653 -91 
Q 4153 -91 3862 251 
Q 3572 594 3572 1178 
Q 3572 1766 3864 2108 
Q 4156 2450 4653 2450 
z
M 1428 4353 
Q 1159 4353 1004 4120 
Q 850 3888 850 3481 
Q 850 3069 1003 2837 
Q 1156 2606 1428 2606 
Q 1700 2606 1854 2837 
Q 2009 3069 2009 3481 
Q 2009 3884 1853 4118 
Q 1697 4353 1428 4353 
z
M 4250 4750 
L 4750 4750 
L 1831 -91 
L 1331 -91 
L 4250 4750 
z
M 1428 4750 
Q 1922 4750 2215 4408 
Q 2509 4066 2509 3481 
Q 2509 2891 2217 2550 
Q 1925 2209 1428 2209 
Q 931 2209 642 2551 
Q 353 2894 353 3481 
Q 353 4063 643 4406 
Q 934 4750 1428 4750 
z
" transform="scale(0.015625)"/>
        <path id="DejaVuSans-76" d="M 191 3500 
L 800 3500 
L 1894 563 
L 2988 3500 
L 3597 3500 
L 2284 0 
L 1503 0 
L 191 3500 
z
" transform="scale(0.015625)"/>
        <path id="DejaVuSans-68" d="M 3513 2113 
L 3513 0 
L 2938 0 
L 2938 2094 
Q 2938 2591 2744 2837 
Q 2550 3084 2163 3084 
Q 1697 3084 1428 2787 
Q 1159 2491 1159 1978 
L 1159 0 
L 581 0 
L 581 4863 
L 1159 4863 
L 1159 2956 
Q 1366 3272 1645 3428 
Q 1925 3584 2291 3584 
Q 2894 3584 3203 3211 
Q 3513 2838 3513 2113 
z
" transform="scale(0.015625)"/>
       </defs>
       <use xlink:href="#DejaVuSans-54"/>
       <use xlink:href="#DejaVuSans-2d" transform="translate(51.958984 0)"/>
       <use xlink:href="#DejaVuSans-62" transform="translate(88.042969 0)"/>
       <use xlink:href="#DejaVuSans-69" transform="translate(151.519531 0)"/>
       <use xlink:href="#DejaVuSans-6c" transform="translate(179.302734 0)"/>
       <use xlink:href="#DejaVuSans-6c" transform="translate(207.085938 0)"/>
       <use xlink:href="#DejaVuSans-20" transform="translate(234.869141 0)"/>
       <use xlink:href="#DejaVuSans-61" transform="translate(266.65625 0)"/>
       <use xlink:href="#DejaVuSans-63" transform="translate(327.935547 0)"/>
       <use xlink:href="#DejaVuSans-63" transform="translate(382.916016 0)"/>
       <use xlink:href="#DejaVuSans-72" transform="translate(437.896484 0)"/>
       <use xlink:href="#DejaVuSans-75" transform="translate(479.009766 0)"/>
       <use xlink:href="#DejaVuSans-61" transform="translate(542.388672 0)"/>
       <use xlink:href="#DejaVuSans-6c" transform="translate(603.667969 0)"/>
       <use xlink:href="#DejaVuSans-20" transform="translate(631.451172 0)"/>
       <use xlink:href="#DejaVuSans-28" transform="translate(663.238281 0)"/>
       <use xlink:href="#DejaVuSans-37" transform="translate(702.251953 0)"/>
       <use xlink:href="#DejaVuSans-30" transform="translate(765.875 0)"/>
       <use xlink:href="#DejaVuSans-25" transform="translate(829.498047 0)"/>
       <use xlink:href="#DejaVuSans-20" transform="translate(924.517578 0)"/>
       <use xlink:href="#DejaVuSans-76" transform="translate(956.304688 0)"/>
       <use xlink:href="#DejaVuSans-61" transform="translate(1015.484375 0)"/>
       <use xlink:href="#DejaVuSans-75" transform="translate(1076.763672 0)"/>
       <use xlink:href="#DejaVuSans-6c" transform="translate(1140.142578 0)"/>
       <use xlink:href="#DejaVuSans-74" transform="translate(1167.925781 0)"/>
       <use xlink:href="#DejaVuSans-20" transform="translate(1207.134766 0)"/>
       <use xlink:href="#DejaVuSans-73" transform="translate(1238.921875 0)"/>
       <use xlink:href="#DejaVuSans-68" transform="translate(1291.021484 0)"/>
       <use xlink:href="#DejaVuSans-61" transform="translate(1354.400391 0)"/>
       <use xlink:href="#DejaVuSans-72" transform="translate(1415.679688 0)"/>
       <use xlink:href="#DejaVuSans-65" transform="translate(1454.542969 0)"/>
       <use xlink:href="#DejaVuSans-29" transform="translate(1516.066406 0)"/>
      </g>
     </g>
    </g>
    <g id="ytick_3">
     <g id="line2d_19">
      <g>
       <use xlink:href="#m17139de66a" x="185.255156" y="158.312769" style="fill: #736f6c; stroke: #736f6c; stroke-width: 0.8"/>
      </g>
     </g>
     <g id="text_12">
      <!-- Management fee (to Treasury) -->
      <g style="fill: #736f6c" transform="translate(11.655 162.491909) scale(0.11 -0.11)">
       <defs>
        <path id="DejaVuSans-4d" d="M 628 4666 
L 1569 4666 
L 2759 1491 
L 3956 4666 
L 4897 4666 
L 4897 0 
L 4281 0 
L 4281 4097 
L 3078 897 
L 2444 897 
L 1241 4097 
L 1241 0 
L 628 0 
L 628 4666 
z
" transform="scale(0.015625)"/>
        <path id="DejaVuSans-67" d="M 2906 1791 
Q 2906 2416 2648 2759 
Q 2391 3103 1925 3103 
Q 1463 3103 1205 2759 
Q 947 2416 947 1791 
Q 947 1169 1205 825 
Q 1463 481 1925 481 
Q 2391 481 2648 825 
Q 2906 1169 2906 1791 
z
M 3481 434 
Q 3481 -459 3084 -895 
Q 2688 -1331 1869 -1331 
Q 1566 -1331 1297 -1286 
Q 1028 -1241 775 -1147 
L 775 -588 
Q 1028 -725 1275 -790 
Q 1522 -856 1778 -856 
Q 2344 -856 2625 -561 
Q 2906 -266 2906 331 
L 2906 616 
Q 2728 306 2450 153 
Q 2172 0 1784 0 
Q 1141 0 747 490 
Q 353 981 353 1791 
Q 353 2603 747 3093 
Q 1141 3584 1784 3584 
Q 2172 3584 2450 3431 
Q 2728 3278 2906 2969 
L 2906 3500 
L 3481 3500 
L 3481 434 
z
" transform="scale(0.015625)"/>
        <path id="DejaVuSans-6d" d="M 3328 2828 
Q 3544 3216 3844 3400 
Q 4144 3584 4550 3584 
Q 5097 3584 5394 3201 
Q 5691 2819 5691 2113 
L 5691 0 
L 5113 0 
L 5113 2094 
Q 5113 2597 4934 2840 
Q 4756 3084 4391 3084 
Q 3944 3084 3684 2787 
Q 3425 2491 3425 1978 
L 3425 0 
L 2847 0 
L 2847 2094 
Q 2847 2600 2669 2842 
Q 2491 3084 2119 3084 
Q 1678 3084 1418 2786 
Q 1159 2488 1159 1978 
L 1159 0 
L 581 0 
L 581 3500 
L 1159 3500 
L 1159 2956 
Q 1356 3278 1631 3431 
Q 1906 3584 2284 3584 
Q 2666 3584 2933 3390 
Q 3200 3197 3328 2828 
z
" transform="scale(0.015625)"/>
       </defs>
       <use xlink:href="#DejaVuSans-4d"/>
       <use xlink:href="#DejaVuSans-61" transform="translate(86.279297 0)"/>
       <use xlink:href="#DejaVuSans-6e" transform="translate(147.558594 0)"/>
       <use xlink:href="#DejaVuSans-61" transform="translate(210.9375 0)"/>
       <use xlink:href="#DejaVuSans-67" transform="translate(272.216797 0)"/>
       <use xlink:href="#DejaVuSans-65" transform="translate(335.693359 0)"/>
       <use xlink:href="#DejaVuSans-6d" transform="translate(397.216797 0)"/>
       <use xlink:href="#DejaVuSans-65" transform="translate(494.628906 0)"/>
       <use xlink:href="#DejaVuSans-6e" transform="translate(556.152344 0)"/>
       <use xlink:href="#DejaVuSans-74" transform="translate(619.53125 0)"/>
       <use xlink:href="#DejaVuSans-20" transform="translate(658.740234 0)"/>
       <use xlink:href="#DejaVuSans-66" transform="translate(690.527344 0)"/>
       <use xlink:href="#DejaVuSans-65" transform="translate(725.732422 0)"/>
       <use xlink:href="#DejaVuSans-65" transform="translate(787.255859 0)"/>
       <use xlink:href="#DejaVuSans-20" transform="translate(848.779297 0)"/>
       <use xlink:href="#DejaVuSans-28" transform="translate(880.566406 0)"/>
       <use xlink:href="#DejaVuSans-74" transform="translate(919.580078 0)"/>
       <use xlink:href="#DejaVuSans-6f" transform="translate(958.789062 0)"/>
       <use xlink:href="#DejaVuSans-20" transform="translate(1019.970703 0)"/>
       <use xlink:href="#DejaVuSans-54" transform="translate(1051.757812 0)"/>
       <use xlink:href="#DejaVuSans-72" transform="translate(1098.091797 0)"/>
       <use xlink:href="#DejaVuSans-65" transform="translate(1136.955078 0)"/>
       <use xlink:href="#DejaVuSans-61" transform="translate(1198.478516 0)"/>
       <use xlink:href="#DejaVuSans-73" transform="translate(1259.757812 0)"/>
       <use xlink:href="#DejaVuSans-75" transform="translate(1311.857422 0)"/>
       <use xlink:href="#DejaVuSans-72" transform="translate(1375.236328 0)"/>
       <use xlink:href="#DejaVuSans-79" transform="translate(1416.349609 0)"/>
       <use xlink:href="#DejaVuSans-29" transform="translate(1475.529297 0)"/>
      </g>
     </g>
    </g>
    <g id="ytick_4">
     <g id="line2d_20">
      <g>
       <use xlink:href="#m17139de66a" x="185.255156" y="207.955687" style="fill: #736f6c; stroke: #736f6c; stroke-width: 0.8"/>
      </g>
     </g>
     <g id="text_13">
      <!-- Performance fee (to Treasury) -->
      <g style="fill: #736f6c" transform="translate(14.417031 212.134828) scale(0.11 -0.11)">
       <defs>
        <path id="DejaVuSans-50" d="M 1259 4147 
L 1259 2394 
L 2053 2394 
Q 2494 2394 2734 2622 
Q 2975 2850 2975 3272 
Q 2975 3691 2734 3919 
Q 2494 4147 2053 4147 
L 1259 4147 
z
M 628 4666 
L 2053 4666 
Q 2838 4666 3239 4311 
Q 3641 3956 3641 3272 
Q 3641 2581 3239 2228 
Q 2838 1875 2053 1875 
L 1259 1875 
L 1259 0 
L 628 0 
L 628 4666 
z
" transform="scale(0.015625)"/>
       </defs>
       <use xlink:href="#DejaVuSans-50"/>
       <use xlink:href="#DejaVuSans-65" transform="translate(56.677734 0)"/>
       <use xlink:href="#DejaVuSans-72" transform="translate(118.201172 0)"/>
       <use xlink:href="#DejaVuSans-66" transform="translate(159.314453 0)"/>
       <use xlink:href="#DejaVuSans-6f" transform="translate(194.519531 0)"/>
       <use xlink:href="#DejaVuSans-72" transform="translate(255.701172 0)"/>
       <use xlink:href="#DejaVuSans-6d" transform="translate(295.064453 0)"/>
       <use xlink:href="#DejaVuSans-61" transform="translate(392.476562 0)"/>
       <use xlink:href="#DejaVuSans-6e" transform="translate(453.755859 0)"/>
       <use xlink:href="#DejaVuSans-63" transform="translate(517.134766 0)"/>
       <use xlink:href="#DejaVuSans-65" transform="translate(572.115234 0)"/>
       <use xlink:href="#DejaVuSans-20" transform="translate(633.638672 0)"/>
       <use xlink:href="#DejaVuSans-66" transform="translate(665.425781 0)"/>
       <use xlink:href="#DejaVuSans-65" transform="translate(700.630859 0)"/>
       <use xlink:href="#DejaVuSans-65" transform="translate(762.154297 0)"/>
       <use xlink:href="#DejaVuSans-20" transform="translate(823.677734 0)"/>
       <use xlink:href="#DejaVuSans-28" transform="translate(855.464844 0)"/>
       <use xlink:href="#DejaVuSans-74" transform="translate(894.478516 0)"/>
       <use xlink:href="#DejaVuSans-6f" transform="translate(933.6875 0)"/>
       <use xlink:href="#DejaVuSans-20" transform="translate(994.869141 0)"/>
       <use xlink:href="#DejaVuSans-54" transform="translate(1026.65625 0)"/>
       <use xlink:href="#DejaVuSans-72" transform="translate(1072.990234 0)"/>
       <use xlink:href="#DejaVuSans-65" transform="translate(1111.853516 0)"/>
       <use xlink:href="#DejaVuSans-61" transform="translate(1173.376953 0)"/>
       <use xlink:href="#DejaVuSans-73" transform="translate(1234.65625 0)"/>
       <use xlink:href="#DejaVuSans-75" transform="translate(1286.755859 0)"/>
       <use xlink:href="#DejaVuSans-72" transform="translate(1350.134766 0)"/>
       <use xlink:href="#DejaVuSans-79" transform="translate(1391.248047 0)"/>
       <use xlink:href="#DejaVuSans-29" transform="translate(1450.427734 0)"/>
      </g>
     </g>
    </g>
    <g id="ytick_5">
     <g id="line2d_21">
      <g>
       <use xlink:href="#m17139de66a" x="185.255156" y="257.598606" style="fill: #736f6c; stroke: #736f6c; stroke-width: 0.8"/>
      </g>
     </g>
     <g id="text_14">
      <!-- OET allocation (to Treasury) -->
      <g style="fill: #736f6c" transform="translate(25.755625 261.777746) scale(0.11 -0.11)">
       <defs>
        <path id="DejaVuSans-4f" d="M 2522 4238 
Q 1834 4238 1429 3725 
Q 1025 3213 1025 2328 
Q 1025 1447 1429 934 
Q 1834 422 2522 422 
Q 3209 422 3611 934 
Q 4013 1447 4013 2328 
Q 4013 3213 3611 3725 
Q 3209 4238 2522 4238 
z
M 2522 4750 
Q 3503 4750 4090 4092 
Q 4678 3434 4678 2328 
Q 4678 1225 4090 567 
Q 3503 -91 2522 -91 
Q 1538 -91 948 565 
Q 359 1222 359 2328 
Q 359 3434 948 4092 
Q 1538 4750 2522 4750 
z
" transform="scale(0.015625)"/>
        <path id="DejaVuSans-45" d="M 628 4666 
L 3578 4666 
L 3578 4134 
L 1259 4134 
L 1259 2753 
L 3481 2753 
L 3481 2222 
L 1259 2222 
L 1259 531 
L 3634 531 
L 3634 0 
L 628 0 
L 628 4666 
z
" transform="scale(0.015625)"/>
       </defs>
       <use xlink:href="#DejaVuSans-4f"/>
       <use xlink:href="#DejaVuSans-45" transform="translate(78.710938 0)"/>
       <use xlink:href="#DejaVuSans-54" transform="translate(141.894531 0)"/>
       <use xlink:href="#DejaVuSans-20" transform="translate(202.978516 0)"/>
       <use xlink:href="#DejaVuSans-61" transform="translate(234.765625 0)"/>
       <use xlink:href="#DejaVuSans-6c" transform="translate(296.044922 0)"/>
       <use xlink:href="#DejaVuSans-6c" transform="translate(323.828125 0)"/>
       <use xlink:href="#DejaVuSans-6f" transform="translate(351.611328 0)"/>
       <use xlink:href="#DejaVuSans-63" transform="translate(412.792969 0)"/>
       <use xlink:href="#DejaVuSans-61" transform="translate(467.773438 0)"/>
       <use xlink:href="#DejaVuSans-74" transform="translate(529.052734 0)"/>
       <use xlink:href="#DejaVuSans-69" transform="translate(568.261719 0)"/>
       <use xlink:href="#DejaVuSans-6f" transform="translate(596.044922 0)"/>
       <use xlink:href="#DejaVuSans-6e" transform="translate(657.226562 0)"/>
       <use xlink:href="#DejaVuSans-20" transform="translate(720.605469 0)"/>
       <use xlink:href="#DejaVuSans-28" transform="translate(752.392578 0)"/>
       <use xlink:href="#DejaVuSans-74" transform="translate(791.40625 0)"/>
       <use xlink:href="#DejaVuSans-6f" transform="translate(830.615234 0)"/>
       <use xlink:href="#DejaVuSans-20" transform="translate(891.796875 0)"/>
       <use xlink:href="#DejaVuSans-54" transform="translate(923.583984 0)"/>
       <use xlink:href="#DejaVuSans-72" transform="translate(969.917969 0)"/>
       <use xlink:href="#DejaVuSans-65" transform="translate(1008.78125 0)"/>
       <use xlink:href="#DejaVuSans-61" transform="translate(1070.304688 0)"/>
       <use xlink:href="#DejaVuSans-73" transform="translate(1131.583984 0)"/>
       <use xlink:href="#DejaVuSans-75" transform="translate(1183.683594 0)"/>
       <use xlink:href="#DejaVuSans-72" transform="translate(1247.0625 0)"/>
       <use xlink:href="#DejaVuSans-79" transform="translate(1288.175781 0)"/>
       <use xlink:href="#DejaVuSans-29" transform="translate(1347.355469 0)"/>
      </g>
     </g>
    </g>
   </g>
   <g id="patch_3">
    <path d="M 185.255156 42.644769 
L 688.36991 42.644769 
L 688.36991 75.409095 
L 185.255156 75.409095 
z
" clip-path="url(#p0e2f6751b4)" style="fill: #2f6b3a; stroke: #ffffff; stroke-width: 1.5; stroke-linejoin: miter"/>
   </g>
   <g id="patch_4">
    <path d="M 185.255156 92.287687 
L 478.738763 92.287687 
L 478.738763 125.052013 
L 185.255156 125.052013 
z
" clip-path="url(#p0e2f6751b4)" style="fill: #b9870a; stroke: #ffffff; stroke-width: 1.5; stroke-linejoin: miter"/>
   </g>
   <g id="patch_5">
    <path d="M 185.255156 141.930606 
L 269.107615 141.930606 
L 269.107615 174.694932 
L 185.255156 174.694932 
z
" clip-path="url(#p0e2f6751b4)" style="fill: #b1334b; stroke: #ffffff; stroke-width: 1.5; stroke-linejoin: miter"/>
   </g>
   <g id="patch_6">
    <path d="M 185.255156 191.573524 
L 285.878107 191.573524 
L 285.878107 224.33785 
L 185.255156 224.33785 
z
" clip-path="url(#p0e2f6751b4)" style="fill: #b1334b; stroke: #ffffff; stroke-width: 1.5; stroke-linejoin: miter"/>
   </g>
   <g id="patch_7">
    <path d="M 185.255156 241.216443 
L 191.963353 241.216443 
L 191.963353 273.980769 
L 185.255156 273.980769 
z
" clip-path="url(#p0e2f6751b4)" style="fill: #b1334b; stroke: #ffffff; stroke-width: 1.5; stroke-linejoin: miter"/>
   </g>
   <g id="patch_8">
    <path d="M 185.255156 285.547569 
L 185.255156 31.077969 
" style="fill: none; stroke: #3837352e; stroke-width: 0.8; stroke-linejoin: miter; stroke-linecap: square"/>
   </g>
   <g id="patch_9">
    <path d="M 185.255156 285.547569 
L 799.055156 285.547569 
" style="fill: none; stroke: #3837352e; stroke-width: 0.8; stroke-linejoin: miter; stroke-linecap: square"/>
   </g>
   <g id="text_15">
    <!-- 600 bps -->
    <g style="fill: #262524" transform="translate(697.425976 62.062244) scale(0.11 -0.11)">
     <defs>
      <path id="DejaVuSans-Bold-36" d="M 2316 2303 
Q 2000 2303 1842 2098 
Q 1684 1894 1684 1484 
Q 1684 1075 1842 870 
Q 2000 666 2316 666 
Q 2634 666 2792 870 
Q 2950 1075 2950 1484 
Q 2950 1894 2792 2098 
Q 2634 2303 2316 2303 
z
M 3803 4544 
L 3803 3681 
Q 3506 3822 3243 3889 
Q 2981 3956 2731 3956 
Q 2194 3956 1894 3657 
Q 1594 3359 1544 2772 
Q 1750 2925 1990 3001 
Q 2231 3078 2516 3078 
Q 3231 3078 3670 2659 
Q 4109 2241 4109 1563 
Q 4109 813 3618 361 
Q 3128 -91 2303 -91 
Q 1394 -91 895 523 
Q 397 1138 397 2266 
Q 397 3422 980 4083 
Q 1563 4744 2578 4744 
Q 2900 4744 3203 4694 
Q 3506 4644 3803 4544 
z
" transform="scale(0.015625)"/>
      <path id="DejaVuSans-Bold-30" d="M 2944 2338 
Q 2944 3213 2780 3570 
Q 2616 3928 2228 3928 
Q 1841 3928 1675 3570 
Q 1509 3213 1509 2338 
Q 1509 1453 1675 1090 
Q 1841 728 2228 728 
Q 2613 728 2778 1090 
Q 2944 1453 2944 2338 
z
M 4147 2328 
Q 4147 1169 3647 539 
Q 3147 -91 2228 -91 
Q 1306 -91 806 539 
Q 306 1169 306 2328 
Q 306 3491 806 4120 
Q 1306 4750 2228 4750 
Q 3147 4750 3647 4120 
Q 4147 3491 4147 2328 
z
" transform="scale(0.015625)"/>
      <path id="DejaVuSans-Bold-20" transform="scale(0.015625)"/>
      <path id="DejaVuSans-Bold-62" d="M 2400 722 
Q 2759 722 2948 984 
Q 3138 1247 3138 1747 
Q 3138 2247 2948 2509 
Q 2759 2772 2400 2772 
Q 2041 2772 1848 2508 
Q 1656 2244 1656 1747 
Q 1656 1250 1848 986 
Q 2041 722 2400 722 
z
M 1656 2988 
Q 1888 3294 2169 3439 
Q 2450 3584 2816 3584 
Q 3463 3584 3878 3070 
Q 4294 2556 4294 1747 
Q 4294 938 3878 423 
Q 3463 -91 2816 -91 
Q 2450 -91 2169 54 
Q 1888 200 1656 506 
L 1656 0 
L 538 0 
L 538 4863 
L 1656 4863 
L 1656 2988 
z
" transform="scale(0.015625)"/>
      <path id="DejaVuSans-Bold-70" d="M 1656 506 
L 1656 -1331 
L 538 -1331 
L 538 3500 
L 1656 3500 
L 1656 2988 
Q 1888 3294 2169 3439 
Q 2450 3584 2816 3584 
Q 3463 3584 3878 3070 
Q 4294 2556 4294 1747 
Q 4294 938 3878 423 
Q 3463 -91 2816 -91 
Q 2450 -91 2169 54 
Q 1888 200 1656 506 
z
M 2400 2772 
Q 2041 2772 1848 2508 
Q 1656 2244 1656 1747 
Q 1656 1250 1848 986 
Q 2041 722 2400 722 
Q 2759 722 2948 984 
Q 3138 1247 3138 1747 
Q 3138 2247 2948 2509 
Q 2759 2772 2400 2772 
z
" transform="scale(0.015625)"/>
      <path id="DejaVuSans-Bold-73" d="M 3272 3391 
L 3272 2541 
Q 2913 2691 2578 2766 
Q 2244 2841 1947 2841 
Q 1628 2841 1473 2761 
Q 1319 2681 1319 2516 
Q 1319 2381 1436 2309 
Q 1553 2238 1856 2203 
L 2053 2175 
Q 2913 2066 3209 1816 
Q 3506 1566 3506 1031 
Q 3506 472 3093 190 
Q 2681 -91 1863 -91 
Q 1516 -91 1145 -36 
Q 775 19 384 128 
L 384 978 
Q 719 816 1070 734 
Q 1422 653 1784 653 
Q 2113 653 2278 743 
Q 2444 834 2444 1013 
Q 2444 1163 2330 1236 
Q 2216 1309 1875 1350 
L 1678 1375 
Q 931 1469 631 1722 
Q 331 1975 331 2491 
Q 331 3047 712 3315 
Q 1094 3584 1881 3584 
Q 2191 3584 2531 3537 
Q 2872 3491 3272 3391 
z
" transform="scale(0.015625)"/>
     </defs>
     <use xlink:href="#DejaVuSans-Bold-36"/>
     <use xlink:href="#DejaVuSans-Bold-30" transform="translate(69.580078 0)"/>
     <use xlink:href="#DejaVuSans-Bold-30" transform="translate(139.160156 0)"/>
     <use xlink:href="#DejaVuSans-Bold-20" transform="translate(208.740234 0)"/>
     <use xlink:href="#DejaVuSans-Bold-62" transform="translate(243.554688 0)"/>
     <use xlink:href="#DejaVuSans-Bold-70" transform="translate(315.136719 0)"/>
     <use xlink:href="#DejaVuSans-Bold-73" transform="translate(386.71875 0)"/>
    </g>
   </g>
   <g id="text_16">
    <!-- 350 bps -->
    <g style="fill: #262524" transform="translate(487.794828 111.705163) scale(0.11 -0.11)">
     <defs>
      <path id="DejaVuSans-Bold-33" d="M 2981 2516 
Q 3453 2394 3698 2092 
Q 3944 1791 3944 1325 
Q 3944 631 3412 270 
Q 2881 -91 1863 -91 
Q 1503 -91 1142 -33 
Q 781 25 428 141 
L 428 1069 
Q 766 900 1098 814 
Q 1431 728 1753 728 
Q 2231 728 2486 893 
Q 2741 1059 2741 1369 
Q 2741 1688 2480 1852 
Q 2219 2016 1709 2016 
L 1228 2016 
L 1228 2791 
L 1734 2791 
Q 2188 2791 2409 2933 
Q 2631 3075 2631 3366 
Q 2631 3634 2415 3781 
Q 2200 3928 1806 3928 
Q 1516 3928 1219 3862 
Q 922 3797 628 3669 
L 628 4550 
Q 984 4650 1334 4700 
Q 1684 4750 2022 4750 
Q 2931 4750 3382 4451 
Q 3834 4153 3834 3553 
Q 3834 3144 3618 2883 
Q 3403 2622 2981 2516 
z
" transform="scale(0.015625)"/>
      <path id="DejaVuSans-Bold-35" d="M 678 4666 
L 3669 4666 
L 3669 3781 
L 1638 3781 
L 1638 3059 
Q 1775 3097 1914 3117 
Q 2053 3138 2203 3138 
Q 3056 3138 3531 2711 
Q 4006 2284 4006 1522 
Q 4006 766 3489 337 
Q 2972 -91 2053 -91 
Q 1656 -91 1267 -14 
Q 878 63 494 219 
L 494 1166 
Q 875 947 1217 837 
Q 1559 728 1863 728 
Q 2300 728 2551 942 
Q 2803 1156 2803 1522 
Q 2803 1891 2551 2103 
Q 2300 2316 1863 2316 
Q 1603 2316 1309 2248 
Q 1016 2181 678 2041 
L 678 4666 
z
" transform="scale(0.015625)"/>
     </defs>
     <use xlink:href="#DejaVuSans-Bold-33"/>
     <use xlink:href="#DejaVuSans-Bold-35" transform="translate(69.580078 0)"/>
     <use xlink:href="#DejaVuSans-Bold-30" transform="translate(139.160156 0)"/>
     <use xlink:href="#DejaVuSans-Bold-20" transform="translate(208.740234 0)"/>
     <use xlink:href="#DejaVuSans-Bold-62" transform="translate(243.554688 0)"/>
     <use xlink:href="#DejaVuSans-Bold-70" transform="translate(315.136719 0)"/>
     <use xlink:href="#DejaVuSans-Bold-73" transform="translate(386.71875 0)"/>
    </g>
   </g>
   <g id="text_17">
    <!-- 100 bps -->
    <g style="fill: #262524" transform="translate(278.163681 161.348081) scale(0.11 -0.11)">
     <defs>
      <path id="DejaVuSans-Bold-31" d="M 750 831 
L 1813 831 
L 1813 3847 
L 722 3622 
L 722 4441 
L 1806 4666 
L 2950 4666 
L 2950 831 
L 4013 831 
L 4013 0 
L 750 0 
L 750 831 
z
" transform="scale(0.015625)"/>
     </defs>
     <use xlink:href="#DejaVuSans-Bold-31"/>
     <use xlink:href="#DejaVuSans-Bold-30" transform="translate(69.580078 0)"/>
     <use xlink:href="#DejaVuSans-Bold-30" transform="translate(139.160156 0)"/>
     <use xlink:href="#DejaVuSans-Bold-20" transform="translate(208.740234 0)"/>
     <use xlink:href="#DejaVuSans-Bold-62" transform="translate(243.554688 0)"/>
     <use xlink:href="#DejaVuSans-Bold-70" transform="translate(315.136719 0)"/>
     <use xlink:href="#DejaVuSans-Bold-73" transform="translate(386.71875 0)"/>
    </g>
   </g>
   <g id="text_18">
    <!-- 120 bps -->
    <g style="fill: #262524" transform="translate(294.934173 210.991) scale(0.11 -0.11)">
     <defs>
      <path id="DejaVuSans-Bold-32" d="M 1844 884 
L 3897 884 
L 3897 0 
L 506 0 
L 506 884 
L 2209 2388 
Q 2438 2594 2547 2791 
Q 2656 2988 2656 3200 
Q 2656 3528 2436 3728 
Q 2216 3928 1850 3928 
Q 1569 3928 1234 3808 
Q 900 3688 519 3450 
L 519 4475 
Q 925 4609 1322 4679 
Q 1719 4750 2100 4750 
Q 2938 4750 3402 4381 
Q 3866 4013 3866 3353 
Q 3866 2972 3669 2642 
Q 3472 2313 2841 1759 
L 1844 884 
z
" transform="scale(0.015625)"/>
     </defs>
     <use xlink:href="#DejaVuSans-Bold-31"/>
     <use xlink:href="#DejaVuSans-Bold-32" transform="translate(69.580078 0)"/>
     <use xlink:href="#DejaVuSans-Bold-30" transform="translate(139.160156 0)"/>
     <use xlink:href="#DejaVuSans-Bold-20" transform="translate(208.740234 0)"/>
     <use xlink:href="#DejaVuSans-Bold-62" transform="translate(243.554688 0)"/>
     <use xlink:href="#DejaVuSans-Bold-70" transform="translate(315.136719 0)"/>
     <use xlink:href="#DejaVuSans-Bold-73" transform="translate(386.71875 0)"/>
    </g>
   </g>
   <g id="text_19">
    <!-- 8 bps -->
    <g style="fill: #262524" transform="translate(201.019419 260.633918) scale(0.11 -0.11)">
     <defs>
      <path id="DejaVuSans-Bold-38" d="M 2228 2088 
Q 1891 2088 1709 1903 
Q 1528 1719 1528 1375 
Q 1528 1031 1709 848 
Q 1891 666 2228 666 
Q 2563 666 2741 848 
Q 2919 1031 2919 1375 
Q 2919 1722 2741 1905 
Q 2563 2088 2228 2088 
z
M 1350 2484 
Q 925 2613 709 2878 
Q 494 3144 494 3541 
Q 494 4131 934 4440 
Q 1375 4750 2228 4750 
Q 3075 4750 3515 4442 
Q 3956 4134 3956 3541 
Q 3956 3144 3739 2878 
Q 3522 2613 3097 2484 
Q 3572 2353 3814 2058 
Q 4056 1763 4056 1313 
Q 4056 619 3595 264 
Q 3134 -91 2228 -91 
Q 1319 -91 855 264 
Q 391 619 391 1313 
Q 391 1763 633 2058 
Q 875 2353 1350 2484 
z
M 1631 3419 
Q 1631 3141 1786 2991 
Q 1941 2841 2228 2841 
Q 2509 2841 2662 2991 
Q 2816 3141 2816 3419 
Q 2816 3697 2662 3845 
Q 2509 3994 2228 3994 
Q 1941 3994 1786 3844 
Q 1631 3694 1631 3419 
z
" transform="scale(0.015625)"/>
     </defs>
     <use xlink:href="#DejaVuSans-Bold-38"/>
     <use xlink:href="#DejaVuSans-Bold-20" transform="translate(69.580078 0)"/>
     <use xlink:href="#DejaVuSans-Bold-62" transform="translate(104.394531 0)"/>
     <use xlink:href="#DejaVuSans-Bold-70" transform="translate(175.976562 0)"/>
     <use xlink:href="#DejaVuSans-Bold-73" transform="translate(247.558594 0)"/>
    </g>
   </g>
   <g id="text_20">
    <!-- Yield attribution — illustrative representative loan -->
    <g style="fill: #262524" transform="translate(185.255156 17.077969) scale(0.13 -0.13)">
     <defs>
      <path id="DejaVuSans-Bold-59" d="M -63 4666 
L 1253 4666 
L 2316 3003 
L 3378 4666 
L 4697 4666 
L 2919 1966 
L 2919 0 
L 1716 0 
L 1716 1966 
L -63 4666 
z
" transform="scale(0.015625)"/>
      <path id="DejaVuSans-Bold-69" d="M 538 3500 
L 1656 3500 
L 1656 0 
L 538 0 
L 538 3500 
z
M 538 4863 
L 1656 4863 
L 1656 3950 
L 538 3950 
L 538 4863 
z
" transform="scale(0.015625)"/>
      <path id="DejaVuSans-Bold-65" d="M 4031 1759 
L 4031 1441 
L 1416 1441 
Q 1456 1047 1700 850 
Q 1944 653 2381 653 
Q 2734 653 3104 758 
Q 3475 863 3866 1075 
L 3866 213 
Q 3469 63 3072 -14 
Q 2675 -91 2278 -91 
Q 1328 -91 801 392 
Q 275 875 275 1747 
Q 275 2603 792 3093 
Q 1309 3584 2216 3584 
Q 3041 3584 3536 3087 
Q 4031 2591 4031 1759 
z
M 2881 2131 
Q 2881 2450 2695 2645 
Q 2509 2841 2209 2841 
Q 1884 2841 1681 2658 
Q 1478 2475 1428 2131 
L 2881 2131 
z
" transform="scale(0.015625)"/>
      <path id="DejaVuSans-Bold-6c" d="M 538 4863 
L 1656 4863 
L 1656 0 
L 538 0 
L 538 4863 
z
" transform="scale(0.015625)"/>
      <path id="DejaVuSans-Bold-64" d="M 2919 2988 
L 2919 4863 
L 4044 4863 
L 4044 0 
L 2919 0 
L 2919 506 
Q 2688 197 2409 53 
Q 2131 -91 1766 -91 
Q 1119 -91 703 423 
Q 288 938 288 1747 
Q 288 2556 703 3070 
Q 1119 3584 1766 3584 
Q 2128 3584 2408 3439 
Q 2688 3294 2919 2988 
z
M 2181 722 
Q 2541 722 2730 984 
Q 2919 1247 2919 1747 
Q 2919 2247 2730 2509 
Q 2541 2772 2181 2772 
Q 1825 2772 1636 2509 
Q 1447 2247 1447 1747 
Q 1447 1247 1636 984 
Q 1825 722 2181 722 
z
" transform="scale(0.015625)"/>
      <path id="DejaVuSans-Bold-61" d="M 2106 1575 
Q 1756 1575 1579 1456 
Q 1403 1338 1403 1106 
Q 1403 894 1545 773 
Q 1688 653 1941 653 
Q 2256 653 2472 879 
Q 2688 1106 2688 1447 
L 2688 1575 
L 2106 1575 
z
M 3816 1997 
L 3816 0 
L 2688 0 
L 2688 519 
Q 2463 200 2181 54 
Q 1900 -91 1497 -91 
Q 953 -91 614 226 
Q 275 544 275 1050 
Q 275 1666 698 1953 
Q 1122 2241 2028 2241 
L 2688 2241 
L 2688 2328 
Q 2688 2594 2478 2717 
Q 2269 2841 1825 2841 
Q 1466 2841 1156 2769 
Q 847 2697 581 2553 
L 581 3406 
Q 941 3494 1303 3539 
Q 1666 3584 2028 3584 
Q 2975 3584 3395 3211 
Q 3816 2838 3816 1997 
z
" transform="scale(0.015625)"/>
      <path id="DejaVuSans-Bold-74" d="M 1759 4494 
L 1759 3500 
L 2913 3500 
L 2913 2700 
L 1759 2700 
L 1759 1216 
Q 1759 972 1856 886 
Q 1953 800 2241 800 
L 2816 800 
L 2816 0 
L 1856 0 
Q 1194 0 917 276 
Q 641 553 641 1216 
L 641 2700 
L 84 2700 
L 84 3500 
L 641 3500 
L 641 4494 
L 1759 4494 
z
" transform="scale(0.015625)"/>
      <path id="DejaVuSans-Bold-72" d="M 3138 2547 
Q 2991 2616 2845 2648 
Q 2700 2681 2553 2681 
Q 2122 2681 1889 2404 
Q 1656 2128 1656 1613 
L 1656 0 
L 538 0 
L 538 3500 
L 1656 3500 
L 1656 2925 
Q 1872 3269 2151 3426 
Q 2431 3584 2822 3584 
Q 2878 3584 2943 3579 
Q 3009 3575 3134 3559 
L 3138 2547 
z
" transform="scale(0.015625)"/>
      <path id="DejaVuSans-Bold-75" d="M 500 1363 
L 500 3500 
L 1625 3500 
L 1625 3150 
Q 1625 2866 1622 2436 
Q 1619 2006 1619 1863 
Q 1619 1441 1641 1255 
Q 1663 1069 1716 984 
Q 1784 875 1895 815 
Q 2006 756 2150 756 
Q 2500 756 2700 1025 
Q 2900 1294 2900 1772 
L 2900 3500 
L 4019 3500 
L 4019 0 
L 2900 0 
L 2900 506 
Q 2647 200 2364 54 
Q 2081 -91 1741 -91 
Q 1134 -91 817 281 
Q 500 653 500 1363 
z
" transform="scale(0.015625)"/>
      <path id="DejaVuSans-Bold-6f" d="M 2203 2784 
Q 1831 2784 1636 2517 
Q 1441 2250 1441 1747 
Q 1441 1244 1636 976 
Q 1831 709 2203 709 
Q 2569 709 2762 976 
Q 2956 1244 2956 1747 
Q 2956 2250 2762 2517 
Q 2569 2784 2203 2784 
z
M 2203 3584 
Q 3106 3584 3614 3096 
Q 4122 2609 4122 1747 
Q 4122 884 3614 396 
Q 3106 -91 2203 -91 
Q 1297 -91 786 396 
Q 275 884 275 1747 
Q 275 2609 786 3096 
Q 1297 3584 2203 3584 
z
" transform="scale(0.015625)"/>
      <path id="DejaVuSans-Bold-6e" d="M 4056 2131 
L 4056 0 
L 2931 0 
L 2931 347 
L 2931 1631 
Q 2931 2084 2911 2256 
Q 2891 2428 2841 2509 
Q 2775 2619 2662 2680 
Q 2550 2741 2406 2741 
Q 2056 2741 1856 2470 
Q 1656 2200 1656 1722 
L 1656 0 
L 538 0 
L 538 3500 
L 1656 3500 
L 1656 2988 
Q 1909 3294 2193 3439 
Q 2478 3584 2822 3584 
Q 3428 3584 3742 3212 
Q 4056 2841 4056 2131 
z
" transform="scale(0.015625)"/>
      <path id="DejaVuSans-Bold-2014" d="M 344 2156 
L 6056 2156 
L 6056 1350 
L 344 1350 
L 344 2156 
z
" transform="scale(0.015625)"/>
      <path id="DejaVuSans-Bold-76" d="M 97 3500 
L 1216 3500 
L 2088 1081 
L 2956 3500 
L 4078 3500 
L 2700 0 
L 1472 0 
L 97 3500 
z
" transform="scale(0.015625)"/>
     </defs>
     <use xlink:href="#DejaVuSans-Bold-59"/>
     <use xlink:href="#DejaVuSans-Bold-69" transform="translate(72.412109 0)"/>
     <use xlink:href="#DejaVuSans-Bold-65" transform="translate(106.689453 0)"/>
     <use xlink:href="#DejaVuSans-Bold-6c" transform="translate(174.511719 0)"/>
     <use xlink:href="#DejaVuSans-Bold-64" transform="translate(208.789062 0)"/>
     <use xlink:href="#DejaVuSans-Bold-20" transform="translate(280.371094 0)"/>
     <use xlink:href="#DejaVuSans-Bold-61" transform="translate(315.185547 0)"/>
     <use xlink:href="#DejaVuSans-Bold-74" transform="translate(382.666016 0)"/>
     <use xlink:href="#DejaVuSans-Bold-74" transform="translate(430.46875 0)"/>
     <use xlink:href="#DejaVuSans-Bold-72" transform="translate(478.271484 0)"/>
     <use xlink:href="#DejaVuSans-Bold-69" transform="translate(527.587891 0)"/>
     <use xlink:href="#DejaVuSans-Bold-62" transform="translate(561.865234 0)"/>
     <use xlink:href="#DejaVuSans-Bold-75" transform="translate(633.447266 0)"/>
     <use xlink:href="#DejaVuSans-Bold-74" transform="translate(704.638672 0)"/>
     <use xlink:href="#DejaVuSans-Bold-69" transform="translate(752.441406 0)"/>
     <use xlink:href="#DejaVuSans-Bold-6f" transform="translate(786.71875 0)"/>
     <use xlink:href="#DejaVuSans-Bold-6e" transform="translate(855.419922 0)"/>
     <use xlink:href="#DejaVuSans-Bold-20" transform="translate(926.611328 0)"/>
     <use xlink:href="#DejaVuSans-Bold-2014" transform="translate(961.425781 0)"/>
     <use xlink:href="#DejaVuSans-Bold-20" transform="translate(1061.425781 0)"/>
     <use xlink:href="#DejaVuSans-Bold-69" transform="translate(1096.240234 0)"/>
     <use xlink:href="#DejaVuSans-Bold-6c" transform="translate(1130.517578 0)"/>
     <use xlink:href="#DejaVuSans-Bold-6c" transform="translate(1164.794922 0)"/>
     <use xlink:href="#DejaVuSans-Bold-75" transform="translate(1199.072266 0)"/>
     <use xlink:href="#DejaVuSans-Bold-73" transform="translate(1270.263672 0)"/>
     <use xlink:href="#DejaVuSans-Bold-74" transform="translate(1329.785156 0)"/>
     <use xlink:href="#DejaVuSans-Bold-72" transform="translate(1377.587891 0)"/>
     <use xlink:href="#DejaVuSans-Bold-61" transform="translate(1426.904297 0)"/>
     <use xlink:href="#DejaVuSans-Bold-74" transform="translate(1494.384766 0)"/>
     <use xlink:href="#DejaVuSans-Bold-69" transform="translate(1542.1875 0)"/>
     <use xlink:href="#DejaVuSans-Bold-76" transform="translate(1576.464844 0)"/>
     <use xlink:href="#DejaVuSans-Bold-65" transform="translate(1641.650391 0)"/>
     <use xlink:href="#DejaVuSans-Bold-20" transform="translate(1709.472656 0)"/>
     <use xlink:href="#DejaVuSans-Bold-72" transform="translate(1744.287109 0)"/>
     <use xlink:href="#DejaVuSans-Bold-65" transform="translate(1793.603516 0)"/>
     <use xlink:href="#DejaVuSans-Bold-70" transform="translate(1861.425781 0)"/>
     <use xlink:href="#DejaVuSans-Bold-72" transform="translate(1933.007812 0)"/>
     <use xlink:href="#DejaVuSans-Bold-65" transform="translate(1982.324219 0)"/>
     <use xlink:href="#DejaVuSans-Bold-73" transform="translate(2050.146484 0)"/>
     <use xlink:href="#DejaVuSans-Bold-65" transform="translate(2109.667969 0)"/>
     <use xlink:href="#DejaVuSans-Bold-6e" transform="translate(2177.490234 0)"/>
     <use xlink:href="#DejaVuSans-Bold-74" transform="translate(2248.681641 0)"/>
     <use xlink:href="#DejaVuSans-Bold-61" transform="translate(2296.484375 0)"/>
     <use xlink:href="#DejaVuSans-Bold-74" transform="translate(2363.964844 0)"/>
     <use xlink:href="#DejaVuSans-Bold-69" transform="translate(2411.767578 0)"/>
     <use xlink:href="#DejaVuSans-Bold-76" transform="translate(2446.044922 0)"/>
     <use xlink:href="#DejaVuSans-Bold-65" transform="translate(2511.230469 0)"/>
     <use xlink:href="#DejaVuSans-Bold-20" transform="translate(2579.052734 0)"/>
     <use xlink:href="#DejaVuSans-Bold-6c" transform="translate(2613.867188 0)"/>
     <use xlink:href="#DejaVuSans-Bold-6f" transform="translate(2648.144531 0)"/>
     <use xlink:href="#DejaVuSans-Bold-61" transform="translate(2716.845703 0)"/>
     <use xlink:href="#DejaVuSans-Bold-6e" transform="translate(2784.326172 0)"/>
    </g>
   </g>
  </g>
  <g id="text_21">
   <!-- Illustrative attribution for a single representative senior-tranche loan and the T-bill engine. Not live returns. -->
   <g style="fill: #736f6c" transform="translate(240.950391 331.651137) scale(0.09 -0.09)">
    <defs>
     <path id="DejaVuSans-49" d="M 628 4666 
L 1259 4666 
L 1259 0 
L 628 0 
L 628 4666 
z
" transform="scale(0.015625)"/>
     <path id="DejaVuSans-64" d="M 2906 2969 
L 2906 4863 
L 3481 4863 
L 3481 0 
L 2906 0 
L 2906 525 
Q 2725 213 2448 61 
Q 2172 -91 1784 -91 
Q 1150 -91 751 415 
Q 353 922 353 1747 
Q 353 2572 751 3078 
Q 1150 3584 1784 3584 
Q 2172 3584 2448 3432 
Q 2725 3281 2906 2969 
z
M 947 1747 
Q 947 1113 1208 752 
Q 1469 391 1925 391 
Q 2381 391 2643 752 
Q 2906 1113 2906 1747 
Q 2906 2381 2643 2742 
Q 2381 3103 1925 3103 
Q 1469 3103 1208 2742 
Q 947 2381 947 1747 
z
" transform="scale(0.015625)"/>
     <path id="DejaVuSans-2e" d="M 684 794 
L 1344 794 
L 1344 0 
L 684 0 
L 684 794 
z
" transform="scale(0.015625)"/>
     <path id="DejaVuSans-4e" d="M 628 4666 
L 1478 4666 
L 3547 763 
L 3547 4666 
L 4159 4666 
L 4159 0 
L 3309 0 
L 1241 3903 
L 1241 0 
L 628 0 
L 628 4666 
z
" transform="scale(0.015625)"/>
    </defs>
    <use xlink:href="#DejaVuSans-49"/>
    <use xlink:href="#DejaVuSans-6c" transform="translate(29.492188 0)"/>
    <use xlink:href="#DejaVuSans-6c" transform="translate(57.275391 0)"/>
    <use xlink:href="#DejaVuSans-75" transform="translate(85.058594 0)"/>
    <use xlink:href="#DejaVuSans-73" transform="translate(148.4375 0)"/>
    <use xlink:href="#DejaVuSans-74" transform="translate(200.537109 0)"/>
    <use xlink:href="#DejaVuSans-72" transform="translate(239.746094 0)"/>
    <use xlink:href="#DejaVuSans-61" transform="translate(280.859375 0)"/>
    <use xlink:href="#DejaVuSans-74" transform="translate(342.138672 0)"/>
    <use xlink:href="#DejaVuSans-69" transform="translate(381.347656 0)"/>
    <use xlink:href="#DejaVuSans-76" transform="translate(409.130859 0)"/>
    <use xlink:href="#DejaVuSans-65" transform="translate(468.310547 0)"/>
    <use xlink:href="#DejaVuSans-20" transform="translate(529.833984 0)"/>
    <use xlink:href="#DejaVuSans-61" transform="translate(561.621094 0)"/>
    <use xlink:href="#DejaVuSans-74" transform="translate(622.900391 0)"/>
    <use xlink:href="#DejaVuSans-74" transform="translate(662.109375 0)"/>
    <use xlink:href="#DejaVuSans-72" transform="translate(701.318359 0)"/>
    <use xlink:href="#DejaVuSans-69" transform="translate(742.431641 0)"/>
    <use xlink:href="#DejaVuSans-62" transform="translate(770.214844 0)"/>
    <use xlink:href="#DejaVuSans-75" transform="translate(833.691406 0)"/>
    <use xlink:href="#DejaVuSans-74" transform="translate(897.070312 0)"/>
    <use xlink:href="#DejaVuSans-69" transform="translate(936.279297 0)"/>
    <use xlink:href="#DejaVuSans-6f" transform="translate(964.0625 0)"/>
    <use xlink:href="#DejaVuSans-6e" transform="translate(1025.244141 0)"/>
    <use xlink:href="#DejaVuSans-20" transform="translate(1088.623047 0)"/>
    <use xlink:href="#DejaVuSans-66" transform="translate(1120.410156 0)"/>
    <use xlink:href="#DejaVuSans-6f" transform="translate(1155.615234 0)"/>
    <use xlink:href="#DejaVuSans-72" transform="translate(1216.796875 0)"/>
    <use xlink:href="#DejaVuSans-20" transform="translate(1257.910156 0)"/>
    <use xlink:href="#DejaVuSans-61" transform="translate(1289.697266 0)"/>
    <use xlink:href="#DejaVuSans-20" transform="translate(1350.976562 0)"/>
    <use xlink:href="#DejaVuSans-73" transform="translate(1382.763672 0)"/>
    <use xlink:href="#DejaVuSans-69" transform="translate(1434.863281 0)"/>
    <use xlink:href="#DejaVuSans-6e" transform="translate(1462.646484 0)"/>
    <use xlink:href="#DejaVuSans-67" transform="translate(1526.025391 0)"/>
    <use xlink:href="#DejaVuSans-6c" transform="translate(1589.501953 0)"/>
    <use xlink:href="#DejaVuSans-65" transform="translate(1617.285156 0)"/>
    <use xlink:href="#DejaVuSans-20" transform="translate(1678.808594 0)"/>
    <use xlink:href="#DejaVuSans-72" transform="translate(1710.595703 0)"/>
    <use xlink:href="#DejaVuSans-65" transform="translate(1749.458984 0)"/>
    <use xlink:href="#DejaVuSans-70" transform="translate(1810.982422 0)"/>
    <use xlink:href="#DejaVuSans-72" transform="translate(1874.458984 0)"/>
    <use xlink:href="#DejaVuSans-65" transform="translate(1913.322266 0)"/>
    <use xlink:href="#DejaVuSans-73" transform="translate(1974.845703 0)"/>
    <use xlink:href="#DejaVuSans-65" transform="translate(2026.945312 0)"/>
    <use xlink:href="#DejaVuSans-6e" transform="translate(2088.46875 0)"/>
    <use xlink:href="#DejaVuSans-74" transform="translate(2151.847656 0)"/>
    <use xlink:href="#DejaVuSans-61" transform="translate(2191.056641 0)"/>
    <use xlink:href="#DejaVuSans-74" transform="translate(2252.335938 0)"/>
    <use xlink:href="#DejaVuSans-69" transform="translate(2291.544922 0)"/>
    <use xlink:href="#DejaVuSans-76" transform="translate(2319.328125 0)"/>
    <use xlink:href="#DejaVuSans-65" transform="translate(2378.507812 0)"/>
    <use xlink:href="#DejaVuSans-20" transform="translate(2440.03125 0)"/>
    <use xlink:href="#DejaVuSans-73" transform="translate(2471.818359 0)"/>
    <use xlink:href="#DejaVuSans-65" transform="translate(2523.917969 0)"/>
    <use xlink:href="#DejaVuSans-6e" transform="translate(2585.441406 0)"/>
    <use xlink:href="#DejaVuSans-69" transform="translate(2648.820312 0)"/>
    <use xlink:href="#DejaVuSans-6f" transform="translate(2676.603516 0)"/>
    <use xlink:href="#DejaVuSans-72" transform="translate(2737.785156 0)"/>
    <use xlink:href="#DejaVuSans-2d" transform="translate(2772.523438 0)"/>
    <use xlink:href="#DejaVuSans-74" transform="translate(2808.607422 0)"/>
    <use xlink:href="#DejaVuSans-72" transform="translate(2847.816406 0)"/>
    <use xlink:href="#DejaVuSans-61" transform="translate(2888.929688 0)"/>
    <use xlink:href="#DejaVuSans-6e" transform="translate(2950.208984 0)"/>
    <use xlink:href="#DejaVuSans-63" transform="translate(3013.587891 0)"/>
    <use xlink:href="#DejaVuSans-68" transform="translate(3068.568359 0)"/>
    <use xlink:href="#DejaVuSans-65" transform="translate(3131.947266 0)"/>
    <use xlink:href="#DejaVuSans-20" transform="translate(3193.470703 0)"/>
    <use xlink:href="#DejaVuSans-6c" transform="translate(3225.257812 0)"/>
    <use xlink:href="#DejaVuSans-6f" transform="translate(3253.041016 0)"/>
    <use xlink:href="#DejaVuSans-61" transform="translate(3314.222656 0)"/>
    <use xlink:href="#DejaVuSans-6e" transform="translate(3375.501953 0)"/>
    <use xlink:href="#DejaVuSans-20" transform="translate(3438.880859 0)"/>
    <use xlink:href="#DejaVuSans-61" transform="translate(3470.667969 0)"/>
    <use xlink:href="#DejaVuSans-6e" transform="translate(3531.947266 0)"/>
    <use xlink:href="#DejaVuSans-64" transform="translate(3595.326172 0)"/>
    <use xlink:href="#DejaVuSans-20" transform="translate(3658.802734 0)"/>
    <use xlink:href="#DejaVuSans-74" transform="translate(3690.589844 0)"/>
    <use xlink:href="#DejaVuSans-68" transform="translate(3729.798828 0)"/>
    <use xlink:href="#DejaVuSans-65" transform="translate(3793.177734 0)"/>
    <use xlink:href="#DejaVuSans-20" transform="translate(3854.701172 0)"/>
    <use xlink:href="#DejaVuSans-54" transform="translate(3886.488281 0)"/>
    <use xlink:href="#DejaVuSans-2d" transform="translate(3938.447266 0)"/>
    <use xlink:href="#DejaVuSans-62" transform="translate(3974.53125 0)"/>
    <use xlink:href="#DejaVuSans-69" transform="translate(4038.007812 0)"/>
    <use xlink:href="#DejaVuSans-6c" transform="translate(4065.791016 0)"/>
    <use xlink:href="#DejaVuSans-6c" transform="translate(4093.574219 0)"/>
    <use xlink:href="#DejaVuSans-20" transform="translate(4121.357422 0)"/>
    <use xlink:href="#DejaVuSans-65" transform="translate(4153.144531 0)"/>
    <use xlink:href="#DejaVuSans-6e" transform="translate(4214.667969 0)"/>
    <use xlink:href="#DejaVuSans-67" transform="translate(4278.046875 0)"/>
    <use xlink:href="#DejaVuSans-69" transform="translate(4341.523438 0)"/>
    <use xlink:href="#DejaVuSans-6e" transform="translate(4369.306641 0)"/>
    <use xlink:href="#DejaVuSans-65" transform="translate(4432.685547 0)"/>
    <use xlink:href="#DejaVuSans-2e" transform="translate(4494.208984 0)"/>
    <use xlink:href="#DejaVuSans-20" transform="translate(4525.996094 0)"/>
    <use xlink:href="#DejaVuSans-4e" transform="translate(4557.783203 0)"/>
    <use xlink:href="#DejaVuSans-6f" transform="translate(4632.587891 0)"/>
    <use xlink:href="#DejaVuSans-74" transform="translate(4693.769531 0)"/>
    <use xlink:href="#DejaVuSans-20" transform="translate(4732.978516 0)"/>
    <use xlink:href="#DejaVuSans-6c" transform="translate(4764.765625 0)"/>
    <use xlink:href="#DejaVuSans-69" transform="translate(4792.548828 0)"/>
    <use xlink:href="#DejaVuSans-76" transform="translate(4820.332031 0)"/>
    <use xlink:href="#DejaVuSans-65" transform="translate(4879.511719 0)"/>
    <use xlink:href="#DejaVuSans-20" transform="translate(4941.035156 0)"/>
    <use xlink:href="#DejaVuSans-72" transform="translate(4972.822266 0)"/>
    <use xlink:href="#DejaVuSans-65" transform="translate(5011.685547 0)"/>
    <use xlink:href="#DejaVuSans-74" transform="translate(5073.208984 0)"/>
    <use xlink:href="#DejaVuSans-75" transform="translate(5112.417969 0)"/>
    <use xlink:href="#DejaVuSans-72" transform="translate(5175.796875 0)"/>
    <use xlink:href="#DejaVuSans-6e" transform="translate(5215.160156 0)"/>
    <use xlink:href="#DejaVuSans-73" transform="translate(5278.539062 0)"/>
    <use xlink:href="#DejaVuSans-2e" transform="translate(5330.638672 0)"/>
   </g>
   <!-- Fee ranges: management 0.5–1.5%, performance 10–20% of senior net, OET 0.05–0.10%. -->
   <g style="fill: #736f6c" transform="translate(279.817734 341.729169) scale(0.09 -0.09)">
    <defs>
     <path id="DejaVuSans-46" d="M 628 4666 
L 3309 4666 
L 3309 4134 
L 1259 4134 
L 1259 2759 
L 3109 2759 
L 3109 2228 
L 1259 2228 
L 1259 0 
L 628 0 
L 628 4666 
z
" transform="scale(0.015625)"/>
     <path id="DejaVuSans-3a" d="M 750 794 
L 1409 794 
L 1409 0 
L 750 0 
L 750 794 
z
M 750 3309 
L 1409 3309 
L 1409 2516 
L 750 2516 
L 750 3309 
z
" transform="scale(0.015625)"/>
     <path id="DejaVuSans-2013" d="M 313 1978 
L 2888 1978 
L 2888 1528 
L 313 1528 
L 313 1978 
z
" transform="scale(0.015625)"/>
     <path id="DejaVuSans-2c" d="M 750 794 
L 1409 794 
L 1409 256 
L 897 -744 
L 494 -744 
L 750 256 
L 750 794 
z
" transform="scale(0.015625)"/>
    </defs>
    <use xlink:href="#DejaVuSans-46"/>
    <use xlink:href="#DejaVuSans-65" transform="translate(52.019531 0)"/>
    <use xlink:href="#DejaVuSans-65" transform="translate(113.542969 0)"/>
    <use xlink:href="#DejaVuSans-20" transform="translate(175.066406 0)"/>
    <use xlink:href="#DejaVuSans-72" transform="translate(206.853516 0)"/>
    <use xlink:href="#DejaVuSans-61" transform="translate(247.966797 0)"/>
    <use xlink:href="#DejaVuSans-6e" transform="translate(309.246094 0)"/>
    <use xlink:href="#DejaVuSans-67" transform="translate(372.625 0)"/>
    <use xlink:href="#DejaVuSans-65" transform="translate(436.101562 0)"/>
    <use xlink:href="#DejaVuSans-73" transform="translate(497.625 0)"/>
    <use xlink:href="#DejaVuSans-3a" transform="translate(549.724609 0)"/>
    <use xlink:href="#DejaVuSans-20" transform="translate(583.416016 0)"/>
    <use xlink:href="#DejaVuSans-6d" transform="translate(615.203125 0)"/>
    <use xlink:href="#DejaVuSans-61" transform="translate(712.615234 0)"/>
    <use xlink:href="#DejaVuSans-6e" transform="translate(773.894531 0)"/>
    <use xlink:href="#DejaVuSans-61" transform="translate(837.273438 0)"/>
    <use xlink:href="#DejaVuSans-67" transform="translate(898.552734 0)"/>
    <use xlink:href="#DejaVuSans-65" transform="translate(962.029297 0)"/>
    <use xlink:href="#DejaVuSans-6d" transform="translate(1023.552734 0)"/>
    <use xlink:href="#DejaVuSans-65" transform="translate(1120.964844 0)"/>
    <use xlink:href="#DejaVuSans-6e" transform="translate(1182.488281 0)"/>
    <use xlink:href="#DejaVuSans-74" transform="translate(1245.867188 0)"/>
    <use xlink:href="#DejaVuSans-20" transform="translate(1285.076172 0)"/>
    <use xlink:href="#DejaVuSans-30" transform="translate(1316.863281 0)"/>
    <use xlink:href="#DejaVuSans-2e" transform="translate(1380.486328 0)"/>
    <use xlink:href="#DejaVuSans-35" transform="translate(1412.273438 0)"/>
    <use xlink:href="#DejaVuSans-2013" transform="translate(1475.896484 0)"/>
    <use xlink:href="#DejaVuSans-31" transform="translate(1525.896484 0)"/>
    <use xlink:href="#DejaVuSans-2e" transform="translate(1589.519531 0)"/>
    <use xlink:href="#DejaVuSans-35" transform="translate(1621.306641 0)"/>
    <use xlink:href="#DejaVuSans-25" transform="translate(1684.929688 0)"/>
    <use xlink:href="#DejaVuSans-2c" transform="translate(1779.949219 0)"/>
    <use xlink:href="#DejaVuSans-20" transform="translate(1811.736328 0)"/>
    <use xlink:href="#DejaVuSans-70" transform="translate(1843.523438 0)"/>
    <use xlink:href="#DejaVuSans-65" transform="translate(1907 0)"/>
    <use xlink:href="#DejaVuSans-72" transform="translate(1968.523438 0)"/>
    <use xlink:href="#DejaVuSans-66" transform="translate(2009.636719 0)"/>
    <use xlink:href="#DejaVuSans-6f" transform="translate(2044.841797 0)"/>
    <use xlink:href="#DejaVuSans-72" transform="translate(2106.023438 0)"/>
    <use xlink:href="#DejaVuSans-6d" transform="translate(2145.386719 0)"/>
    <use xlink:href="#DejaVuSans-61" transform="translate(2242.798828 0)"/>
    <use xlink:href="#DejaVuSans-6e" transform="translate(2304.078125 0)"/>
    <use xlink:href="#DejaVuSans-63" transform="translate(2367.457031 0)"/>
    <use xlink:href="#DejaVuSans-65" transform="translate(2422.4375 0)"/>
    <use xlink:href="#DejaVuSans-20" transform="translate(2483.960938 0)"/>
    <use xlink:href="#DejaVuSans-31" transform="translate(2515.748047 0)"/>
    <use xlink:href="#DejaVuSans-30" transform="translate(2579.371094 0)"/>
    <use xlink:href="#DejaVuSans-2013" transform="translate(2642.994141 0)"/>
    <use xlink:href="#DejaVuSans-32" transform="translate(2692.994141 0)"/>
    <use xlink:href="#DejaVuSans-30" transform="translate(2756.617188 0)"/>
    <use xlink:href="#DejaVuSans-25" transform="translate(2820.240234 0)"/>
    <use xlink:href="#DejaVuSans-20" transform="translate(2915.259766 0)"/>
    <use xlink:href="#DejaVuSans-6f" transform="translate(2947.046875 0)"/>
    <use xlink:href="#DejaVuSans-66" transform="translate(3008.228516 0)"/>
    <use xlink:href="#DejaVuSans-20" transform="translate(3043.433594 0)"/>
    <use xlink:href="#DejaVuSans-73" transform="translate(3075.220703 0)"/>
    <use xlink:href="#DejaVuSans-65" transform="translate(3127.320312 0)"/>
    <use xlink:href="#DejaVuSans-6e" transform="translate(3188.84375 0)"/>
    <use xlink:href="#DejaVuSans-69" transform="translate(3252.222656 0)"/>
    <use xlink:href="#DejaVuSans-6f" transform="translate(3280.005859 0)"/>
    <use xlink:href="#DejaVuSans-72" transform="translate(3341.1875 0)"/>
    <use xlink:href="#DejaVuSans-20" transform="translate(3382.300781 0)"/>
    <use xlink:href="#DejaVuSans-6e" transform="translate(3414.087891 0)"/>
    <use xlink:href="#DejaVuSans-65" transform="translate(3477.466797 0)"/>
    <use xlink:href="#DejaVuSans-74" transform="translate(3538.990234 0)"/>
    <use xlink:href="#DejaVuSans-2c" transform="translate(3578.199219 0)"/>
    <use xlink:href="#DejaVuSans-20" transform="translate(3609.986328 0)"/>
    <use xlink:href="#DejaVuSans-4f" transform="translate(3641.773438 0)"/>
    <use xlink:href="#DejaVuSans-45" transform="translate(3720.484375 0)"/>
    <use xlink:href="#DejaVuSans-54" transform="translate(3783.667969 0)"/>
    <use xlink:href="#DejaVuSans-20" transform="translate(3844.751953 0)"/>
    <use xlink:href="#DejaVuSans-30" transform="translate(3876.539062 0)"/>
    <use xlink:href="#DejaVuSans-2e" transform="translate(3940.162109 0)"/>
    <use xlink:href="#DejaVuSans-30" transform="translate(3971.949219 0)"/>
    <use xlink:href="#DejaVuSans-35" transform="translate(4035.572266 0)"/>
    <use xlink:href="#DejaVuSans-2013" transform="translate(4099.195312 0)"/>
    <use xlink:href="#DejaVuSans-30" transform="translate(4149.195312 0)"/>
    <use xlink:href="#DejaVuSans-2e" transform="translate(4212.818359 0)"/>
    <use xlink:href="#DejaVuSans-31" transform="translate(4244.605469 0)"/>
    <use xlink:href="#DejaVuSans-30" transform="translate(4308.228516 0)"/>
    <use xlink:href="#DejaVuSans-25" transform="translate(4371.851562 0)"/>
    <use xlink:href="#DejaVuSans-2e" transform="translate(4466.871094 0)"/>
   </g>
  </g>
 </g>
 <defs>
  <clipPath id="p0e2f6751b4">
   <rect x="185.255156" y="31.077969" width="613.8" height="254.4696"/>
  </clipPath>
 </defs>
</svg>
