<?xml version="1.0" encoding="utf-8" standalone="no"?>
<!DOCTYPE svg PUBLIC "-//W3C//DTD SVG 1.1//EN"
  "http://www.w3.org/Graphics/SVG/1.1/DTD/svg11.dtd">
<svg xmlns:xlink="http://www.w3.org/1999/xlink" width="792pt" height="345.6pt" viewBox="0 0 792 345.6" xmlns="http://www.w3.org/2000/svg" version="1.1">
 <metadata>
  <rdf:RDF xmlns:dc="http://purl.org/dc/elements/1.1/" xmlns:cc="http://creativecommons.org/ns#" xmlns:rdf="http://www.w3.org/1999/02/22-rdf-syntax-ns#">
   <cc:Work>
    <dc:type rdf:resource="http://purl.org/dc/dcmitype/StillImage"/>
    <dc:date>2026-04-23T15:39:56.486324</dc:date>
    <dc:format>image/svg+xml</dc:format>
    <dc:creator>
     <cc:Agent>
      <dc:title>Matplotlib v3.10.8, https://matplotlib.org/</dc:title>
     </cc:Agent>
    </dc:creator>
   </cc:Work>
  </rdf:RDF>
 </metadata>
 <defs>
  <style type="text/css">*{stroke-linejoin: round; stroke-linecap: butt}</style>
 </defs>
 <g id="figure_1">
  <g id="patch_1">
   <path d="M 0 345.6 
L 792 345.6 
L 792 0 
L 0 0 
z
" style="fill: #0f1419"/>
  </g>
  <g id="axes_1">
   <g id="patch_2">
    <path d="M 99 214.272 
L 712.8 214.272 
L 712.8 62.208 
L 99 62.208 
z
" style="fill: #161b22"/>
   </g>
   <g id="patch_3">
    <path d="M 120.411628 152.722286 
L 191.783721 152.722286 
L 191.783721 116.516571 
L 120.411628 116.516571 
z
" clip-path="url(#pa41c23926f)" style="fill: #f7768e; opacity: 0.92; stroke: #0f1419; stroke-width: 2; stroke-linejoin: miter"/>
   </g>
   <g id="patch_4">
    <path d="M 191.783721 152.722286 
L 263.155814 152.722286 
L 263.155814 116.516571 
L 191.783721 116.516571 
z
" clip-path="url(#pa41c23926f)" style="fill: #e0af68; opacity: 0.92; stroke: #0f1419; stroke-width: 2; stroke-linejoin: miter"/>
   </g>
   <g id="patch_5">
    <path d="M 263.155814 152.722286 
L 334.527907 152.722286 
L 334.527907 116.516571 
L 263.155814 116.516571 
z
" clip-path="url(#pa41c23926f)" style="fill: #e0af68; opacity: 0.92; stroke: #0f1419; stroke-width: 2; stroke-linejoin: miter"/>
   </g>
   <g id="patch_6">
    <path d="M 334.527907 152.722286 
L 691.388372 152.722286 
L 691.388372 116.516571 
L 334.527907 116.516571 
z
" clip-path="url(#pa41c23926f)" style="fill: #9ece6a; opacity: 0.92; stroke: #0f1419; stroke-width: 2; stroke-linejoin: miter"/>
   </g>
   <g id="matplotlib.axis_1"/>
   <g id="matplotlib.axis_2"/>
   <g id="line2d_1">
    <path d="M 191.783721 154.894629 
L 191.783721 162.135771 
" clip-path="url(#pa41c23926f)" style="fill: none; stroke: #e6edf3; stroke-linecap: square"/>
   </g>
   <g id="line2d_2">
    <path d="M 263.155814 154.894629 
L 263.155814 162.135771 
" clip-path="url(#pa41c23926f)" style="fill: none; stroke: #e6edf3; stroke-linecap: square"/>
   </g>
   <g id="line2d_3">
    <path d="M 334.527907 154.894629 
L 334.527907 162.135771 
" clip-path="url(#pa41c23926f)" style="fill: none; stroke: #e6edf3; stroke-linecap: square"/>
   </g>
   <g id="patch_7">
    <path d="M 99 214.272 
L 99 62.208 
" style="fill: none; stroke: #2a313c; stroke-width: 0.8; stroke-linejoin: miter; stroke-linecap: square"/>
   </g>
   <g id="patch_8">
    <path d="M 99 214.272 
L 712.8 214.272 
" style="fill: none; stroke: #2a313c; stroke-width: 0.8; stroke-linejoin: miter; stroke-linecap: square"/>
   </g>
   <g id="text_1">
    <!-- Margin call -->
    <g style="fill: #e6edf3" transform="translate(121.805174 101.833035) scale(0.11 -0.11)">
     <defs>
      <path id="DejaVuSans-Bold-4d" d="M 588 4666 
L 2119 4666 
L 3181 2169 
L 4250 4666 
L 5778 4666 
L 5778 0 
L 4641 0 
L 4641 3413 
L 3566 897 
L 2803 897 
L 1728 3413 
L 1728 0 
L 588 0 
L 588 4666 
z
" transform="scale(0.015625)"/>
      <path id="DejaVuSans-Bold-61" d="M 2106 1575 
Q 1756 1575 1579 1456 
Q 1403 1338 1403 1106 
Q 1403 894 1545 773 
Q 1688 653 1941 653 
Q 2256 653 2472 879 
Q 2688 1106 2688 1447 
L 2688 1575 
L 2106 1575 
z
M 3816 1997 
L 3816 0 
L 2688 0 
L 2688 519 
Q 2463 200 2181 54 
Q 1900 -91 1497 -91 
Q 953 -91 614 226 
Q 275 544 275 1050 
Q 275 1666 698 1953 
Q 1122 2241 2028 2241 
L 2688 2241 
L 2688 2328 
Q 2688 2594 2478 2717 
Q 2269 2841 1825 2841 
Q 1466 2841 1156 2769 
Q 847 2697 581 2553 
L 581 3406 
Q 941 3494 1303 3539 
Q 1666 3584 2028 3584 
Q 2975 3584 3395 3211 
Q 3816 2838 3816 1997 
z
" transform="scale(0.015625)"/>
      <path id="DejaVuSans-Bold-72" d="M 3138 2547 
Q 2991 2616 2845 2648 
Q 2700 2681 2553 2681 
Q 2122 2681 1889 2404 
Q 1656 2128 1656 1613 
L 1656 0 
L 538 0 
L 538 3500 
L 1656 3500 
L 1656 2925 
Q 1872 3269 2151 3426 
Q 2431 3584 2822 3584 
Q 2878 3584 2943 3579 
Q 3009 3575 3134 3559 
L 3138 2547 
z
" transform="scale(0.015625)"/>
      <path id="DejaVuSans-Bold-67" d="M 2919 594 
Q 2688 288 2409 144 
Q 2131 0 1766 0 
Q 1125 0 706 504 
Q 288 1009 288 1791 
Q 288 2575 706 3076 
Q 1125 3578 1766 3578 
Q 2131 3578 2409 3434 
Q 2688 3291 2919 2981 
L 2919 3500 
L 4044 3500 
L 4044 353 
Q 4044 -491 3511 -936 
Q 2978 -1381 1966 -1381 
Q 1638 -1381 1331 -1331 
Q 1025 -1281 716 -1178 
L 716 -306 
Q 1009 -475 1290 -558 
Q 1572 -641 1856 -641 
Q 2406 -641 2662 -400 
Q 2919 -159 2919 353 
L 2919 594 
z
M 2181 2772 
Q 1834 2772 1640 2515 
Q 1447 2259 1447 1791 
Q 1447 1309 1634 1061 
Q 1822 813 2181 813 
Q 2531 813 2725 1069 
Q 2919 1325 2919 1791 
Q 2919 2259 2725 2515 
Q 2531 2772 2181 2772 
z
" transform="scale(0.015625)"/>
      <path id="DejaVuSans-Bold-69" d="M 538 3500 
L 1656 3500 
L 1656 0 
L 538 0 
L 538 3500 
z
M 538 4863 
L 1656 4863 
L 1656 3950 
L 538 3950 
L 538 4863 
z
" transform="scale(0.015625)"/>
      <path id="DejaVuSans-Bold-6e" d="M 4056 2131 
L 4056 0 
L 2931 0 
L 2931 347 
L 2931 1631 
Q 2931 2084 2911 2256 
Q 2891 2428 2841 2509 
Q 2775 2619 2662 2680 
Q 2550 2741 2406 2741 
Q 2056 2741 1856 2470 
Q 1656 2200 1656 1722 
L 1656 0 
L 538 0 
L 538 3500 
L 1656 3500 
L 1656 2988 
Q 1909 3294 2193 3439 
Q 2478 3584 2822 3584 
Q 3428 3584 3742 3212 
Q 4056 2841 4056 2131 
z
" transform="scale(0.015625)"/>
      <path id="DejaVuSans-Bold-20" transform="scale(0.015625)"/>
      <path id="DejaVuSans-Bold-63" d="M 3366 3391 
L 3366 2478 
Q 3138 2634 2908 2709 
Q 2678 2784 2431 2784 
Q 1963 2784 1702 2511 
Q 1441 2238 1441 1747 
Q 1441 1256 1702 982 
Q 1963 709 2431 709 
Q 2694 709 2930 787 
Q 3166 866 3366 1019 
L 3366 103 
Q 3103 6 2833 -42 
Q 2563 -91 2291 -91 
Q 1344 -91 809 395 
Q 275 881 275 1747 
Q 275 2613 809 3098 
Q 1344 3584 2291 3584 
Q 2566 3584 2833 3536 
Q 3100 3488 3366 3391 
z
" transform="scale(0.015625)"/>
      <path id="DejaVuSans-Bold-6c" d="M 538 4863 
L 1656 4863 
L 1656 0 
L 538 0 
L 538 4863 
z
" transform="scale(0.015625)"/>
     </defs>
     <use xlink:href="#DejaVuSans-Bold-4d"/>
     <use xlink:href="#DejaVuSans-Bold-61" transform="translate(99.511719 0)"/>
     <use xlink:href="#DejaVuSans-Bold-72" transform="translate(166.992188 0)"/>
     <use xlink:href="#DejaVuSans-Bold-67" transform="translate(216.308594 0)"/>
     <use xlink:href="#DejaVuSans-Bold-69" transform="translate(287.890625 0)"/>
     <use xlink:href="#DejaVuSans-Bold-6e" transform="translate(322.167969 0)"/>
     <use xlink:href="#DejaVuSans-Bold-20" transform="translate(393.359375 0)"/>
     <use xlink:href="#DejaVuSans-Bold-63" transform="translate(428.173828 0)"/>
     <use xlink:href="#DejaVuSans-Bold-61" transform="translate(487.451172 0)"/>
     <use xlink:href="#DejaVuSans-Bold-6c" transform="translate(554.931641 0)"/>
     <use xlink:href="#DejaVuSans-Bold-6c" transform="translate(589.208984 0)"/>
    </g>
   </g>
   <g id="text_2">
    <!-- Maintenance -->
    <g style="fill: #e6edf3" transform="translate(187.59133 101.918972) scale(0.11 -0.11)">
     <defs>
      <path id="DejaVuSans-Bold-74" d="M 1759 4494 
L 1759 3500 
L 2913 3500 
L 2913 2700 
L 1759 2700 
L 1759 1216 
Q 1759 972 1856 886 
Q 1953 800 2241 800 
L 2816 800 
L 2816 0 
L 1856 0 
Q 1194 0 917 276 
Q 641 553 641 1216 
L 641 2700 
L 84 2700 
L 84 3500 
L 641 3500 
L 641 4494 
L 1759 4494 
z
" transform="scale(0.015625)"/>
      <path id="DejaVuSans-Bold-65" d="M 4031 1759 
L 4031 1441 
L 1416 1441 
Q 1456 1047 1700 850 
Q 1944 653 2381 653 
Q 2734 653 3104 758 
Q 3475 863 3866 1075 
L 3866 213 
Q 3469 63 3072 -14 
Q 2675 -91 2278 -91 
Q 1328 -91 801 392 
Q 275 875 275 1747 
Q 275 2603 792 3093 
Q 1309 3584 2216 3584 
Q 3041 3584 3536 3087 
Q 4031 2591 4031 1759 
z
M 2881 2131 
Q 2881 2450 2695 2645 
Q 2509 2841 2209 2841 
Q 1884 2841 1681 2658 
Q 1478 2475 1428 2131 
L 2881 2131 
z
" transform="scale(0.015625)"/>
     </defs>
     <use xlink:href="#DejaVuSans-Bold-4d"/>
     <use xlink:href="#DejaVuSans-Bold-61" transform="translate(99.511719 0)"/>
     <use xlink:href="#DejaVuSans-Bold-69" transform="translate(166.992188 0)"/>
     <use xlink:href="#DejaVuSans-Bold-6e" transform="translate(201.269531 0)"/>
     <use xlink:href="#DejaVuSans-Bold-74" transform="translate(272.460938 0)"/>
     <use xlink:href="#DejaVuSans-Bold-65" transform="translate(320.263672 0)"/>
     <use xlink:href="#DejaVuSans-Bold-6e" transform="translate(388.085938 0)"/>
     <use xlink:href="#DejaVuSans-Bold-61" transform="translate(459.277344 0)"/>
     <use xlink:href="#DejaVuSans-Bold-6e" transform="translate(526.757812 0)"/>
     <use xlink:href="#DejaVuSans-Bold-63" transform="translate(597.949219 0)"/>
     <use xlink:href="#DejaVuSans-Bold-65" transform="translate(657.226562 0)"/>
    </g>
   </g>
   <g id="text_3">
    <!-- Watchlist -->
    <g style="fill: #e6edf3" transform="translate(269.785532 101.918972) scale(0.11 -0.11)">
     <defs>
      <path id="DejaVuSans-Bold-57" d="M 191 4666 
L 1344 4666 
L 2150 1275 
L 2950 4666 
L 4109 4666 
L 4909 1275 
L 5716 4666 
L 6859 4666 
L 5759 0 
L 4372 0 
L 3525 3547 
L 2688 0 
L 1300 0 
L 191 4666 
z
" transform="scale(0.015625)"/>
      <path id="DejaVuSans-Bold-68" d="M 4056 2131 
L 4056 0 
L 2931 0 
L 2931 347 
L 2931 1625 
Q 2931 2084 2911 2256 
Q 2891 2428 2841 2509 
Q 2775 2619 2662 2680 
Q 2550 2741 2406 2741 
Q 2056 2741 1856 2470 
Q 1656 2200 1656 1722 
L 1656 0 
L 538 0 
L 538 4863 
L 1656 4863 
L 1656 2988 
Q 1909 3294 2193 3439 
Q 2478 3584 2822 3584 
Q 3428 3584 3742 3212 
Q 4056 2841 4056 2131 
z
" transform="scale(0.015625)"/>
      <path id="DejaVuSans-Bold-73" d="M 3272 3391 
L 3272 2541 
Q 2913 2691 2578 2766 
Q 2244 2841 1947 2841 
Q 1628 2841 1473 2761 
Q 1319 2681 1319 2516 
Q 1319 2381 1436 2309 
Q 1553 2238 1856 2203 
L 2053 2175 
Q 2913 2066 3209 1816 
Q 3506 1566 3506 1031 
Q 3506 472 3093 190 
Q 2681 -91 1863 -91 
Q 1516 -91 1145 -36 
Q 775 19 384 128 
L 384 978 
Q 719 816 1070 734 
Q 1422 653 1784 653 
Q 2113 653 2278 743 
Q 2444 834 2444 1013 
Q 2444 1163 2330 1236 
Q 2216 1309 1875 1350 
L 1678 1375 
Q 931 1469 631 1722 
Q 331 1975 331 2491 
Q 331 3047 712 3315 
Q 1094 3584 1881 3584 
Q 2191 3584 2531 3537 
Q 2872 3491 3272 3391 
z
" transform="scale(0.015625)"/>
     </defs>
     <use xlink:href="#DejaVuSans-Bold-57"/>
     <use xlink:href="#DejaVuSans-Bold-61" transform="translate(106.677734 0)"/>
     <use xlink:href="#DejaVuSans-Bold-74" transform="translate(174.158203 0)"/>
     <use xlink:href="#DejaVuSans-Bold-63" transform="translate(221.960938 0)"/>
     <use xlink:href="#DejaVuSans-Bold-68" transform="translate(281.238281 0)"/>
     <use xlink:href="#DejaVuSans-Bold-6c" transform="translate(352.429688 0)"/>
     <use xlink:href="#DejaVuSans-Bold-69" transform="translate(386.707031 0)"/>
     <use xlink:href="#DejaVuSans-Bold-73" transform="translate(420.984375 0)"/>
     <use xlink:href="#DejaVuSans-Bold-74" transform="translate(480.505859 0)"/>
    </g>
   </g>
   <g id="text_4">
    <!-- Healthy -->
    <g style="fill: #e6edf3" transform="translate(488.898218 101.833035) scale(0.11 -0.11)">
     <defs>
      <path id="DejaVuSans-Bold-48" d="M 588 4666 
L 1791 4666 
L 1791 2888 
L 3566 2888 
L 3566 4666 
L 4769 4666 
L 4769 0 
L 3566 0 
L 3566 1978 
L 1791 1978 
L 1791 0 
L 588 0 
L 588 4666 
z
" transform="scale(0.015625)"/>
      <path id="DejaVuSans-Bold-79" d="M 78 3500 
L 1197 3500 
L 2138 1125 
L 2938 3500 
L 4056 3500 
L 2584 -331 
Q 2363 -916 2067 -1148 
Q 1772 -1381 1288 -1381 
L 641 -1381 
L 641 -647 
L 991 -647 
Q 1275 -647 1404 -556 
Q 1534 -466 1606 -231 
L 1638 -134 
L 78 3500 
z
" transform="scale(0.015625)"/>
     </defs>
     <use xlink:href="#DejaVuSans-Bold-48"/>
     <use xlink:href="#DejaVuSans-Bold-65" transform="translate(83.691406 0)"/>
     <use xlink:href="#DejaVuSans-Bold-61" transform="translate(151.513672 0)"/>
     <use xlink:href="#DejaVuSans-Bold-6c" transform="translate(218.994141 0)"/>
     <use xlink:href="#DejaVuSans-Bold-74" transform="translate(253.271484 0)"/>
     <use xlink:href="#DejaVuSans-Bold-68" transform="translate(301.074219 0)"/>
     <use xlink:href="#DejaVuSans-Bold-79" transform="translate(372.265625 0)"/>
    </g>
   </g>
   <g id="text_5">
    <!-- 110% -->
    <g style="fill: #e6edf3" transform="translate(176.336846 175.527123) scale(0.1 -0.1)">
     <defs>
      <path id="DejaVuSans-Bold-31" d="M 750 831 
L 1813 831 
L 1813 3847 
L 722 3622 
L 722 4441 
L 1806 4666 
L 2950 4666 
L 2950 831 
L 4013 831 
L 4013 0 
L 750 0 
L 750 831 
z
" transform="scale(0.015625)"/>
      <path id="DejaVuSans-Bold-30" d="M 2944 2338 
Q 2944 3213 2780 3570 
Q 2616 3928 2228 3928 
Q 1841 3928 1675 3570 
Q 1509 3213 1509 2338 
Q 1509 1453 1675 1090 
Q 1841 728 2228 728 
Q 2613 728 2778 1090 
Q 2944 1453 2944 2338 
z
M 4147 2328 
Q 4147 1169 3647 539 
Q 3147 -91 2228 -91 
Q 1306 -91 806 539 
Q 306 1169 306 2328 
Q 306 3491 806 4120 
Q 1306 4750 2228 4750 
Q 3147 4750 3647 4120 
Q 4147 3491 4147 2328 
z
" transform="scale(0.015625)"/>
      <path id="DejaVuSans-Bold-25" d="M 4959 1925 
Q 4738 1925 4616 1733 
Q 4494 1541 4494 1184 
Q 4494 825 4614 633 
Q 4734 441 4959 441 
Q 5184 441 5303 633 
Q 5422 825 5422 1184 
Q 5422 1541 5301 1733 
Q 5181 1925 4959 1925 
z
M 4959 2450 
Q 5541 2450 5875 2112 
Q 6209 1775 6209 1184 
Q 6209 594 5875 251 
Q 5541 -91 4959 -91 
Q 4378 -91 4042 251 
Q 3706 594 3706 1184 
Q 3706 1772 4042 2111 
Q 4378 2450 4959 2450 
z
M 2094 -91 
L 1403 -91 
L 4319 4750 
L 5013 4750 
L 2094 -91 
z
M 1453 4750 
Q 2034 4750 2367 4411 
Q 2700 4072 2700 3481 
Q 2700 2891 2367 2550 
Q 2034 2209 1453 2209 
Q 872 2209 539 2550 
Q 206 2891 206 3481 
Q 206 4072 539 4411 
Q 872 4750 1453 4750 
z
M 1453 4225 
Q 1228 4225 1106 4031 
Q 984 3838 984 3481 
Q 984 3122 1106 2926 
Q 1228 2731 1453 2731 
Q 1678 2731 1798 2926 
Q 1919 3122 1919 3481 
Q 1919 3838 1797 4031 
Q 1675 4225 1453 4225 
z
" transform="scale(0.015625)"/>
     </defs>
     <use xlink:href="#DejaVuSans-Bold-31"/>
     <use xlink:href="#DejaVuSans-Bold-31" transform="translate(69.580078 0)"/>
     <use xlink:href="#DejaVuSans-Bold-30" transform="translate(139.160156 0)"/>
     <use xlink:href="#DejaVuSans-Bold-25" transform="translate(208.740234 0)"/>
    </g>
   </g>
   <g id="text_6">
    <!-- 120% -->
    <g style="fill: #e6edf3" transform="translate(247.708939 175.527123) scale(0.1 -0.1)">
     <defs>
      <path id="DejaVuSans-Bold-32" d="M 1844 884 
L 3897 884 
L 3897 0 
L 506 0 
L 506 884 
L 2209 2388 
Q 2438 2594 2547 2791 
Q 2656 2988 2656 3200 
Q 2656 3528 2436 3728 
Q 2216 3928 1850 3928 
Q 1569 3928 1234 3808 
Q 900 3688 519 3450 
L 519 4475 
Q 925 4609 1322 4679 
Q 1719 4750 2100 4750 
Q 2938 4750 3402 4381 
Q 3866 4013 3866 3353 
Q 3866 2972 3669 2642 
Q 3472 2313 2841 1759 
L 1844 884 
z
" transform="scale(0.015625)"/>
     </defs>
     <use xlink:href="#DejaVuSans-Bold-31"/>
     <use xlink:href="#DejaVuSans-Bold-32" transform="translate(69.580078 0)"/>
     <use xlink:href="#DejaVuSans-Bold-30" transform="translate(139.160156 0)"/>
     <use xlink:href="#DejaVuSans-Bold-25" transform="translate(208.740234 0)"/>
    </g>
   </g>
   <g id="text_7">
    <!-- 130% -->
    <g style="fill: #e6edf3" transform="translate(319.081032 175.527123) scale(0.1 -0.1)">
     <defs>
      <path id="DejaVuSans-Bold-33" d="M 2981 2516 
Q 3453 2394 3698 2092 
Q 3944 1791 3944 1325 
Q 3944 631 3412 270 
Q 2881 -91 1863 -91 
Q 1503 -91 1142 -33 
Q 781 25 428 141 
L 428 1069 
Q 766 900 1098 814 
Q 1431 728 1753 728 
Q 2231 728 2486 893 
Q 2741 1059 2741 1369 
Q 2741 1688 2480 1852 
Q 2219 2016 1709 2016 
L 1228 2016 
L 1228 2791 
L 1734 2791 
Q 2188 2791 2409 2933 
Q 2631 3075 2631 3366 
Q 2631 3634 2415 3781 
Q 2200 3928 1806 3928 
Q 1516 3928 1219 3862 
Q 922 3797 628 3669 
L 628 4550 
Q 984 4650 1334 4700 
Q 1684 4750 2022 4750 
Q 2931 4750 3382 4451 
Q 3834 4153 3834 3553 
Q 3834 3144 3618 2883 
Q 3403 2622 2981 2516 
z
" transform="scale(0.015625)"/>
     </defs>
     <use xlink:href="#DejaVuSans-Bold-31"/>
     <use xlink:href="#DejaVuSans-Bold-33" transform="translate(69.580078 0)"/>
     <use xlink:href="#DejaVuSans-Bold-30" transform="translate(139.160156 0)"/>
     <use xlink:href="#DejaVuSans-Bold-25" transform="translate(208.740234 0)"/>
    </g>
   </g>
   <g id="text_8">
    <!-- 100% -->
    <g style="fill: #8b949e" transform="translate(106.117097 175.527123) scale(0.1 -0.1)">
     <defs>
      <path id="DejaVuSans-31" d="M 794 531 
L 1825 531 
L 1825 4091 
L 703 3866 
L 703 4441 
L 1819 4666 
L 2450 4666 
L 2450 531 
L 3481 531 
L 3481 0 
L 794 0 
L 794 531 
z
" transform="scale(0.015625)"/>
      <path id="DejaVuSans-30" d="M 2034 4250 
Q 1547 4250 1301 3770 
Q 1056 3291 1056 2328 
Q 1056 1369 1301 889 
Q 1547 409 2034 409 
Q 2525 409 2770 889 
Q 3016 1369 3016 2328 
Q 3016 3291 2770 3770 
Q 2525 4250 2034 4250 
z
M 2034 4750 
Q 2819 4750 3233 4129 
Q 3647 3509 3647 2328 
Q 3647 1150 3233 529 
Q 2819 -91 2034 -91 
Q 1250 -91 836 529 
Q 422 1150 422 2328 
Q 422 3509 836 4129 
Q 1250 4750 2034 4750 
z
" transform="scale(0.015625)"/>
      <path id="DejaVuSans-25" d="M 4653 2053 
Q 4381 2053 4226 1822 
Q 4072 1591 4072 1178 
Q 4072 772 4226 539 
Q 4381 306 4653 306 
Q 4919 306 5073 539 
Q 5228 772 5228 1178 
Q 5228 1588 5073 1820 
Q 4919 2053 4653 2053 
z
M 4653 2450 
Q 5147 2450 5437 2106 
Q 5728 1763 5728 1178 
Q 5728 594 5436 251 
Q 5144 -91 4653 -91 
Q 4153 -91 3862 251 
Q 3572 594 3572 1178 
Q 3572 1766 3864 2108 
Q 4156 2450 4653 2450 
z
M 1428 4353 
Q 1159 4353 1004 4120 
Q 850 3888 850 3481 
Q 850 3069 1003 2837 
Q 1156 2606 1428 2606 
Q 1700 2606 1854 2837 
Q 2009 3069 2009 3481 
Q 2009 3884 1853 4118 
Q 1697 4353 1428 4353 
z
M 4250 4750 
L 4750 4750 
L 1831 -91 
L 1331 -91 
L 4250 4750 
z
M 1428 4750 
Q 1922 4750 2215 4408 
Q 2509 4066 2509 3481 
Q 2509 2891 2217 2550 
Q 1925 2209 1428 2209 
Q 931 2209 642 2551 
Q 353 2894 353 3481 
Q 353 4063 643 4406 
Q 934 4750 1428 4750 
z
" transform="scale(0.015625)"/>
     </defs>
     <use xlink:href="#DejaVuSans-31"/>
     <use xlink:href="#DejaVuSans-30" transform="translate(63.623047 0)"/>
     <use xlink:href="#DejaVuSans-30" transform="translate(127.246094 0)"/>
     <use xlink:href="#DejaVuSans-25" transform="translate(190.869141 0)"/>
    </g>
   </g>
   <g id="text_9">
    <!-- 180% -->
    <g style="fill: #8b949e" transform="translate(677.093841 175.527123) scale(0.1 -0.1)">
     <defs>
      <path id="DejaVuSans-38" d="M 2034 2216 
Q 1584 2216 1326 1975 
Q 1069 1734 1069 1313 
Q 1069 891 1326 650 
Q 1584 409 2034 409 
Q 2484 409 2743 651 
Q 3003 894 3003 1313 
Q 3003 1734 2745 1975 
Q 2488 2216 2034 2216 
z
M 1403 2484 
Q 997 2584 770 2862 
Q 544 3141 544 3541 
Q 544 4100 942 4425 
Q 1341 4750 2034 4750 
Q 2731 4750 3128 4425 
Q 3525 4100 3525 3541 
Q 3525 3141 3298 2862 
Q 3072 2584 2669 2484 
Q 3125 2378 3379 2068 
Q 3634 1759 3634 1313 
Q 3634 634 3220 271 
Q 2806 -91 2034 -91 
Q 1263 -91 848 271 
Q 434 634 434 1313 
Q 434 1759 690 2068 
Q 947 2378 1403 2484 
z
M 1172 3481 
Q 1172 3119 1398 2916 
Q 1625 2713 2034 2713 
Q 2441 2713 2670 2916 
Q 2900 3119 2900 3481 
Q 2900 3844 2670 4047 
Q 2441 4250 2034 4250 
Q 1625 4250 1398 4047 
Q 1172 3844 1172 3481 
z
" transform="scale(0.015625)"/>
     </defs>
     <use xlink:href="#DejaVuSans-31"/>
     <use xlink:href="#DejaVuSans-38" transform="translate(63.623047 0)"/>
     <use xlink:href="#DejaVuSans-30" transform="translate(127.246094 0)"/>
     <use xlink:href="#DejaVuSans-25" transform="translate(190.869141 0)"/>
    </g>
   </g>
   <g id="text_10">
    <!-- Collateral coverage ratio — notification thresholds -->
    <g style="fill: #e6edf3" transform="translate(99 48.208) scale(0.13 -0.13)">
     <defs>
      <path id="DejaVuSans-Bold-43" d="M 4288 256 
Q 3956 84 3597 -3 
Q 3238 -91 2847 -91 
Q 1681 -91 1000 561 
Q 319 1213 319 2328 
Q 319 3447 1000 4098 
Q 1681 4750 2847 4750 
Q 3238 4750 3597 4662 
Q 3956 4575 4288 4403 
L 4288 3438 
Q 3953 3666 3628 3772 
Q 3303 3878 2944 3878 
Q 2300 3878 1931 3465 
Q 1563 3053 1563 2328 
Q 1563 1606 1931 1193 
Q 2300 781 2944 781 
Q 3303 781 3628 887 
Q 3953 994 4288 1222 
L 4288 256 
z
" transform="scale(0.015625)"/>
      <path id="DejaVuSans-Bold-6f" d="M 2203 2784 
Q 1831 2784 1636 2517 
Q 1441 2250 1441 1747 
Q 1441 1244 1636 976 
Q 1831 709 2203 709 
Q 2569 709 2762 976 
Q 2956 1244 2956 1747 
Q 2956 2250 2762 2517 
Q 2569 2784 2203 2784 
z
M 2203 3584 
Q 3106 3584 3614 3096 
Q 4122 2609 4122 1747 
Q 4122 884 3614 396 
Q 3106 -91 2203 -91 
Q 1297 -91 786 396 
Q 275 884 275 1747 
Q 275 2609 786 3096 
Q 1297 3584 2203 3584 
z
" transform="scale(0.015625)"/>
      <path id="DejaVuSans-Bold-76" d="M 97 3500 
L 1216 3500 
L 2088 1081 
L 2956 3500 
L 4078 3500 
L 2700 0 
L 1472 0 
L 97 3500 
z
" transform="scale(0.015625)"/>
      <path id="DejaVuSans-Bold-2014" d="M 344 2156 
L 6056 2156 
L 6056 1350 
L 344 1350 
L 344 2156 
z
" transform="scale(0.015625)"/>
      <path id="DejaVuSans-Bold-66" d="M 2841 4863 
L 2841 4128 
L 2222 4128 
Q 1984 4128 1890 4042 
Q 1797 3956 1797 3744 
L 1797 3500 
L 2753 3500 
L 2753 2700 
L 1797 2700 
L 1797 0 
L 678 0 
L 678 2700 
L 122 2700 
L 122 3500 
L 678 3500 
L 678 3744 
Q 678 4316 997 4589 
Q 1316 4863 1984 4863 
L 2841 4863 
z
" transform="scale(0.015625)"/>
      <path id="DejaVuSans-Bold-64" d="M 2919 2988 
L 2919 4863 
L 4044 4863 
L 4044 0 
L 2919 0 
L 2919 506 
Q 2688 197 2409 53 
Q 2131 -91 1766 -91 
Q 1119 -91 703 423 
Q 288 938 288 1747 
Q 288 2556 703 3070 
Q 1119 3584 1766 3584 
Q 2128 3584 2408 3439 
Q 2688 3294 2919 2988 
z
M 2181 722 
Q 2541 722 2730 984 
Q 2919 1247 2919 1747 
Q 2919 2247 2730 2509 
Q 2541 2772 2181 2772 
Q 1825 2772 1636 2509 
Q 1447 2247 1447 1747 
Q 1447 1247 1636 984 
Q 1825 722 2181 722 
z
" transform="scale(0.015625)"/>
     </defs>
     <use xlink:href="#DejaVuSans-Bold-43"/>
     <use xlink:href="#DejaVuSans-Bold-6f" transform="translate(73.388672 0)"/>
     <use xlink:href="#DejaVuSans-Bold-6c" transform="translate(142.089844 0)"/>
     <use xlink:href="#DejaVuSans-Bold-6c" transform="translate(176.367188 0)"/>
     <use xlink:href="#DejaVuSans-Bold-61" transform="translate(210.644531 0)"/>
     <use xlink:href="#DejaVuSans-Bold-74" transform="translate(278.125 0)"/>
     <use xlink:href="#DejaVuSans-Bold-65" transform="translate(325.927734 0)"/>
     <use xlink:href="#DejaVuSans-Bold-72" transform="translate(393.75 0)"/>
     <use xlink:href="#DejaVuSans-Bold-61" transform="translate(443.066406 0)"/>
     <use xlink:href="#DejaVuSans-Bold-6c" transform="translate(510.546875 0)"/>
     <use xlink:href="#DejaVuSans-Bold-20" transform="translate(544.824219 0)"/>
     <use xlink:href="#DejaVuSans-Bold-63" transform="translate(579.638672 0)"/>
     <use xlink:href="#DejaVuSans-Bold-6f" transform="translate(638.916016 0)"/>
     <use xlink:href="#DejaVuSans-Bold-76" transform="translate(707.617188 0)"/>
     <use xlink:href="#DejaVuSans-Bold-65" transform="translate(772.802734 0)"/>
     <use xlink:href="#DejaVuSans-Bold-72" transform="translate(840.625 0)"/>
     <use xlink:href="#DejaVuSans-Bold-61" transform="translate(889.941406 0)"/>
     <use xlink:href="#DejaVuSans-Bold-67" transform="translate(957.421875 0)"/>
     <use xlink:href="#DejaVuSans-Bold-65" transform="translate(1029.003906 0)"/>
     <use xlink:href="#DejaVuSans-Bold-20" transform="translate(1096.826172 0)"/>
     <use xlink:href="#DejaVuSans-Bold-72" transform="translate(1131.640625 0)"/>
     <use xlink:href="#DejaVuSans-Bold-61" transform="translate(1180.957031 0)"/>
     <use xlink:href="#DejaVuSans-Bold-74" transform="translate(1248.4375 0)"/>
     <use xlink:href="#DejaVuSans-Bold-69" transform="translate(1296.240234 0)"/>
     <use xlink:href="#DejaVuSans-Bold-6f" transform="translate(1330.517578 0)"/>
     <use xlink:href="#DejaVuSans-Bold-20" transform="translate(1399.21875 0)"/>
     <use xlink:href="#DejaVuSans-Bold-2014" transform="translate(1434.033203 0)"/>
     <use xlink:href="#DejaVuSans-Bold-20" transform="translate(1534.033203 0)"/>
     <use xlink:href="#DejaVuSans-Bold-6e" transform="translate(1568.847656 0)"/>
     <use xlink:href="#DejaVuSans-Bold-6f" transform="translate(1640.039062 0)"/>
     <use xlink:href="#DejaVuSans-Bold-74" transform="translate(1708.740234 0)"/>
     <use xlink:href="#DejaVuSans-Bold-69" transform="translate(1756.542969 0)"/>
     <use xlink:href="#DejaVuSans-Bold-66" transform="translate(1790.820312 0)"/>
     <use xlink:href="#DejaVuSans-Bold-69" transform="translate(1834.326172 0)"/>
     <use xlink:href="#DejaVuSans-Bold-63" transform="translate(1868.603516 0)"/>
     <use xlink:href="#DejaVuSans-Bold-61" transform="translate(1927.880859 0)"/>
     <use xlink:href="#DejaVuSans-Bold-74" transform="translate(1995.361328 0)"/>
     <use xlink:href="#DejaVuSans-Bold-69" transform="translate(2043.164062 0)"/>
     <use xlink:href="#DejaVuSans-Bold-6f" transform="translate(2077.441406 0)"/>
     <use xlink:href="#DejaVuSans-Bold-6e" transform="translate(2146.142578 0)"/>
     <use xlink:href="#DejaVuSans-Bold-20" transform="translate(2217.333984 0)"/>
     <use xlink:href="#DejaVuSans-Bold-74" transform="translate(2252.148438 0)"/>
     <use xlink:href="#DejaVuSans-Bold-68" transform="translate(2299.951172 0)"/>
     <use xlink:href="#DejaVuSans-Bold-72" transform="translate(2371.142578 0)"/>
     <use xlink:href="#DejaVuSans-Bold-65" transform="translate(2420.458984 0)"/>
     <use xlink:href="#DejaVuSans-Bold-73" transform="translate(2488.28125 0)"/>
     <use xlink:href="#DejaVuSans-Bold-68" transform="translate(2547.802734 0)"/>
     <use xlink:href="#DejaVuSans-Bold-6f" transform="translate(2618.994141 0)"/>
     <use xlink:href="#DejaVuSans-Bold-6c" transform="translate(2687.695312 0)"/>
     <use xlink:href="#DejaVuSans-Bold-64" transform="translate(2721.972656 0)"/>
     <use xlink:href="#DejaVuSans-Bold-73" transform="translate(2793.554688 0)"/>
    </g>
   </g>
   <g id="legend_1">
    <g id="patch_9">
     <path d="M 122.167188 253.680037 
L 142.167188 253.680037 
L 142.167188 246.680037 
L 122.167188 246.680037 
z
" style="fill: #f7768e; stroke: #0f1419; stroke-linejoin: miter"/>
    </g>
    <g id="text_11">
     <!-- Margin call · CCR &lt; 110% — enforcement action -->
     <g style="fill: #e6edf3" transform="translate(150.167188 253.680037) scale(0.1 -0.1)">
      <defs>
       <path id="DejaVuSans-4d" d="M 628 4666 
L 1569 4666 
L 2759 1491 
L 3956 4666 
L 4897 4666 
L 4897 0 
L 4281 0 
L 4281 4097 
L 3078 897 
L 2444 897 
L 1241 4097 
L 1241 0 
L 628 0 
L 628 4666 
z
" transform="scale(0.015625)"/>
       <path id="DejaVuSans-61" d="M 2194 1759 
Q 1497 1759 1228 1600 
Q 959 1441 959 1056 
Q 959 750 1161 570 
Q 1363 391 1709 391 
Q 2188 391 2477 730 
Q 2766 1069 2766 1631 
L 2766 1759 
L 2194 1759 
z
M 3341 1997 
L 3341 0 
L 2766 0 
L 2766 531 
Q 2569 213 2275 61 
Q 1981 -91 1556 -91 
Q 1019 -91 701 211 
Q 384 513 384 1019 
Q 384 1609 779 1909 
Q 1175 2209 1959 2209 
L 2766 2209 
L 2766 2266 
Q 2766 2663 2505 2880 
Q 2244 3097 1772 3097 
Q 1472 3097 1187 3025 
Q 903 2953 641 2809 
L 641 3341 
Q 956 3463 1253 3523 
Q 1550 3584 1831 3584 
Q 2591 3584 2966 3190 
Q 3341 2797 3341 1997 
z
" transform="scale(0.015625)"/>
       <path id="DejaVuSans-72" d="M 2631 2963 
Q 2534 3019 2420 3045 
Q 2306 3072 2169 3072 
Q 1681 3072 1420 2755 
Q 1159 2438 1159 1844 
L 1159 0 
L 581 0 
L 581 3500 
L 1159 3500 
L 1159 2956 
Q 1341 3275 1631 3429 
Q 1922 3584 2338 3584 
Q 2397 3584 2469 3576 
Q 2541 3569 2628 3553 
L 2631 2963 
z
" transform="scale(0.015625)"/>
       <path id="DejaVuSans-67" d="M 2906 1791 
Q 2906 2416 2648 2759 
Q 2391 3103 1925 3103 
Q 1463 3103 1205 2759 
Q 947 2416 947 1791 
Q 947 1169 1205 825 
Q 1463 481 1925 481 
Q 2391 481 2648 825 
Q 2906 1169 2906 1791 
z
M 3481 434 
Q 3481 -459 3084 -895 
Q 2688 -1331 1869 -1331 
Q 1566 -1331 1297 -1286 
Q 1028 -1241 775 -1147 
L 775 -588 
Q 1028 -725 1275 -790 
Q 1522 -856 1778 -856 
Q 2344 -856 2625 -561 
Q 2906 -266 2906 331 
L 2906 616 
Q 2728 306 2450 153 
Q 2172 0 1784 0 
Q 1141 0 747 490 
Q 353 981 353 1791 
Q 353 2603 747 3093 
Q 1141 3584 1784 3584 
Q 2172 3584 2450 3431 
Q 2728 3278 2906 2969 
L 2906 3500 
L 3481 3500 
L 3481 434 
z
" transform="scale(0.015625)"/>
       <path id="DejaVuSans-69" d="M 603 3500 
L 1178 3500 
L 1178 0 
L 603 0 
L 603 3500 
z
M 603 4863 
L 1178 4863 
L 1178 4134 
L 603 4134 
L 603 4863 
z
" transform="scale(0.015625)"/>
       <path id="DejaVuSans-6e" d="M 3513 2113 
L 3513 0 
L 2938 0 
L 2938 2094 
Q 2938 2591 2744 2837 
Q 2550 3084 2163 3084 
Q 1697 3084 1428 2787 
Q 1159 2491 1159 1978 
L 1159 0 
L 581 0 
L 581 3500 
L 1159 3500 
L 1159 2956 
Q 1366 3272 1645 3428 
Q 1925 3584 2291 3584 
Q 2894 3584 3203 3211 
Q 3513 2838 3513 2113 
z
" transform="scale(0.015625)"/>
       <path id="DejaVuSans-20" transform="scale(0.015625)"/>
       <path id="DejaVuSans-63" d="M 3122 3366 
L 3122 2828 
Q 2878 2963 2633 3030 
Q 2388 3097 2138 3097 
Q 1578 3097 1268 2742 
Q 959 2388 959 1747 
Q 959 1106 1268 751 
Q 1578 397 2138 397 
Q 2388 397 2633 464 
Q 2878 531 3122 666 
L 3122 134 
Q 2881 22 2623 -34 
Q 2366 -91 2075 -91 
Q 1284 -91 818 406 
Q 353 903 353 1747 
Q 353 2603 823 3093 
Q 1294 3584 2113 3584 
Q 2378 3584 2631 3529 
Q 2884 3475 3122 3366 
z
" transform="scale(0.015625)"/>
       <path id="DejaVuSans-6c" d="M 603 4863 
L 1178 4863 
L 1178 0 
L 603 0 
L 603 4863 
z
" transform="scale(0.015625)"/>
       <path id="DejaVuSans-b7" d="M 684 2619 
L 1344 2619 
L 1344 1825 
L 684 1825 
L 684 2619 
z
" transform="scale(0.015625)"/>
       <path id="DejaVuSans-43" d="M 4122 4306 
L 4122 3641 
Q 3803 3938 3442 4084 
Q 3081 4231 2675 4231 
Q 1875 4231 1450 3742 
Q 1025 3253 1025 2328 
Q 1025 1406 1450 917 
Q 1875 428 2675 428 
Q 3081 428 3442 575 
Q 3803 722 4122 1019 
L 4122 359 
Q 3791 134 3420 21 
Q 3050 -91 2638 -91 
Q 1578 -91 968 557 
Q 359 1206 359 2328 
Q 359 3453 968 4101 
Q 1578 4750 2638 4750 
Q 3056 4750 3426 4639 
Q 3797 4528 4122 4306 
z
" transform="scale(0.015625)"/>
       <path id="DejaVuSans-52" d="M 2841 2188 
Q 3044 2119 3236 1894 
Q 3428 1669 3622 1275 
L 4263 0 
L 3584 0 
L 2988 1197 
Q 2756 1666 2539 1819 
Q 2322 1972 1947 1972 
L 1259 1972 
L 1259 0 
L 628 0 
L 628 4666 
L 2053 4666 
Q 2853 4666 3247 4331 
Q 3641 3997 3641 3322 
Q 3641 2881 3436 2590 
Q 3231 2300 2841 2188 
z
M 1259 4147 
L 1259 2491 
L 2053 2491 
Q 2509 2491 2742 2702 
Q 2975 2913 2975 3322 
Q 2975 3731 2742 3939 
Q 2509 4147 2053 4147 
L 1259 4147 
z
" transform="scale(0.015625)"/>
       <path id="DejaVuSans-3c" d="M 4684 3150 
L 1459 2003 
L 4684 863 
L 4684 294 
L 678 1747 
L 678 2266 
L 4684 3719 
L 4684 3150 
z
" transform="scale(0.015625)"/>
       <path id="DejaVuSans-2014" d="M 313 1978 
L 6088 1978 
L 6088 1528 
L 313 1528 
L 313 1978 
z
" transform="scale(0.015625)"/>
       <path id="DejaVuSans-65" d="M 3597 1894 
L 3597 1613 
L 953 1613 
Q 991 1019 1311 708 
Q 1631 397 2203 397 
Q 2534 397 2845 478 
Q 3156 559 3463 722 
L 3463 178 
Q 3153 47 2828 -22 
Q 2503 -91 2169 -91 
Q 1331 -91 842 396 
Q 353 884 353 1716 
Q 353 2575 817 3079 
Q 1281 3584 2069 3584 
Q 2775 3584 3186 3129 
Q 3597 2675 3597 1894 
z
M 3022 2063 
Q 3016 2534 2758 2815 
Q 2500 3097 2075 3097 
Q 1594 3097 1305 2825 
Q 1016 2553 972 2059 
L 3022 2063 
z
" transform="scale(0.015625)"/>
       <path id="DejaVuSans-66" d="M 2375 4863 
L 2375 4384 
L 1825 4384 
Q 1516 4384 1395 4259 
Q 1275 4134 1275 3809 
L 1275 3500 
L 2222 3500 
L 2222 3053 
L 1275 3053 
L 1275 0 
L 697 0 
L 697 3053 
L 147 3053 
L 147 3500 
L 697 3500 
L 697 3744 
Q 697 4328 969 4595 
Q 1241 4863 1831 4863 
L 2375 4863 
z
" transform="scale(0.015625)"/>
       <path id="DejaVuSans-6f" d="M 1959 3097 
Q 1497 3097 1228 2736 
Q 959 2375 959 1747 
Q 959 1119 1226 758 
Q 1494 397 1959 397 
Q 2419 397 2687 759 
Q 2956 1122 2956 1747 
Q 2956 2369 2687 2733 
Q 2419 3097 1959 3097 
z
M 1959 3584 
Q 2709 3584 3137 3096 
Q 3566 2609 3566 1747 
Q 3566 888 3137 398 
Q 2709 -91 1959 -91 
Q 1206 -91 779 398 
Q 353 888 353 1747 
Q 353 2609 779 3096 
Q 1206 3584 1959 3584 
z
" transform="scale(0.015625)"/>
       <path id="DejaVuSans-6d" d="M 3328 2828 
Q 3544 3216 3844 3400 
Q 4144 3584 4550 3584 
Q 5097 3584 5394 3201 
Q 5691 2819 5691 2113 
L 5691 0 
L 5113 0 
L 5113 2094 
Q 5113 2597 4934 2840 
Q 4756 3084 4391 3084 
Q 3944 3084 3684 2787 
Q 3425 2491 3425 1978 
L 3425 0 
L 2847 0 
L 2847 2094 
Q 2847 2600 2669 2842 
Q 2491 3084 2119 3084 
Q 1678 3084 1418 2786 
Q 1159 2488 1159 1978 
L 1159 0 
L 581 0 
L 581 3500 
L 1159 3500 
L 1159 2956 
Q 1356 3278 1631 3431 
Q 1906 3584 2284 3584 
Q 2666 3584 2933 3390 
Q 3200 3197 3328 2828 
z
" transform="scale(0.015625)"/>
       <path id="DejaVuSans-74" d="M 1172 4494 
L 1172 3500 
L 2356 3500 
L 2356 3053 
L 1172 3053 
L 1172 1153 
Q 1172 725 1289 603 
Q 1406 481 1766 481 
L 2356 481 
L 2356 0 
L 1766 0 
Q 1100 0 847 248 
Q 594 497 594 1153 
L 594 3053 
L 172 3053 
L 172 3500 
L 594 3500 
L 594 4494 
L 1172 4494 
z
" transform="scale(0.015625)"/>
      </defs>
      <use xlink:href="#DejaVuSans-4d"/>
      <use xlink:href="#DejaVuSans-61" transform="translate(86.279297 0)"/>
      <use xlink:href="#DejaVuSans-72" transform="translate(147.558594 0)"/>
      <use xlink:href="#DejaVuSans-67" transform="translate(186.921875 0)"/>
      <use xlink:href="#DejaVuSans-69" transform="translate(250.398438 0)"/>
      <use xlink:href="#DejaVuSans-6e" transform="translate(278.181641 0)"/>
      <use xlink:href="#DejaVuSans-20" transform="translate(341.560547 0)"/>
      <use xlink:href="#DejaVuSans-63" transform="translate(373.347656 0)"/>
      <use xlink:href="#DejaVuSans-61" transform="translate(428.328125 0)"/>
      <use xlink:href="#DejaVuSans-6c" transform="translate(489.607422 0)"/>
      <use xlink:href="#DejaVuSans-6c" transform="translate(517.390625 0)"/>
      <use xlink:href="#DejaVuSans-20" transform="translate(545.173828 0)"/>
      <use xlink:href="#DejaVuSans-b7" transform="translate(576.960938 0)"/>
      <use xlink:href="#DejaVuSans-20" transform="translate(608.748047 0)"/>
      <use xlink:href="#DejaVuSans-43" transform="translate(640.535156 0)"/>
      <use xlink:href="#DejaVuSans-43" transform="translate(710.359375 0)"/>
      <use xlink:href="#DejaVuSans-52" transform="translate(780.183594 0)"/>
      <use xlink:href="#DejaVuSans-20" transform="translate(849.666016 0)"/>
      <use xlink:href="#DejaVuSans-3c" transform="translate(881.453125 0)"/>
      <use xlink:href="#DejaVuSans-20" transform="translate(965.242188 0)"/>
      <use xlink:href="#DejaVuSans-31" transform="translate(997.029297 0)"/>
      <use xlink:href="#DejaVuSans-31" transform="translate(1060.652344 0)"/>
      <use xlink:href="#DejaVuSans-30" transform="translate(1124.275391 0)"/>
      <use xlink:href="#DejaVuSans-25" transform="translate(1187.898438 0)"/>
      <use xlink:href="#DejaVuSans-20" transform="translate(1282.917969 0)"/>
      <use xlink:href="#DejaVuSans-2014" transform="translate(1314.705078 0)"/>
      <use xlink:href="#DejaVuSans-20" transform="translate(1414.705078 0)"/>
      <use xlink:href="#DejaVuSans-65" transform="translate(1446.492188 0)"/>
      <use xlink:href="#DejaVuSans-6e" transform="translate(1508.015625 0)"/>
      <use xlink:href="#DejaVuSans-66" transform="translate(1571.394531 0)"/>
      <use xlink:href="#DejaVuSans-6f" transform="translate(1606.599609 0)"/>
      <use xlink:href="#DejaVuSans-72" transform="translate(1667.78125 0)"/>
      <use xlink:href="#DejaVuSans-63" transform="translate(1706.644531 0)"/>
      <use xlink:href="#DejaVuSans-65" transform="translate(1761.625 0)"/>
      <use xlink:href="#DejaVuSans-6d" transform="translate(1823.148438 0)"/>
      <use xlink:href="#DejaVuSans-65" transform="translate(1920.560547 0)"/>
      <use xlink:href="#DejaVuSans-6e" transform="translate(1982.083984 0)"/>
      <use xlink:href="#DejaVuSans-74" transform="translate(2045.462891 0)"/>
      <use xlink:href="#DejaVuSans-20" transform="translate(2084.671875 0)"/>
      <use xlink:href="#DejaVuSans-61" transform="translate(2116.458984 0)"/>
      <use xlink:href="#DejaVuSans-63" transform="translate(2177.738281 0)"/>
      <use xlink:href="#DejaVuSans-74" transform="translate(2232.71875 0)"/>
      <use xlink:href="#DejaVuSans-69" transform="translate(2271.927734 0)"/>
      <use xlink:href="#DejaVuSans-6f" transform="translate(2299.710938 0)"/>
      <use xlink:href="#DejaVuSans-6e" transform="translate(2360.892578 0)"/>
     </g>
    </g>
    <g id="patch_10">
     <path d="M 122.167188 268.358162 
L 142.167188 268.358162 
L 142.167188 261.358162 
L 122.167188 261.358162 
z
" style="fill: #e0af68; stroke: #0f1419; stroke-linejoin: miter"/>
    </g>
    <g id="text_12">
     <!-- Maintenance margin call · CCR &lt; 120% — top-up request -->
     <g style="fill: #e6edf3" transform="translate(150.167188 268.358162) scale(0.1 -0.1)">
      <defs>
       <path id="DejaVuSans-32" d="M 1228 531 
L 3431 531 
L 3431 0 
L 469 0 
L 469 531 
Q 828 903 1448 1529 
Q 2069 2156 2228 2338 
Q 2531 2678 2651 2914 
Q 2772 3150 2772 3378 
Q 2772 3750 2511 3984 
Q 2250 4219 1831 4219 
Q 1534 4219 1204 4116 
Q 875 4013 500 3803 
L 500 4441 
Q 881 4594 1212 4672 
Q 1544 4750 1819 4750 
Q 2544 4750 2975 4387 
Q 3406 4025 3406 3419 
Q 3406 3131 3298 2873 
Q 3191 2616 2906 2266 
Q 2828 2175 2409 1742 
Q 1991 1309 1228 531 
z
" transform="scale(0.015625)"/>
       <path id="DejaVuSans-70" d="M 1159 525 
L 1159 -1331 
L 581 -1331 
L 581 3500 
L 1159 3500 
L 1159 2969 
Q 1341 3281 1617 3432 
Q 1894 3584 2278 3584 
Q 2916 3584 3314 3078 
Q 3713 2572 3713 1747 
Q 3713 922 3314 415 
Q 2916 -91 2278 -91 
Q 1894 -91 1617 61 
Q 1341 213 1159 525 
z
M 3116 1747 
Q 3116 2381 2855 2742 
Q 2594 3103 2138 3103 
Q 1681 3103 1420 2742 
Q 1159 2381 1159 1747 
Q 1159 1113 1420 752 
Q 1681 391 2138 391 
Q 2594 391 2855 752 
Q 3116 1113 3116 1747 
z
" transform="scale(0.015625)"/>
       <path id="DejaVuSans-2d" d="M 313 2009 
L 1997 2009 
L 1997 1497 
L 313 1497 
L 313 2009 
z
" transform="scale(0.015625)"/>
       <path id="DejaVuSans-75" d="M 544 1381 
L 544 3500 
L 1119 3500 
L 1119 1403 
Q 1119 906 1312 657 
Q 1506 409 1894 409 
Q 2359 409 2629 706 
Q 2900 1003 2900 1516 
L 2900 3500 
L 3475 3500 
L 3475 0 
L 2900 0 
L 2900 538 
Q 2691 219 2414 64 
Q 2138 -91 1772 -91 
Q 1169 -91 856 284 
Q 544 659 544 1381 
z
M 1991 3584 
L 1991 3584 
z
" transform="scale(0.015625)"/>
       <path id="DejaVuSans-71" d="M 947 1747 
Q 947 1113 1208 752 
Q 1469 391 1925 391 
Q 2381 391 2643 752 
Q 2906 1113 2906 1747 
Q 2906 2381 2643 2742 
Q 2381 3103 1925 3103 
Q 1469 3103 1208 2742 
Q 947 2381 947 1747 
z
M 2906 525 
Q 2725 213 2448 61 
Q 2172 -91 1784 -91 
Q 1150 -91 751 415 
Q 353 922 353 1747 
Q 353 2572 751 3078 
Q 1150 3584 1784 3584 
Q 2172 3584 2448 3432 
Q 2725 3281 2906 2969 
L 2906 3500 
L 3481 3500 
L 3481 -1331 
L 2906 -1331 
L 2906 525 
z
" transform="scale(0.015625)"/>
       <path id="DejaVuSans-73" d="M 2834 3397 
L 2834 2853 
Q 2591 2978 2328 3040 
Q 2066 3103 1784 3103 
Q 1356 3103 1142 2972 
Q 928 2841 928 2578 
Q 928 2378 1081 2264 
Q 1234 2150 1697 2047 
L 1894 2003 
Q 2506 1872 2764 1633 
Q 3022 1394 3022 966 
Q 3022 478 2636 193 
Q 2250 -91 1575 -91 
Q 1294 -91 989 -36 
Q 684 19 347 128 
L 347 722 
Q 666 556 975 473 
Q 1284 391 1588 391 
Q 1994 391 2212 530 
Q 2431 669 2431 922 
Q 2431 1156 2273 1281 
Q 2116 1406 1581 1522 
L 1381 1569 
Q 847 1681 609 1914 
Q 372 2147 372 2553 
Q 372 3047 722 3315 
Q 1072 3584 1716 3584 
Q 2034 3584 2315 3537 
Q 2597 3491 2834 3397 
z
" transform="scale(0.015625)"/>
      </defs>
      <use xlink:href="#DejaVuSans-4d"/>
      <use xlink:href="#DejaVuSans-61" transform="translate(86.279297 0)"/>
      <use xlink:href="#DejaVuSans-69" transform="translate(147.558594 0)"/>
      <use xlink:href="#DejaVuSans-6e" transform="translate(175.341797 0)"/>
      <use xlink:href="#DejaVuSans-74" transform="translate(238.720703 0)"/>
      <use xlink:href="#DejaVuSans-65" transform="translate(277.929688 0)"/>
      <use xlink:href="#DejaVuSans-6e" transform="translate(339.453125 0)"/>
      <use xlink:href="#DejaVuSans-61" transform="translate(402.832031 0)"/>
      <use xlink:href="#DejaVuSans-6e" transform="translate(464.111328 0)"/>
      <use xlink:href="#DejaVuSans-63" transform="translate(527.490234 0)"/>
      <use xlink:href="#DejaVuSans-65" transform="translate(582.470703 0)"/>
      <use xlink:href="#DejaVuSans-20" transform="translate(643.994141 0)"/>
      <use xlink:href="#DejaVuSans-6d" transform="translate(675.78125 0)"/>
      <use xlink:href="#DejaVuSans-61" transform="translate(773.193359 0)"/>
      <use xlink:href="#DejaVuSans-72" transform="translate(834.472656 0)"/>
      <use xlink:href="#DejaVuSans-67" transform="translate(873.835938 0)"/>
      <use xlink:href="#DejaVuSans-69" transform="translate(937.3125 0)"/>
      <use xlink:href="#DejaVuSans-6e" transform="translate(965.095703 0)"/>
      <use xlink:href="#DejaVuSans-20" transform="translate(1028.474609 0)"/>
      <use xlink:href="#DejaVuSans-63" transform="translate(1060.261719 0)"/>
      <use xlink:href="#DejaVuSans-61" transform="translate(1115.242188 0)"/>
      <use xlink:href="#DejaVuSans-6c" transform="translate(1176.521484 0)"/>
      <use xlink:href="#DejaVuSans-6c" transform="translate(1204.304688 0)"/>
      <use xlink:href="#DejaVuSans-20" transform="translate(1232.087891 0)"/>
      <use xlink:href="#DejaVuSans-b7" transform="translate(1263.875 0)"/>
      <use xlink:href="#DejaVuSans-20" transform="translate(1295.662109 0)"/>
      <use xlink:href="#DejaVuSans-43" transform="translate(1327.449219 0)"/>
      <use xlink:href="#DejaVuSans-43" transform="translate(1397.273438 0)"/>
      <use xlink:href="#DejaVuSans-52" transform="translate(1467.097656 0)"/>
      <use xlink:href="#DejaVuSans-20" transform="translate(1536.580078 0)"/>
      <use xlink:href="#DejaVuSans-3c" transform="translate(1568.367188 0)"/>
      <use xlink:href="#DejaVuSans-20" transform="translate(1652.15625 0)"/>
      <use xlink:href="#DejaVuSans-31" transform="translate(1683.943359 0)"/>
      <use xlink:href="#DejaVuSans-32" transform="translate(1747.566406 0)"/>
      <use xlink:href="#DejaVuSans-30" transform="translate(1811.189453 0)"/>
      <use xlink:href="#DejaVuSans-25" transform="translate(1874.8125 0)"/>
      <use xlink:href="#DejaVuSans-20" transform="translate(1969.832031 0)"/>
      <use xlink:href="#DejaVuSans-2014" transform="translate(2001.619141 0)"/>
      <use xlink:href="#DejaVuSans-20" transform="translate(2101.619141 0)"/>
      <use xlink:href="#DejaVuSans-74" transform="translate(2133.40625 0)"/>
      <use xlink:href="#DejaVuSans-6f" transform="translate(2172.615234 0)"/>
      <use xlink:href="#DejaVuSans-70" transform="translate(2233.796875 0)"/>
      <use xlink:href="#DejaVuSans-2d" transform="translate(2297.273438 0)"/>
      <use xlink:href="#DejaVuSans-75" transform="translate(2333.357422 0)"/>
      <use xlink:href="#DejaVuSans-70" transform="translate(2396.736328 0)"/>
      <use xlink:href="#DejaVuSans-20" transform="translate(2460.212891 0)"/>
      <use xlink:href="#DejaVuSans-72" transform="translate(2492 0)"/>
      <use xlink:href="#DejaVuSans-65" transform="translate(2530.863281 0)"/>
      <use xlink:href="#DejaVuSans-71" transform="translate(2592.386719 0)"/>
      <use xlink:href="#DejaVuSans-75" transform="translate(2655.863281 0)"/>
      <use xlink:href="#DejaVuSans-65" transform="translate(2719.242188 0)"/>
      <use xlink:href="#DejaVuSans-73" transform="translate(2780.765625 0)"/>
      <use xlink:href="#DejaVuSans-74" transform="translate(2832.865234 0)"/>
     </g>
    </g>
    <g id="patch_11">
     <path d="M 457.371875 253.680037 
L 477.371875 253.680037 
L 477.371875 246.680037 
L 457.371875 246.680037 
z
" style="fill: #e0af68; stroke: #0f1419; stroke-linejoin: miter"/>
    </g>
    <g id="text_13">
     <!-- Watchlist · CCR &lt; 130% — early warning -->
     <g style="fill: #e6edf3" transform="translate(485.371875 253.680037) scale(0.1 -0.1)">
      <defs>
       <path id="DejaVuSans-57" d="M 213 4666 
L 850 4666 
L 1831 722 
L 2809 4666 
L 3519 4666 
L 4500 722 
L 5478 4666 
L 6119 4666 
L 4947 0 
L 4153 0 
L 3169 4050 
L 2175 0 
L 1381 0 
L 213 4666 
z
" transform="scale(0.015625)"/>
       <path id="DejaVuSans-68" d="M 3513 2113 
L 3513 0 
L 2938 0 
L 2938 2094 
Q 2938 2591 2744 2837 
Q 2550 3084 2163 3084 
Q 1697 3084 1428 2787 
Q 1159 2491 1159 1978 
L 1159 0 
L 581 0 
L 581 4863 
L 1159 4863 
L 1159 2956 
Q 1366 3272 1645 3428 
Q 1925 3584 2291 3584 
Q 2894 3584 3203 3211 
Q 3513 2838 3513 2113 
z
" transform="scale(0.015625)"/>
       <path id="DejaVuSans-33" d="M 2597 2516 
Q 3050 2419 3304 2112 
Q 3559 1806 3559 1356 
Q 3559 666 3084 287 
Q 2609 -91 1734 -91 
Q 1441 -91 1130 -33 
Q 819 25 488 141 
L 488 750 
Q 750 597 1062 519 
Q 1375 441 1716 441 
Q 2309 441 2620 675 
Q 2931 909 2931 1356 
Q 2931 1769 2642 2001 
Q 2353 2234 1838 2234 
L 1294 2234 
L 1294 2753 
L 1863 2753 
Q 2328 2753 2575 2939 
Q 2822 3125 2822 3475 
Q 2822 3834 2567 4026 
Q 2313 4219 1838 4219 
Q 1578 4219 1281 4162 
Q 984 4106 628 3988 
L 628 4550 
Q 988 4650 1302 4700 
Q 1616 4750 1894 4750 
Q 2613 4750 3031 4423 
Q 3450 4097 3450 3541 
Q 3450 3153 3228 2886 
Q 3006 2619 2597 2516 
z
" transform="scale(0.015625)"/>
       <path id="DejaVuSans-79" d="M 2059 -325 
Q 1816 -950 1584 -1140 
Q 1353 -1331 966 -1331 
L 506 -1331 
L 506 -850 
L 844 -850 
Q 1081 -850 1212 -737 
Q 1344 -625 1503 -206 
L 1606 56 
L 191 3500 
L 800 3500 
L 1894 763 
L 2988 3500 
L 3597 3500 
L 2059 -325 
z
" transform="scale(0.015625)"/>
       <path id="DejaVuSans-77" d="M 269 3500 
L 844 3500 
L 1563 769 
L 2278 3500 
L 2956 3500 
L 3675 769 
L 4391 3500 
L 4966 3500 
L 4050 0 
L 3372 0 
L 2619 2869 
L 1863 0 
L 1184 0 
L 269 3500 
z
" transform="scale(0.015625)"/>
      </defs>
      <use xlink:href="#DejaVuSans-57"/>
      <use xlink:href="#DejaVuSans-61" transform="translate(92.501953 0)"/>
      <use xlink:href="#DejaVuSans-74" transform="translate(153.78125 0)"/>
      <use xlink:href="#DejaVuSans-63" transform="translate(192.990234 0)"/>
      <use xlink:href="#DejaVuSans-68" transform="translate(247.970703 0)"/>
      <use xlink:href="#DejaVuSans-6c" transform="translate(311.349609 0)"/>
      <use xlink:href="#DejaVuSans-69" transform="translate(339.132812 0)"/>
      <use xlink:href="#DejaVuSans-73" transform="translate(366.916016 0)"/>
      <use xlink:href="#DejaVuSans-74" transform="translate(419.015625 0)"/>
      <use xlink:href="#DejaVuSans-20" transform="translate(458.224609 0)"/>
      <use xlink:href="#DejaVuSans-b7" transform="translate(490.011719 0)"/>
      <use xlink:href="#DejaVuSans-20" transform="translate(521.798828 0)"/>
      <use xlink:href="#DejaVuSans-43" transform="translate(553.585938 0)"/>
      <use xlink:href="#DejaVuSans-43" transform="translate(623.410156 0)"/>
      <use xlink:href="#DejaVuSans-52" transform="translate(693.234375 0)"/>
      <use xlink:href="#DejaVuSans-20" transform="translate(762.716797 0)"/>
      <use xlink:href="#DejaVuSans-3c" transform="translate(794.503906 0)"/>
      <use xlink:href="#DejaVuSans-20" transform="translate(878.292969 0)"/>
      <use xlink:href="#DejaVuSans-31" transform="translate(910.080078 0)"/>
      <use xlink:href="#DejaVuSans-33" transform="translate(973.703125 0)"/>
      <use xlink:href="#DejaVuSans-30" transform="translate(1037.326172 0)"/>
      <use xlink:href="#DejaVuSans-25" transform="translate(1100.949219 0)"/>
      <use xlink:href="#DejaVuSans-20" transform="translate(1195.96875 0)"/>
      <use xlink:href="#DejaVuSans-2014" transform="translate(1227.755859 0)"/>
      <use xlink:href="#DejaVuSans-20" transform="translate(1327.755859 0)"/>
      <use xlink:href="#DejaVuSans-65" transform="translate(1359.542969 0)"/>
      <use xlink:href="#DejaVuSans-61" transform="translate(1421.066406 0)"/>
      <use xlink:href="#DejaVuSans-72" transform="translate(1482.345703 0)"/>
      <use xlink:href="#DejaVuSans-6c" transform="translate(1523.458984 0)"/>
      <use xlink:href="#DejaVuSans-79" transform="translate(1551.242188 0)"/>
      <use xlink:href="#DejaVuSans-20" transform="translate(1610.421875 0)"/>
      <use xlink:href="#DejaVuSans-77" transform="translate(1642.208984 0)"/>
      <use xlink:href="#DejaVuSans-61" transform="translate(1723.996094 0)"/>
      <use xlink:href="#DejaVuSans-72" transform="translate(1785.275391 0)"/>
      <use xlink:href="#DejaVuSans-6e" transform="translate(1824.638672 0)"/>
      <use xlink:href="#DejaVuSans-69" transform="translate(1888.017578 0)"/>
      <use xlink:href="#DejaVuSans-6e" transform="translate(1915.800781 0)"/>
      <use xlink:href="#DejaVuSans-67" transform="translate(1979.179688 0)"/>
     </g>
    </g>
    <g id="patch_12">
     <path d="M 457.371875 268.358162 
L 477.371875 268.358162 
L 477.371875 261.358162 
L 457.371875 261.358162 
z
" style="fill: #9ece6a; stroke: #0f1419; stroke-linejoin: miter"/>
    </g>
    <g id="text_14">
     <!-- Healthy · CCR ≥ 130% -->
     <g style="fill: #e6edf3" transform="translate(485.371875 268.358162) scale(0.1 -0.1)">
      <defs>
       <path id="DejaVuSans-48" d="M 628 4666 
L 1259 4666 
L 1259 2753 
L 3553 2753 
L 3553 4666 
L 4184 4666 
L 4184 0 
L 3553 0 
L 3553 2222 
L 1259 2222 
L 1259 0 
L 628 0 
L 628 4666 
z
" transform="scale(0.015625)"/>
       <path id="DejaVuSans-2265" d="M 678 3175 
L 678 3725 
L 4684 2578 
L 4684 2047 
L 678 897 
L 678 1453 
L 3681 2309 
L 678 3175 
z
M 4684 531 
L 4684 0 
L 678 0 
L 678 531 
L 4684 531 
z
" transform="scale(0.015625)"/>
      </defs>
      <use xlink:href="#DejaVuSans-48"/>
      <use xlink:href="#DejaVuSans-65" transform="translate(75.195312 0)"/>
      <use xlink:href="#DejaVuSans-61" transform="translate(136.71875 0)"/>
      <use xlink:href="#DejaVuSans-6c" transform="translate(197.998047 0)"/>
      <use xlink:href="#DejaVuSans-74" transform="translate(225.78125 0)"/>
      <use xlink:href="#DejaVuSans-68" transform="translate(264.990234 0)"/>
      <use xlink:href="#DejaVuSans-79" transform="translate(328.369141 0)"/>
      <use xlink:href="#DejaVuSans-20" transform="translate(387.548828 0)"/>
      <use xlink:href="#DejaVuSans-b7" transform="translate(419.335938 0)"/>
      <use xlink:href="#DejaVuSans-20" transform="translate(451.123047 0)"/>
      <use xlink:href="#DejaVuSans-43" transform="translate(482.910156 0)"/>
      <use xlink:href="#DejaVuSans-43" transform="translate(552.734375 0)"/>
      <use xlink:href="#DejaVuSans-52" transform="translate(622.558594 0)"/>
      <use xlink:href="#DejaVuSans-20" transform="translate(692.041016 0)"/>
      <use xlink:href="#DejaVuSans-2265" transform="translate(723.828125 0)"/>
      <use xlink:href="#DejaVuSans-20" transform="translate(807.617188 0)"/>
      <use xlink:href="#DejaVuSans-31" transform="translate(839.404297 0)"/>
      <use xlink:href="#DejaVuSans-33" transform="translate(903.027344 0)"/>
      <use xlink:href="#DejaVuSans-30" transform="translate(966.650391 0)"/>
      <use xlink:href="#DejaVuSans-25" transform="translate(1030.273438 0)"/>
     </g>
    </g>
   </g>
  </g>
  <g id="text_15">
   <!-- CCR = collateral commodity value ÷ outstanding senior principal, as a percentage. -->
   <g style="fill: #8b949e" transform="translate(208.408359 325.153969) scale(0.09 -0.09)">
    <defs>
     <path id="DejaVuSans-3d" d="M 678 2906 
L 4684 2906 
L 4684 2381 
L 678 2381 
L 678 2906 
z
M 678 1631 
L 4684 1631 
L 4684 1100 
L 678 1100 
L 678 1631 
z
" transform="scale(0.015625)"/>
     <path id="DejaVuSans-64" d="M 2906 2969 
L 2906 4863 
L 3481 4863 
L 3481 0 
L 2906 0 
L 2906 525 
Q 2725 213 2448 61 
Q 2172 -91 1784 -91 
Q 1150 -91 751 415 
Q 353 922 353 1747 
Q 353 2572 751 3078 
Q 1150 3584 1784 3584 
Q 2172 3584 2448 3432 
Q 2725 3281 2906 2969 
z
M 947 1747 
Q 947 1113 1208 752 
Q 1469 391 1925 391 
Q 2381 391 2643 752 
Q 2906 1113 2906 1747 
Q 2906 2381 2643 2742 
Q 2381 3103 1925 3103 
Q 1469 3103 1208 2742 
Q 947 2381 947 1747 
z
" transform="scale(0.015625)"/>
     <path id="DejaVuSans-76" d="M 191 3500 
L 800 3500 
L 1894 563 
L 2988 3500 
L 3597 3500 
L 2284 0 
L 1503 0 
L 191 3500 
z
" transform="scale(0.015625)"/>
     <path id="DejaVuSans-f7" d="M 2297 3547 
L 3066 3547 
L 3066 2778 
L 2297 2778 
L 2297 3547 
z
M 2297 1234 
L 3066 1234 
L 3066 469 
L 2297 469 
L 2297 1234 
z
M 678 2272 
L 4684 2272 
L 4684 1741 
L 678 1741 
L 678 2272 
z
" transform="scale(0.015625)"/>
     <path id="DejaVuSans-2c" d="M 750 794 
L 1409 794 
L 1409 256 
L 897 -744 
L 494 -744 
L 750 256 
L 750 794 
z
" transform="scale(0.015625)"/>
     <path id="DejaVuSans-2e" d="M 684 794 
L 1344 794 
L 1344 0 
L 684 0 
L 684 794 
z
" transform="scale(0.015625)"/>
    </defs>
    <use xlink:href="#DejaVuSans-43"/>
    <use xlink:href="#DejaVuSans-43" transform="translate(69.824219 0)"/>
    <use xlink:href="#DejaVuSans-52" transform="translate(139.648438 0)"/>
    <use xlink:href="#DejaVuSans-20" transform="translate(209.130859 0)"/>
    <use xlink:href="#DejaVuSans-3d" transform="translate(240.917969 0)"/>
    <use xlink:href="#DejaVuSans-20" transform="translate(324.707031 0)"/>
    <use xlink:href="#DejaVuSans-63" transform="translate(356.494141 0)"/>
    <use xlink:href="#DejaVuSans-6f" transform="translate(411.474609 0)"/>
    <use xlink:href="#DejaVuSans-6c" transform="translate(472.65625 0)"/>
    <use xlink:href="#DejaVuSans-6c" transform="translate(500.439453 0)"/>
    <use xlink:href="#DejaVuSans-61" transform="translate(528.222656 0)"/>
    <use xlink:href="#DejaVuSans-74" transform="translate(589.501953 0)"/>
    <use xlink:href="#DejaVuSans-65" transform="translate(628.710938 0)"/>
    <use xlink:href="#DejaVuSans-72" transform="translate(690.234375 0)"/>
    <use xlink:href="#DejaVuSans-61" transform="translate(731.347656 0)"/>
    <use xlink:href="#DejaVuSans-6c" transform="translate(792.626953 0)"/>
    <use xlink:href="#DejaVuSans-20" transform="translate(820.410156 0)"/>
    <use xlink:href="#DejaVuSans-63" transform="translate(852.197266 0)"/>
    <use xlink:href="#DejaVuSans-6f" transform="translate(907.177734 0)"/>
    <use xlink:href="#DejaVuSans-6d" transform="translate(968.359375 0)"/>
    <use xlink:href="#DejaVuSans-6d" transform="translate(1065.771484 0)"/>
    <use xlink:href="#DejaVuSans-6f" transform="translate(1163.183594 0)"/>
    <use xlink:href="#DejaVuSans-64" transform="translate(1224.365234 0)"/>
    <use xlink:href="#DejaVuSans-69" transform="translate(1287.841797 0)"/>
    <use xlink:href="#DejaVuSans-74" transform="translate(1315.625 0)"/>
    <use xlink:href="#DejaVuSans-79" transform="translate(1354.833984 0)"/>
    <use xlink:href="#DejaVuSans-20" transform="translate(1414.013672 0)"/>
    <use xlink:href="#DejaVuSans-76" transform="translate(1445.800781 0)"/>
    <use xlink:href="#DejaVuSans-61" transform="translate(1504.980469 0)"/>
    <use xlink:href="#DejaVuSans-6c" transform="translate(1566.259766 0)"/>
    <use xlink:href="#DejaVuSans-75" transform="translate(1594.042969 0)"/>
    <use xlink:href="#DejaVuSans-65" transform="translate(1657.421875 0)"/>
    <use xlink:href="#DejaVuSans-20" transform="translate(1718.945312 0)"/>
    <use xlink:href="#DejaVuSans-f7" transform="translate(1750.732422 0)"/>
    <use xlink:href="#DejaVuSans-20" transform="translate(1834.521484 0)"/>
    <use xlink:href="#DejaVuSans-6f" transform="translate(1866.308594 0)"/>
    <use xlink:href="#DejaVuSans-75" transform="translate(1927.490234 0)"/>
    <use xlink:href="#DejaVuSans-74" transform="translate(1990.869141 0)"/>
    <use xlink:href="#DejaVuSans-73" transform="translate(2030.078125 0)"/>
    <use xlink:href="#DejaVuSans-74" transform="translate(2082.177734 0)"/>
    <use xlink:href="#DejaVuSans-61" transform="translate(2121.386719 0)"/>
    <use xlink:href="#DejaVuSans-6e" transform="translate(2182.666016 0)"/>
    <use xlink:href="#DejaVuSans-64" transform="translate(2246.044922 0)"/>
    <use xlink:href="#DejaVuSans-69" transform="translate(2309.521484 0)"/>
    <use xlink:href="#DejaVuSans-6e" transform="translate(2337.304688 0)"/>
    <use xlink:href="#DejaVuSans-67" transform="translate(2400.683594 0)"/>
    <use xlink:href="#DejaVuSans-20" transform="translate(2464.160156 0)"/>
    <use xlink:href="#DejaVuSans-73" transform="translate(2495.947266 0)"/>
    <use xlink:href="#DejaVuSans-65" transform="translate(2548.046875 0)"/>
    <use xlink:href="#DejaVuSans-6e" transform="translate(2609.570312 0)"/>
    <use xlink:href="#DejaVuSans-69" transform="translate(2672.949219 0)"/>
    <use xlink:href="#DejaVuSans-6f" transform="translate(2700.732422 0)"/>
    <use xlink:href="#DejaVuSans-72" transform="translate(2761.914062 0)"/>
    <use xlink:href="#DejaVuSans-20" transform="translate(2803.027344 0)"/>
    <use xlink:href="#DejaVuSans-70" transform="translate(2834.814453 0)"/>
    <use xlink:href="#DejaVuSans-72" transform="translate(2898.291016 0)"/>
    <use xlink:href="#DejaVuSans-69" transform="translate(2939.404297 0)"/>
    <use xlink:href="#DejaVuSans-6e" transform="translate(2967.1875 0)"/>
    <use xlink:href="#DejaVuSans-63" transform="translate(3030.566406 0)"/>
    <use xlink:href="#DejaVuSans-69" transform="translate(3085.546875 0)"/>
    <use xlink:href="#DejaVuSans-70" transform="translate(3113.330078 0)"/>
    <use xlink:href="#DejaVuSans-61" transform="translate(3176.806641 0)"/>
    <use xlink:href="#DejaVuSans-6c" transform="translate(3238.085938 0)"/>
    <use xlink:href="#DejaVuSans-2c" transform="translate(3265.869141 0)"/>
    <use xlink:href="#DejaVuSans-20" transform="translate(3297.65625 0)"/>
    <use xlink:href="#DejaVuSans-61" transform="translate(3329.443359 0)"/>
    <use xlink:href="#DejaVuSans-73" transform="translate(3390.722656 0)"/>
    <use xlink:href="#DejaVuSans-20" transform="translate(3442.822266 0)"/>
    <use xlink:href="#DejaVuSans-61" transform="translate(3474.609375 0)"/>
    <use xlink:href="#DejaVuSans-20" transform="translate(3535.888672 0)"/>
    <use xlink:href="#DejaVuSans-70" transform="translate(3567.675781 0)"/>
    <use xlink:href="#DejaVuSans-65" transform="translate(3631.152344 0)"/>
    <use xlink:href="#DejaVuSans-72" transform="translate(3692.675781 0)"/>
    <use xlink:href="#DejaVuSans-63" transform="translate(3731.539062 0)"/>
    <use xlink:href="#DejaVuSans-65" transform="translate(3786.519531 0)"/>
    <use xlink:href="#DejaVuSans-6e" transform="translate(3848.042969 0)"/>
    <use xlink:href="#DejaVuSans-74" transform="translate(3911.421875 0)"/>
    <use xlink:href="#DejaVuSans-61" transform="translate(3950.630859 0)"/>
    <use xlink:href="#DejaVuSans-67" transform="translate(4011.910156 0)"/>
    <use xlink:href="#DejaVuSans-65" transform="translate(4075.386719 0)"/>
    <use xlink:href="#DejaVuSans-2e" transform="translate(4136.910156 0)"/>
   </g>
   <!-- Thresholds are fixed by the credit framework — not live protocol data. Payment-delay amber/red: &gt;7 days / &gt;21 days late. -->
   <g style="fill: #8b949e" transform="translate(118.820391 335.232) scale(0.09 -0.09)">
    <defs>
     <path id="DejaVuSans-54" d="M -19 4666 
L 3928 4666 
L 3928 4134 
L 2272 4134 
L 2272 0 
L 1638 0 
L 1638 4134 
L -19 4134 
L -19 4666 
z
" transform="scale(0.015625)"/>
     <path id="DejaVuSans-78" d="M 3513 3500 
L 2247 1797 
L 3578 0 
L 2900 0 
L 1881 1375 
L 863 0 
L 184 0 
L 1544 1831 
L 300 3500 
L 978 3500 
L 1906 2253 
L 2834 3500 
L 3513 3500 
z
" transform="scale(0.015625)"/>
     <path id="DejaVuSans-62" d="M 3116 1747 
Q 3116 2381 2855 2742 
Q 2594 3103 2138 3103 
Q 1681 3103 1420 2742 
Q 1159 2381 1159 1747 
Q 1159 1113 1420 752 
Q 1681 391 2138 391 
Q 2594 391 2855 752 
Q 3116 1113 3116 1747 
z
M 1159 2969 
Q 1341 3281 1617 3432 
Q 1894 3584 2278 3584 
Q 2916 3584 3314 3078 
Q 3713 2572 3713 1747 
Q 3713 922 3314 415 
Q 2916 -91 2278 -91 
Q 1894 -91 1617 61 
Q 1341 213 1159 525 
L 1159 0 
L 581 0 
L 581 4863 
L 1159 4863 
L 1159 2969 
z
" transform="scale(0.015625)"/>
     <path id="DejaVuSans-6b" d="M 581 4863 
L 1159 4863 
L 1159 1991 
L 2875 3500 
L 3609 3500 
L 1753 1863 
L 3688 0 
L 2938 0 
L 1159 1709 
L 1159 0 
L 581 0 
L 581 4863 
z
" transform="scale(0.015625)"/>
     <path id="DejaVuSans-50" d="M 1259 4147 
L 1259 2394 
L 2053 2394 
Q 2494 2394 2734 2622 
Q 2975 2850 2975 3272 
Q 2975 3691 2734 3919 
Q 2494 4147 2053 4147 
L 1259 4147 
z
M 628 4666 
L 2053 4666 
Q 2838 4666 3239 4311 
Q 3641 3956 3641 3272 
Q 3641 2581 3239 2228 
Q 2838 1875 2053 1875 
L 1259 1875 
L 1259 0 
L 628 0 
L 628 4666 
z
" transform="scale(0.015625)"/>
     <path id="DejaVuSans-2f" d="M 1625 4666 
L 2156 4666 
L 531 -594 
L 0 -594 
L 1625 4666 
z
" transform="scale(0.015625)"/>
     <path id="DejaVuSans-3a" d="M 750 794 
L 1409 794 
L 1409 0 
L 750 0 
L 750 794 
z
M 750 3309 
L 1409 3309 
L 1409 2516 
L 750 2516 
L 750 3309 
z
" transform="scale(0.015625)"/>
     <path id="DejaVuSans-3e" d="M 678 3150 
L 678 3719 
L 4684 2266 
L 4684 1747 
L 678 294 
L 678 863 
L 3897 2003 
L 678 3150 
z
" transform="scale(0.015625)"/>
     <path id="DejaVuSans-37" d="M 525 4666 
L 3525 4666 
L 3525 4397 
L 1831 0 
L 1172 0 
L 2766 4134 
L 525 4134 
L 525 4666 
z
" transform="scale(0.015625)"/>
    </defs>
    <use xlink:href="#DejaVuSans-54"/>
    <use xlink:href="#DejaVuSans-68" transform="translate(61.083984 0)"/>
    <use xlink:href="#DejaVuSans-72" transform="translate(124.462891 0)"/>
    <use xlink:href="#DejaVuSans-65" transform="translate(163.326172 0)"/>
    <use xlink:href="#DejaVuSans-73" transform="translate(224.849609 0)"/>
    <use xlink:href="#DejaVuSans-68" transform="translate(276.949219 0)"/>
    <use xlink:href="#DejaVuSans-6f" transform="translate(340.328125 0)"/>
    <use xlink:href="#DejaVuSans-6c" transform="translate(401.509766 0)"/>
    <use xlink:href="#DejaVuSans-64" transform="translate(429.292969 0)"/>
    <use xlink:href="#DejaVuSans-73" transform="translate(492.769531 0)"/>
    <use xlink:href="#DejaVuSans-20" transform="translate(544.869141 0)"/>
    <use xlink:href="#DejaVuSans-61" transform="translate(576.65625 0)"/>
    <use xlink:href="#DejaVuSans-72" transform="translate(637.935547 0)"/>
    <use xlink:href="#DejaVuSans-65" transform="translate(676.798828 0)"/>
    <use xlink:href="#DejaVuSans-20" transform="translate(738.322266 0)"/>
    <use xlink:href="#DejaVuSans-66" transform="translate(770.109375 0)"/>
    <use xlink:href="#DejaVuSans-69" transform="translate(805.314453 0)"/>
    <use xlink:href="#DejaVuSans-78" transform="translate(833.097656 0)"/>
    <use xlink:href="#DejaVuSans-65" transform="translate(889.152344 0)"/>
    <use xlink:href="#DejaVuSans-64" transform="translate(950.675781 0)"/>
    <use xlink:href="#DejaVuSans-20" transform="translate(1014.152344 0)"/>
    <use xlink:href="#DejaVuSans-62" transform="translate(1045.939453 0)"/>
    <use xlink:href="#DejaVuSans-79" transform="translate(1109.416016 0)"/>
    <use xlink:href="#DejaVuSans-20" transform="translate(1168.595703 0)"/>
    <use xlink:href="#DejaVuSans-74" transform="translate(1200.382812 0)"/>
    <use xlink:href="#DejaVuSans-68" transform="translate(1239.591797 0)"/>
    <use xlink:href="#DejaVuSans-65" transform="translate(1302.970703 0)"/>
    <use xlink:href="#DejaVuSans-20" transform="translate(1364.494141 0)"/>
    <use xlink:href="#DejaVuSans-63" transform="translate(1396.28125 0)"/>
    <use xlink:href="#DejaVuSans-72" transform="translate(1451.261719 0)"/>
    <use xlink:href="#DejaVuSans-65" transform="translate(1490.125 0)"/>
    <use xlink:href="#DejaVuSans-64" transform="translate(1551.648438 0)"/>
    <use xlink:href="#DejaVuSans-69" transform="translate(1615.125 0)"/>
    <use xlink:href="#DejaVuSans-74" transform="translate(1642.908203 0)"/>
    <use xlink:href="#DejaVuSans-20" transform="translate(1682.117188 0)"/>
    <use xlink:href="#DejaVuSans-66" transform="translate(1713.904297 0)"/>
    <use xlink:href="#DejaVuSans-72" transform="translate(1749.109375 0)"/>
    <use xlink:href="#DejaVuSans-61" transform="translate(1790.222656 0)"/>
    <use xlink:href="#DejaVuSans-6d" transform="translate(1851.501953 0)"/>
    <use xlink:href="#DejaVuSans-65" transform="translate(1948.914062 0)"/>
    <use xlink:href="#DejaVuSans-77" transform="translate(2010.4375 0)"/>
    <use xlink:href="#DejaVuSans-6f" transform="translate(2092.224609 0)"/>
    <use xlink:href="#DejaVuSans-72" transform="translate(2153.40625 0)"/>
    <use xlink:href="#DejaVuSans-6b" transform="translate(2194.519531 0)"/>
    <use xlink:href="#DejaVuSans-20" transform="translate(2252.429688 0)"/>
    <use xlink:href="#DejaVuSans-2014" transform="translate(2284.216797 0)"/>
    <use xlink:href="#DejaVuSans-20" transform="translate(2384.216797 0)"/>
    <use xlink:href="#DejaVuSans-6e" transform="translate(2416.003906 0)"/>
    <use xlink:href="#DejaVuSans-6f" transform="translate(2479.382812 0)"/>
    <use xlink:href="#DejaVuSans-74" transform="translate(2540.564453 0)"/>
    <use xlink:href="#DejaVuSans-20" transform="translate(2579.773438 0)"/>
    <use xlink:href="#DejaVuSans-6c" transform="translate(2611.560547 0)"/>
    <use xlink:href="#DejaVuSans-69" transform="translate(2639.34375 0)"/>
    <use xlink:href="#DejaVuSans-76" transform="translate(2667.126953 0)"/>
    <use xlink:href="#DejaVuSans-65" transform="translate(2726.306641 0)"/>
    <use xlink:href="#DejaVuSans-20" transform="translate(2787.830078 0)"/>
    <use xlink:href="#DejaVuSans-70" transform="translate(2819.617188 0)"/>
    <use xlink:href="#DejaVuSans-72" transform="translate(2883.09375 0)"/>
    <use xlink:href="#DejaVuSans-6f" transform="translate(2921.957031 0)"/>
    <use xlink:href="#DejaVuSans-74" transform="translate(2983.138672 0)"/>
    <use xlink:href="#DejaVuSans-6f" transform="translate(3022.347656 0)"/>
    <use xlink:href="#DejaVuSans-63" transform="translate(3083.529297 0)"/>
    <use xlink:href="#DejaVuSans-6f" transform="translate(3138.509766 0)"/>
    <use xlink:href="#DejaVuSans-6c" transform="translate(3199.691406 0)"/>
    <use xlink:href="#DejaVuSans-20" transform="translate(3227.474609 0)"/>
    <use xlink:href="#DejaVuSans-64" transform="translate(3259.261719 0)"/>
    <use xlink:href="#DejaVuSans-61" transform="translate(3322.738281 0)"/>
    <use xlink:href="#DejaVuSans-74" transform="translate(3384.017578 0)"/>
    <use xlink:href="#DejaVuSans-61" transform="translate(3423.226562 0)"/>
    <use xlink:href="#DejaVuSans-2e" transform="translate(3484.505859 0)"/>
    <use xlink:href="#DejaVuSans-20" transform="translate(3516.292969 0)"/>
    <use xlink:href="#DejaVuSans-50" transform="translate(3548.080078 0)"/>
    <use xlink:href="#DejaVuSans-61" transform="translate(3603.882812 0)"/>
    <use xlink:href="#DejaVuSans-79" transform="translate(3665.162109 0)"/>
    <use xlink:href="#DejaVuSans-6d" transform="translate(3724.341797 0)"/>
    <use xlink:href="#DejaVuSans-65" transform="translate(3821.753906 0)"/>
    <use xlink:href="#DejaVuSans-6e" transform="translate(3883.277344 0)"/>
    <use xlink:href="#DejaVuSans-74" transform="translate(3946.65625 0)"/>
    <use xlink:href="#DejaVuSans-2d" transform="translate(3985.865234 0)"/>
    <use xlink:href="#DejaVuSans-64" transform="translate(4021.949219 0)"/>
    <use xlink:href="#DejaVuSans-65" transform="translate(4085.425781 0)"/>
    <use xlink:href="#DejaVuSans-6c" transform="translate(4146.949219 0)"/>
    <use xlink:href="#DejaVuSans-61" transform="translate(4174.732422 0)"/>
    <use xlink:href="#DejaVuSans-79" transform="translate(4236.011719 0)"/>
    <use xlink:href="#DejaVuSans-20" transform="translate(4295.191406 0)"/>
    <use xlink:href="#DejaVuSans-61" transform="translate(4326.978516 0)"/>
    <use xlink:href="#DejaVuSans-6d" transform="translate(4388.257812 0)"/>
    <use xlink:href="#DejaVuSans-62" transform="translate(4485.669922 0)"/>
    <use xlink:href="#DejaVuSans-65" transform="translate(4549.146484 0)"/>
    <use xlink:href="#DejaVuSans-72" transform="translate(4610.669922 0)"/>
    <use xlink:href="#DejaVuSans-2f" transform="translate(4651.783203 0)"/>
    <use xlink:href="#DejaVuSans-72" transform="translate(4685.474609 0)"/>
    <use xlink:href="#DejaVuSans-65" transform="translate(4724.337891 0)"/>
    <use xlink:href="#DejaVuSans-64" transform="translate(4785.861328 0)"/>
    <use xlink:href="#DejaVuSans-3a" transform="translate(4849.337891 0)"/>
    <use xlink:href="#DejaVuSans-20" transform="translate(4883.029297 0)"/>
    <use xlink:href="#DejaVuSans-3e" transform="translate(4914.816406 0)"/>
    <use xlink:href="#DejaVuSans-37" transform="translate(4998.605469 0)"/>
    <use xlink:href="#DejaVuSans-20" transform="translate(5062.228516 0)"/>
    <use xlink:href="#DejaVuSans-64" transform="translate(5094.015625 0)"/>
    <use xlink:href="#DejaVuSans-61" transform="translate(5157.492188 0)"/>
    <use xlink:href="#DejaVuSans-79" transform="translate(5218.771484 0)"/>
    <use xlink:href="#DejaVuSans-73" transform="translate(5277.951172 0)"/>
    <use xlink:href="#DejaVuSans-20" transform="translate(5330.050781 0)"/>
    <use xlink:href="#DejaVuSans-2f" transform="translate(5361.837891 0)"/>
    <use xlink:href="#DejaVuSans-20" transform="translate(5395.529297 0)"/>
    <use xlink:href="#DejaVuSans-3e" transform="translate(5427.316406 0)"/>
    <use xlink:href="#DejaVuSans-32" transform="translate(5511.105469 0)"/>
    <use xlink:href="#DejaVuSans-31" transform="translate(5574.728516 0)"/>
    <use xlink:href="#DejaVuSans-20" transform="translate(5638.351562 0)"/>
    <use xlink:href="#DejaVuSans-64" transform="translate(5670.138672 0)"/>
    <use xlink:href="#DejaVuSans-61" transform="translate(5733.615234 0)"/>
    <use xlink:href="#DejaVuSans-79" transform="translate(5794.894531 0)"/>
    <use xlink:href="#DejaVuSans-73" transform="translate(5854.074219 0)"/>
    <use xlink:href="#DejaVuSans-20" transform="translate(5906.173828 0)"/>
    <use xlink:href="#DejaVuSans-6c" transform="translate(5937.960938 0)"/>
    <use xlink:href="#DejaVuSans-61" transform="translate(5965.744141 0)"/>
    <use xlink:href="#DejaVuSans-74" transform="translate(6027.023438 0)"/>
    <use xlink:href="#DejaVuSans-65" transform="translate(6066.232422 0)"/>
    <use xlink:href="#DejaVuSans-2e" transform="translate(6127.755859 0)"/>
   </g>
  </g>
 </g>
 <defs>
  <clipPath id="pa41c23926f">
   <rect x="99" y="62.208" width="613.8" height="152.064"/>
  </clipPath>
 </defs>
</svg>
