<svg preserveAspectRatio="none" width="240" height="240" overflow="visible" style="display: block;" viewBox="0 0 240 240" fill="none" xmlns="http://www.w3.org/2000/svg">
<g id="IMG">
<path d="M106 60H133" stroke="currentColor" stroke-width="1.68"/>
<path d="M133 60H193" stroke="currentColor" stroke-width="0.22"/>
<path d="M90 66H119" stroke="currentColor" stroke-width="2.12"/>
<path d="M119 66H148" stroke="currentColor" stroke-width="1.32"/>
<path d="M148 66H208" stroke="currentColor" stroke-width="0.22"/>
<path d="M82 72H96" stroke="currentColor" stroke-width="2.6"/>
<path d="M96 72H156" stroke="currentColor" stroke-width="0.22"/>
<path d="M143 72H157" stroke="currentColor" stroke-width="0.94"/>
<path d="M157 72H217" stroke="currentColor" stroke-width="0.22"/>
<path d="M75 78H86" stroke="currentColor" stroke-width="2.88"/>
<path d="M86 78H146" stroke="currentColor" stroke-width="0.22"/>
<path d="M153 78H164" stroke="currentColor" stroke-width="0.78"/>
<path d="M164 78H224" stroke="currentColor" stroke-width="0.22"/>
<path d="M70 84H80" stroke="currentColor" stroke-width="2.94"/>
<path d="M80 84H140" stroke="currentColor" stroke-width="0.22"/>
<path d="M117 84H122" stroke="currentColor" stroke-width="1.68"/>
<path d="M122 84H182" stroke="currentColor" stroke-width="0.22"/>
<path d="M159 84H169" stroke="currentColor" stroke-width="0.7"/>
<path d="M169 84H229" stroke="currentColor" stroke-width="0.22"/>
<path d="M67 90H75" stroke="currentColor" stroke-width="2.81"/>
<path d="M75 90H135" stroke="currentColor" stroke-width="0.22"/>
<path d="M116 90H123" stroke="currentColor" stroke-width="1.68"/>
<path d="M123 90H183" stroke="currentColor" stroke-width="0.22"/>
<path d="M164 90H173" stroke="currentColor" stroke-width="0.64"/>
<path d="M173 90H233" stroke="currentColor" stroke-width="0.22"/>
<path d="M64 96H72" stroke="currentColor" stroke-width="2.71"/>
<path d="M72 96H132" stroke="currentColor" stroke-width="0.22"/>
<path d="M116 96H123" stroke="currentColor" stroke-width="1.68"/>
<path d="M123 96H183" stroke="currentColor" stroke-width="0.22"/>
<path d="M167 96H175" stroke="currentColor" stroke-width="0.61"/>
<path d="M175 96H235" stroke="currentColor" stroke-width="0.22"/>
<path d="M61 102H69" stroke="currentColor" stroke-width="2.61"/>
<path d="M69 102H129" stroke="currentColor" stroke-width="0.22"/>
<path d="M116 102H123" stroke="currentColor" stroke-width="1.68"/>
<path d="M123 102H183" stroke="currentColor" stroke-width="0.22"/>
<path d="M170 102H178" stroke="currentColor" stroke-width="0.6"/>
<path d="M178 102H238" stroke="currentColor" stroke-width="0.22"/>
<path d="M60 108H67" stroke="currentColor" stroke-width="2.56"/>
<path d="M67 108H127" stroke="currentColor" stroke-width="0.22"/>
<path d="M116 108H123" stroke="currentColor" stroke-width="1.68"/>
<path d="M123 108H183" stroke="currentColor" stroke-width="0.22"/>
<path d="M172 108H179" stroke="currentColor" stroke-width="0.6"/>
<path d="M179 108H239" stroke="currentColor" stroke-width="0.22"/>
<path d="M51 114H75" stroke="currentColor" stroke-width="2.55"/>
<path d="M75 114H135" stroke="currentColor" stroke-width="0.22"/>
<path d="M116 114H123" stroke="currentColor" stroke-width="1.68"/>
<path d="M123 114H183" stroke="currentColor" stroke-width="0.22"/>
<path d="M173 114H180" stroke="currentColor" stroke-width="0.6"/>
<path d="M180 114H240" stroke="currentColor" stroke-width="0.22"/>
<path d="M50 120H75" stroke="currentColor" stroke-width="2.53"/>
<path d="M75 120H135" stroke="currentColor" stroke-width="0.22"/>
<path d="M116 120H123" stroke="currentColor" stroke-width="1.68"/>
<path d="M123 120H183" stroke="currentColor" stroke-width="0.22"/>
<path d="M173 120H180" stroke="currentColor" stroke-width="0.6"/>
<path d="M180 120H240" stroke="currentColor" stroke-width="0.22"/>
<path d="M54 126H71" stroke="currentColor" stroke-width="2.53"/>
<path d="M71 126H131" stroke="currentColor" stroke-width="0.22"/>
<path d="M118 126H130" stroke="currentColor" stroke-width="1.56"/>
<path d="M130 126H190" stroke="currentColor" stroke-width="0.22"/>
<path d="M173 126H180" stroke="currentColor" stroke-width="0.6"/>
<path d="M180 126H240" stroke="currentColor" stroke-width="0.22"/>
<path d="M58 132H67" stroke="currentColor" stroke-width="2.53"/>
<path d="M67 132H127" stroke="currentColor" stroke-width="0.22"/>
<path d="M126 132H138" stroke="currentColor" stroke-width="1.36"/>
<path d="M138 132H198" stroke="currentColor" stroke-width="0.22"/>
<path d="M171 132H179" stroke="currentColor" stroke-width="0.6"/>
<path d="M179 132H239" stroke="currentColor" stroke-width="0.22"/>
<path d="M134 138H146" stroke="currentColor" stroke-width="1.16"/>
<path d="M146 138H206" stroke="currentColor" stroke-width="0.22"/>
<path d="M170 138H177" stroke="currentColor" stroke-width="0.6"/>
<path d="M177 138H237" stroke="currentColor" stroke-width="0.22"/>
<path d="M142 144H145" stroke="currentColor" stroke-width="1.08"/>
<path d="M145 144H205" stroke="currentColor" stroke-width="0.22"/>
<path d="M167 144H175" stroke="currentColor" stroke-width="0.61"/>
<path d="M175 144H235" stroke="currentColor" stroke-width="0.22"/>
<path d="M163 150H172" stroke="currentColor" stroke-width="0.65"/>
<path d="M172 150H232" stroke="currentColor" stroke-width="0.22"/>
<path d="M71 156H81" stroke="currentColor" stroke-width="2.97"/>
<path d="M81 156H141" stroke="currentColor" stroke-width="0.22"/>
<path d="M158 156H168" stroke="currentColor" stroke-width="0.71"/>
<path d="M168 156H228" stroke="currentColor" stroke-width="0.22"/>
<path d="M76 162H87" stroke="currentColor" stroke-width="2.84"/>
<path d="M87 162H147" stroke="currentColor" stroke-width="0.22"/>
<path d="M152 162H163" stroke="currentColor" stroke-width="0.8"/>
<path d="M163 162H223" stroke="currentColor" stroke-width="0.22"/>
<path d="M83 168H98" stroke="currentColor" stroke-width="2.55"/>
<path d="M98 168H158" stroke="currentColor" stroke-width="0.22"/>
<path d="M141 168H156" stroke="currentColor" stroke-width="0.98"/>
<path d="M156 168H216" stroke="currentColor" stroke-width="0.22"/>
<path d="M93 174H122" stroke="currentColor" stroke-width="2.03"/>
<path d="M122 174H147" stroke="currentColor" stroke-width="1.29"/>
<path d="M147 174H207" stroke="currentColor" stroke-width="0.22"/>
<path d="M111 180H128" stroke="currentColor" stroke-width="1.68"/>
<path d="M128 180H188" stroke="currentColor" stroke-width="0.22"/>
</g>
</svg>
