<svg viewBox="0 0 313.672 200" fill="none" xmlns="http://www.w3.org/2000/svg">
<g id="Union">
<path d="M93.219 196.958H131.01V199.603H93.219V200H55.4275V199.924H17.636V196.637H55.4275V196.561H93.219V196.958Z" fill="#262524"/>
<path d="M168.803 197.619H206.594V197.751H207.854V198.142H283.438V198.419H207.854V198.809H206.594V198.942H168.803V199.25H131.011V197.31H168.803V197.619Z" fill="#262524"/>
<path d="M81.8818 189.285H119.673V189.651H157.465V189.972H195.256V191.471H157.465V191.793H119.673V192.158H81.8818V192.568H44.0903V188.876H81.8818V189.285Z" fill="#262524"/>
<path d="M44.0895 192.246H6.29804V189.198H44.0895V192.246Z" fill="#262524"/>
<path d="M219.192 190.583H294.776V190.86H219.192V191.251H195.257V190.193H219.192V190.583Z" fill="#262524"/>
<path d="M78.1025 181.683H115.894V182.055H153.686V184.272H115.894V184.643H78.1025V185.053H40.311V184.643H2.51954V181.683H40.311V181.274H78.1025V181.683Z" fill="#262524"/>
<path d="M191.478 182.634H222.971V183.025H298.554V183.302H222.971V183.692H191.478V183.944H153.686V182.382H191.478V182.634Z" fill="#262524"/>
<path d="M76.8428 174.113H114.634V174.49H152.426V176.72H114.634V177.098H76.8428V177.482H39.0513V177.073H1.25977V174.138H39.0513V173.729H76.8428V174.113Z" fill="#262524"/>
<path d="M190.218 175.076H224.23V175.467H299.814V175.744H224.23V176.134H190.218V176.392H152.427V174.818H190.218V175.076Z" fill="#262524"/>
<path d="M75.583 166.541H113.374V166.92H151.166V169.174H113.374V169.552H75.583V169.911H37.7915V169.502H0V166.592H37.7915V166.182H75.583V166.541Z" fill="#262524"/>
<path d="M188.958 167.518H225.49V167.908H301.074V168.185H225.49V168.576H188.958V168.847H151.167V167.247H188.958V167.518Z" fill="#262524"/>
<path d="M75.583 158.983H113.374V159.361H151.166V161.615H113.374V161.994H75.583V162.353H37.7915V161.943H0V159.033H37.7915V158.624H75.583V158.983Z" fill="#262524"/>
<path d="M188.958 159.959H225.49V160.35H301.074V160.626H225.49V161.017H188.958V161.288H151.167V159.688H188.958V159.959Z" fill="#262524"/>
<path d="M75.583 151.425H113.374V151.803H151.166V154.057H113.374V154.436H75.583V154.795H37.7915V154.385H0V151.475H37.7915V151.066H75.583V151.425Z" fill="#262524"/>
<path d="M188.958 152.401H225.49V152.792H301.074V153.069H225.49V153.459H188.958V153.73H151.167V152.13H188.958V152.401Z" fill="#262524"/>
<path d="M75.583 143.866H113.374V144.245H151.166V146.499H113.374V146.877H75.583V147.236H37.7915V146.827H0V143.917H37.7915V143.507H75.583V143.866Z" fill="#262524"/>
<path d="M188.958 144.843H225.49V145.233H301.074V145.51H225.49V145.901H188.958V146.172H151.167V144.572H188.958V144.843Z" fill="#262524"/>
<path d="M75.583 136.308H113.374V136.686H151.166V138.94H113.374V139.319H75.583V139.677H37.7915V139.268H0V136.358H37.7915V135.949H75.583V136.308Z" fill="#262524"/>
<path d="M165.023 137.675H300.608V137.951H165.023V138.714H151.167V136.912H165.023V137.675Z" fill="#262524"/>
<path d="M75.583 128.75H113.374V129.128H151.166V131.382H113.374V131.761H75.583V132.12H37.7915V131.71H0V128.8H37.7915V128.391H75.583V128.75Z" fill="#262524"/>
<path d="M154.946 130.117H290.53V130.394H154.946V131.194H151.167V129.317H154.946V130.117Z" fill="#262524"/>
<path d="M75.583 121.191H113.374V121.563H149.906V123.83H113.374V124.202H75.583V124.561H37.7915V124.152H0V121.242H37.7915V120.832H75.583V121.191Z" fill="#262524"/>
<path d="M219.191 122.558L219.192 122.269H231.789V122.558H307.373V122.835H231.789V123.125H219.192V122.835L219.191 123.27H181.4V122.835H149.907V122.558H181.4V122.124H219.191V122.558Z" fill="#262524"/>
<path d="M75.583 113.632H113.374V113.986H146.127V116.29H113.374V116.644H75.583V117.002H37.7915V116.593H0V113.683H37.7915V113.274H75.583V113.632Z" fill="#262524"/>
<path d="M207.854 114.69H236.828V115H312.412V115.276H236.828V115.586H207.854V115.793H170.063V115.276H146.128V115H170.063V114.483H207.854V114.69Z" fill="#262524"/>
<path d="M75.583 106.075H113.374V106.415H143.608V107.442H165.023V106.793H177.62V107.442H199.036V107.114H236.828V107.196H238.088V107.442H313.672V107.719H238.088V107.964H236.828V108.046H199.036V107.719H177.62V108.367H165.023V107.719H143.608V108.746H113.374V109.086H75.583V109.445H37.7915V109.035H0V106.125H37.7915V105.716H75.583V106.075Z" fill="#262524"/>
<path d="M75.583 98.516H113.374V98.8562H143.608V99.8832H163.764V99.2151H175.101V99.8832H201.555V99.5618H238.087V99.8832H313.672V100.16H238.087V100.481H201.555V100.16H175.101V100.828H163.764V100.16H143.608V101.187H113.374V101.527H75.583V101.886H37.7915V101.477H0V98.5665H37.7915V98.1571H75.583V98.516Z" fill="#262524"/>
<path d="M75.583 90.9574H113.374V91.2976H143.608V92.3246H165.023V91.6695H176.361V92.3246H200.295V92.0031H238.087V92.3246H313.672V92.6013H238.087V92.9227H200.295V92.6013H176.361V93.2564H165.023V92.6013H143.608V93.6283H113.374V93.9685H75.583V94.3274H37.7915V93.918H0V91.0079H37.7915V90.5985H75.583V90.9574Z" fill="#262524"/>
<path d="M75.583 83.3996H113.374V83.7463H144.868V84.7668H168.803V84.2435H206.594V84.4575H236.828V84.7668H312.412V85.0435H236.828V85.3527H206.594V85.5668H168.803V85.0435H144.868V86.064H113.374V86.4107H75.583V86.7696H37.7915V86.3602H0V83.45H37.7915V83.0407H75.583V83.3996Z" fill="#262524"/>
<path d="M75.583 75.841H113.374V76.2064H148.646V78.4866H113.374V78.852H75.583V79.2109H37.7915V78.8016H0V75.8914H37.7915V75.4821H75.583V75.841Z" fill="#262524"/>
<path d="M215.412 77.2082L215.413 76.9119H233.049V77.2082H308.632V77.4849H233.049V77.7811H215.413V77.4849L215.412 77.9447H177.62V77.4849H148.647V77.2082H177.62V76.7484H215.412V77.2082Z" fill="#262524"/>
<path d="M75.583 68.2823H113.374V68.6608H151.166V70.915H113.374V71.2934H75.583V71.6523H37.7915V71.243H0V68.3328H37.7915V67.9235H75.583V68.2823Z" fill="#262524"/>
<path d="M153.686 69.6495H289.27V69.9262H153.686V70.7327H151.167V68.8431H153.686V69.6495Z" fill="#262524"/>
<path d="M75.583 60.7245H113.374V61.1029H151.166V63.3572H113.374V63.7356H75.583V64.0945H37.7915V63.6852H0V60.775H37.7915V60.3656H75.583V60.7245Z" fill="#262524"/>
<path d="M162.504 62.0917H298.088V62.3684H162.504V63.1375H151.167V61.3227H162.504V62.0917Z" fill="#262524"/>
<path d="M75.583 53.1659H113.374V53.5443H151.166V55.7986H113.374V56.177H75.583V56.5359H37.7915V56.1265H0V53.2164H37.7915V52.807H75.583V53.1659Z" fill="#262524"/>
<path d="M188.958 54.1425H225.49V54.5331H301.074V54.8098H225.49V55.2004H188.958V55.4714H151.167V53.8715H188.958V54.1425Z" fill="#262524"/>
<path d="M75.583 45.6081H113.374V45.9865H151.166V48.2408H113.374V48.6192H75.583V48.9781H37.7915V48.5687H0V45.6586H37.7915V45.2492H75.583V45.6081Z" fill="#262524"/>
<path d="M188.958 46.5847H225.49V46.9753H301.074V47.252H225.49V47.6426H188.958V47.9136H151.167V46.3137H188.958V46.5847Z" fill="#262524"/>
<path d="M75.583 38.0495H113.374V38.4279H151.166V40.6821H113.374V41.0606H75.583V41.4194H37.7915V41.0101H0V38.0999H37.7915V37.6906H75.583V38.0495Z" fill="#262524"/>
<path d="M188.958 39.026H225.49V39.4167H301.074V39.6934H225.49V40.084H188.958V40.355H151.167V38.755H188.958V39.026Z" fill="#262524"/>
<path d="M75.583 30.4908H113.374V30.8693H151.166V33.1235H113.374V33.5019H75.583V33.8608H37.7915V33.4515H0V30.5413H37.7915V30.132H75.583V30.4908Z" fill="#262524"/>
<path d="M188.958 31.4674H225.49V31.858H301.074V32.1347H225.49V32.5254H188.958V32.7964H151.167V31.1964H188.958V31.4674Z" fill="#262524"/>
<path d="M76.8428 22.9461H114.634V23.3237H152.426V25.5535H114.634V25.9311H76.8428V26.3152H39.0513V25.9059H1.25977V22.9713H39.0513V22.5619H76.8428V22.9461Z" fill="#262524"/>
<path d="M190.218 23.9096H224.23V24.3002H299.814V24.5769H224.23V24.9675H190.218V25.2255H152.427V23.6516H190.218V23.9096Z" fill="#262524"/>
<path d="M76.8428 15.3874H114.634V15.765H152.426V17.9949H114.634V18.3725H76.8428V18.7566H39.0513V18.3472H1.25977V15.4127H39.0513V15.0033H76.8428V15.3874Z" fill="#262524"/>
<path d="M190.218 16.351H224.23V16.7416H299.814V17.0183H224.23V17.4089H190.218V17.6669H152.427V16.093H190.218V16.351Z" fill="#262524"/>
<path d="M80.6221 7.86624H118.414V8.23815H156.205V8.5653H193.997V10.0774H156.205V10.4045H118.414V10.7764H80.6221V11.1792H42.8306V7.46341H80.6221V7.86624Z" fill="#262524"/>
<path d="M42.8298 10.8334H5.03827V7.80928H42.8298V10.8334Z" fill="#262524"/>
<path d="M220.452 9.18298H296.036V9.45967H220.452V9.8503H193.997V8.79235H220.452V9.18298Z" fill="#262524"/>
<path d="M89.4397 3.52703H51.6482V3.36346H13.8567V0.163575H51.6482V0H89.4397V3.52703Z" fill="#262524"/>
<path d="M127.232 0.761722H165.023V1.07097H202.815V1.23454H211.633V1.62517H287.217V1.90186H211.633V2.29249H202.815V2.45606H165.023V2.76531H127.232V3.1242H89.4405V0.402834H127.232V0.761722Z" fill="#262524"/>
</g>
</svg>
