<svg width="620" height="172" viewBox="0 0 620 172" fill="none" xmlns="http://www.w3.org/2000/svg">
<path fill-rule="evenodd" clip-rule="evenodd" d="M212.012 43.8599C236.118 43.8599 251.04 64.2948 251.04 90.4674C251.04 119.234 235.413 139.672 208.166 139.672C199.136 139.672 189.949 137.472 183.274 132.678V148.712C183.275 154.762 184.373 157.198 185.865 158.692C187.671 160.499 189.948 161.443 196.936 161.443H199.526V171.034H148.488V161.443H150.136C156.418 161.443 158.62 160.499 160.269 158.692C161.917 157.198 163.013 154.84 163.013 148.712V67.9904C163.013 61.9388 161.917 59.5001 160.269 58.0067C158.62 56.1989 156.418 55.255 150.136 55.255H148.488V45.6679H181.627V62.6457C186.966 51.0136 198.35 43.8604 212.012 43.8599ZM204.791 58.6372C197.959 58.6372 192.305 61.3884 188.222 67.1261C184.689 72.4704 182.724 80.1717 182.724 89.9955V91.8035C182.724 101.943 184.532 113.576 190.107 121.279C193.798 126.466 198.901 129.926 206.518 129.926C222.692 129.925 228.03 114.598 228.03 97.3069C228.03 74.1215 219.395 58.6386 204.791 58.6372Z" fill="#000080"/>
<path fill-rule="evenodd" clip-rule="evenodd" d="M296.418 43.8599C320.758 43.861 335.05 63.1978 335.05 87.7198H273.566C273.567 107.997 283.855 121.279 301.757 121.279C314.791 121.278 323.505 113.026 326.803 100.451H335.05C333.244 121.83 320.678 139.672 297.828 139.672C272.623 139.671 255.504 120.491 255.504 92.6679C255.504 64.8449 272.076 43.8599 296.418 43.8599ZM295.475 53.8436C284.796 53.8436 275.609 63.2736 274.117 78.5211H314.789C314.789 62.3311 307.252 53.8444 295.475 53.8436Z" fill="#000080"/>
<path fill-rule="evenodd" clip-rule="evenodd" d="M581.364 43.8599C605.706 43.8599 620 63.1971 620 87.7198H558.516C558.517 107.997 568.802 121.278 586.703 121.279C599.738 121.279 608.455 113.027 611.753 100.451H620C618.194 121.83 605.628 139.672 582.778 139.672C557.573 139.672 540.454 120.491 540.454 92.6679C540.455 64.8455 557.023 43.8608 581.364 43.8599ZM580.5 53.8436C569.822 53.8444 560.634 63.2741 559.142 78.5211H599.818C599.818 62.3304 592.278 53.8436 580.5 53.8436Z" fill="#000080"/>
<path d="M371.021 115.541C371.021 121.593 372.119 124.032 373.611 125.525C375.417 127.333 377.697 128.273 383.744 128.273H386.714C392.994 128.273 395.193 127.332 396.842 125.525C398.491 124.032 399.591 121.672 399.591 115.541V67.9904C399.591 61.9383 398.491 59.5 396.842 58.0067C395.193 56.1993 392.994 55.2551 386.714 55.255H385.22V45.6679H419.848V115.541C419.848 121.594 420.948 124.032 422.597 125.525C424.246 127.332 426.445 128.273 432.725 128.273H434.219V137.864H336.235V128.273H337.886C344.166 128.273 346.366 127.332 348.015 125.525C349.664 124.032 350.764 121.672 350.764 115.541V31.1287C350.764 25.0768 349.664 22.6383 348.015 21.145C346.366 19.3373 344.167 18.3934 337.886 18.3933H336.235V8.80622H371.021V115.541Z" fill="#000080"/>
<path d="M497.759 43.7806C505.297 43.7806 513.385 46.1396 518.725 51.877C523.671 57.2216 526.5 64.7671 526.5 76.7924V115.462C526.5 121.514 527.6 123.953 529.249 125.446C530.898 127.253 533.097 128.198 538.435 128.198H539.691V137.785H494.225V128.198H495.168C499.565 128.198 502 127.488 503.649 125.759C505.298 124.108 506.239 121.514 506.239 115.462V80.0953C506.239 71.0565 504.747 67.0452 502.155 64.2157C499.172 60.9157 495.167 59.4222 490.221 59.4222C483.626 59.4225 478.051 62.4082 474.361 66.8087C470.67 71.446 468.863 77.895 468.863 90.3922V115.462C468.863 121.513 469.805 124.108 471.453 125.759C473.102 127.41 475.538 128.198 480.092 128.198H480.797V137.785H434.235V128.273H435.729C442.009 128.273 444.208 127.332 445.857 125.525C447.506 124.032 448.606 121.672 448.606 115.541V67.9904C448.606 61.9383 447.506 59.5 445.857 58.0067C444.208 56.1993 442.009 55.2551 435.729 55.255H434.235V45.6679H467.374V62.8002C472.007 52.2694 481.899 43.781 497.759 43.7806Z" fill="#000080"/>
<path d="M201.975 0.868513H271.935V1.33617H311.435V2.27985H271.935V2.67235H201.975V3.61602H135.728C136.968 4.62721 138.055 5.81933 138.948 7.15271H209.275V8.09638H279.239V8.48888H318.735V9.43256H279.239V9.82506H209.275V10.7687H140.754C141.15 11.896 141.427 13.0792 141.564 14.3054H210.848V15.2491H280.812V15.7209H320.308V16.5853H280.812V17.0571H210.848V17.9214H141.564C141.424 19.1762 141.14 20.3867 140.729 21.5375H209.275V22.4018H279.239V22.8736H318.735V23.738H279.239V24.2098H209.275V25.0741H138.952C138.036 26.4432 136.913 27.6617 135.632 28.6902H201.975V29.5545H271.935V30.0263H311.435V30.8907H271.935V31.3625H201.975V32.3062H123.922V32.1433C115.806 31.3174 109.472 24.4554 109.472 16.1134C109.473 7.77189 115.807 0.909289 123.922 0.0835109V0H201.975V0.868513Z" fill="#000080"/>
<path d="M409.261 0C418.15 0 425.358 7.21522 425.358 16.1134C425.358 25.0122 418.151 32.2269 409.261 32.2269C400.371 32.2262 393.163 25.0118 393.163 16.1134C393.164 7.21563 400.371 0.000673644 409.261 0Z" fill="#000080"/>
<path fill-rule="evenodd" clip-rule="evenodd" d="M56.1441 8.88556C74.0471 8.88556 82.6865 12.5782 89.2824 18.0801C96.0177 24.0074 101.005 34.1252 101.555 45.6679H136.157V115.541C136.157 121.594 137.257 124.032 138.906 125.525C140.555 127.332 142.755 128.273 149.035 128.273H150.528V137.864H101.53V128.273H103.019C109.301 128.273 111.503 127.333 113.152 125.525C114.8 124.032 115.896 121.672 115.896 115.541V67.9904C115.896 61.9388 114.8 59.5001 113.152 58.0067C111.503 56.1989 109.301 55.255 103.019 55.255H101.054C98.0383 75.2142 82.5042 89.6027 53.7121 89.603C47.2739 89.603 41.9339 88.8967 37.3015 87.9537V114.126C37.3015 120.57 38.3993 123.008 40.2048 124.815C42.0108 126.623 44.4455 127.567 51.8266 127.567H54.5756V137.864H0V127.567H1.80625C8.24467 127.567 10.6793 126.623 12.4853 124.815C14.1342 123.008 15.2343 120.571 15.2343 114.126V32.6194C15.2342 26.1751 14.1341 23.7376 12.4853 21.93C10.6794 20.1231 8.24341 19.1783 1.80625 19.1783H0V8.88556H56.1441ZM37.3765 77.2643L37.3015 77.1849V18.7858H46.7207C57.9491 18.7858 64.7833 21.5372 70.1227 27.2747C74.6769 32.0691 77.2684 39.6154 77.2685 49.5971C77.2685 66.5739 67.3745 78.5205 49.3153 78.5211C44.9181 78.5211 40.8315 77.9717 37.3765 77.2643Z" fill="#000080"/>
</svg>
